<mxfile host="Electron" modified="2023-08-15T19:37:19.838Z" agent="Mozilla/5.0 (Windows NT 10.0; Win64; x64) AppleWebKit/537.36 (KHTML, like Gecko) draw.io/21.6.5 Chrome/114.0.5735.243 Electron/25.3.1 Safari/537.36" etag="-OREeja3cWrv8EpwMIPb" version="21.6.5" type="device">
  <diagram name="Page-1" id="yvMuT_vzadAieQc7Wc1n">
    <mxGraphModel dx="1978" dy="673" grid="1" gridSize="10" guides="1" tooltips="1" connect="1" arrows="1" fold="1" page="1" pageScale="1" pageWidth="827" pageHeight="1169" math="0" shadow="0">
      <root>
        <mxCell id="0" />
        <mxCell id="1" parent="0" />
        <mxCell id="qfzlSMDLd1hETzHLxcoC-25" value="" style="rounded=0;whiteSpace=wrap;html=1;" parent="1" vertex="1">
          <mxGeometry x="79" y="290" width="670" height="220" as="geometry" />
        </mxCell>
        <mxCell id="3ioDwAA6a8Dou9nwrUEn-46" value="&lt;h1&gt;Weather-email application microservice diagram&lt;/h1&gt;" style="text;html=1;align=center;verticalAlign=middle;resizable=0;points=[];autosize=1;strokeColor=none;fillColor=none;" parent="1" vertex="1">
          <mxGeometry x="122.99999999999999" y="110" width="580" height="70" as="geometry" />
        </mxCell>
        <mxCell id="qfzlSMDLd1hETzHLxcoC-7" style="edgeStyle=orthogonalEdgeStyle;rounded=0;orthogonalLoop=1;jettySize=auto;html=1;entryX=0;entryY=0.5;entryDx=0;entryDy=0;startArrow=classic;startFill=1;" parent="1" source="qfzlSMDLd1hETzHLxcoC-1" target="qfzlSMDLd1hETzHLxcoC-5" edge="1">
          <mxGeometry relative="1" as="geometry" />
        </mxCell>
        <mxCell id="qfzlSMDLd1hETzHLxcoC-8" value="Generate&lt;br&gt;&lt;font style=&quot;font-size: 10px;&quot;&gt;weather graph&lt;/font&gt;" style="edgeLabel;html=1;align=center;verticalAlign=middle;resizable=0;points=[];" parent="qfzlSMDLd1hETzHLxcoC-7" vertex="1" connectable="0">
          <mxGeometry x="-0.1019" y="2" relative="1" as="geometry">
            <mxPoint as="offset" />
          </mxGeometry>
        </mxCell>
        <mxCell id="qfzlSMDLd1hETzHLxcoC-11" style="edgeStyle=orthogonalEdgeStyle;rounded=0;orthogonalLoop=1;jettySize=auto;html=1;" parent="1" source="qfzlSMDLd1hETzHLxcoC-1" target="qfzlSMDLd1hETzHLxcoC-9" edge="1">
          <mxGeometry relative="1" as="geometry" />
        </mxCell>
        <mxCell id="qfzlSMDLd1hETzHLxcoC-12" value="Send email to users" style="edgeLabel;html=1;align=center;verticalAlign=middle;resizable=0;points=[];" parent="qfzlSMDLd1hETzHLxcoC-11" vertex="1" connectable="0">
          <mxGeometry x="-0.1292" y="1" relative="1" as="geometry">
            <mxPoint x="-1" y="23" as="offset" />
          </mxGeometry>
        </mxCell>
        <mxCell id="qfzlSMDLd1hETzHLxcoC-20" style="edgeStyle=orthogonalEdgeStyle;rounded=0;orthogonalLoop=1;jettySize=auto;html=1;entryX=0.5;entryY=1;entryDx=0;entryDy=0;entryPerimeter=0;startArrow=classic;startFill=1;" parent="1" source="qfzlSMDLd1hETzHLxcoC-1" target="qfzlSMDLd1hETzHLxcoC-19" edge="1">
          <mxGeometry relative="1" as="geometry" />
        </mxCell>
        <mxCell id="qfzlSMDLd1hETzHLxcoC-23" value="User &amp;amp; city info, error monitoring" style="edgeLabel;html=1;align=center;verticalAlign=middle;resizable=0;points=[];" parent="qfzlSMDLd1hETzHLxcoC-20" vertex="1" connectable="0">
          <mxGeometry x="0.0259" y="-2" relative="1" as="geometry">
            <mxPoint y="16" as="offset" />
          </mxGeometry>
        </mxCell>
        <mxCell id="ocC6ctCUgFMbPHnCsPzQ-7" style="edgeStyle=orthogonalEdgeStyle;rounded=0;orthogonalLoop=1;jettySize=auto;html=1;exitX=0.25;exitY=0;exitDx=0;exitDy=0;" edge="1" parent="1" source="qfzlSMDLd1hETzHLxcoC-1" target="ocC6ctCUgFMbPHnCsPzQ-1">
          <mxGeometry relative="1" as="geometry" />
        </mxCell>
        <mxCell id="qfzlSMDLd1hETzHLxcoC-1" value="&lt;p style=&quot;line-height: 110%; font-size: 10px;&quot;&gt;&lt;span style=&quot;&quot;&gt;weather-email-service&amp;nbsp;&lt;/span&gt;&lt;span style=&quot;background-color: initial;&quot;&gt;[WES]&lt;/span&gt;&lt;/p&gt;" style="whiteSpace=wrap;html=1;aspect=fixed;fillColor=#2087E2;fontColor=#ffffff;strokeColor=#006EAF;" parent="1" vertex="1">
          <mxGeometry x="373" y="350" width="90" height="90" as="geometry" />
        </mxCell>
        <mxCell id="qfzlSMDLd1hETzHLxcoC-2" value="" style="image;sketch=0;aspect=fixed;html=1;points=[];align=center;fontSize=12;image=img/lib/mscae/Docker.svg;" parent="1" vertex="1">
          <mxGeometry x="405.8" y="360" width="24.39" height="20" as="geometry" />
        </mxCell>
        <mxCell id="qfzlSMDLd1hETzHLxcoC-13" style="edgeStyle=orthogonalEdgeStyle;rounded=0;orthogonalLoop=1;jettySize=auto;html=1;entryX=0;entryY=0.5;entryDx=0;entryDy=0;startArrow=classic;startFill=1;" parent="1" source="qfzlSMDLd1hETzHLxcoC-3" target="qfzlSMDLd1hETzHLxcoC-1" edge="1">
          <mxGeometry relative="1" as="geometry" />
        </mxCell>
        <mxCell id="qfzlSMDLd1hETzHLxcoC-3" value="&lt;p style=&quot;line-height: 110%;&quot;&gt;&lt;font style=&quot;font-size: 10px;&quot;&gt;weather-email-service-ui [WES-UI]&lt;/font&gt;&lt;/p&gt;" style="whiteSpace=wrap;html=1;aspect=fixed;fillColor=#2087E2;fontColor=#ffffff;strokeColor=#006EAF;" parent="1" vertex="1">
          <mxGeometry x="109" y="350" width="90" height="90" as="geometry" />
        </mxCell>
        <mxCell id="qfzlSMDLd1hETzHLxcoC-4" value="" style="image;sketch=0;aspect=fixed;html=1;points=[];align=center;fontSize=12;image=img/lib/mscae/Docker.svg;" parent="1" vertex="1">
          <mxGeometry x="141.8" y="360" width="24.39" height="20" as="geometry" />
        </mxCell>
        <mxCell id="qfzlSMDLd1hETzHLxcoC-22" style="edgeStyle=orthogonalEdgeStyle;rounded=0;orthogonalLoop=1;jettySize=auto;html=1;entryX=1;entryY=0.5;entryDx=0;entryDy=0;entryPerimeter=0;" parent="1" source="qfzlSMDLd1hETzHLxcoC-5" target="qfzlSMDLd1hETzHLxcoC-19" edge="1">
          <mxGeometry relative="1" as="geometry">
            <mxPoint x="644" y="220" as="targetPoint" />
            <Array as="points">
              <mxPoint x="644" y="235" />
            </Array>
          </mxGeometry>
        </mxCell>
        <mxCell id="qfzlSMDLd1hETzHLxcoC-24" value="Error monitoring" style="edgeLabel;html=1;align=center;verticalAlign=middle;resizable=0;points=[];" parent="qfzlSMDLd1hETzHLxcoC-22" vertex="1" connectable="0">
          <mxGeometry x="0.2185" y="-4" relative="1" as="geometry">
            <mxPoint x="82" y="89" as="offset" />
          </mxGeometry>
        </mxCell>
        <mxCell id="qfzlSMDLd1hETzHLxcoC-5" value="&lt;p style=&quot;line-height: 110%;&quot;&gt;&lt;font style=&quot;font-size: 10px;&quot;&gt;weather-graph-generator [WGG]&lt;/font&gt;&lt;/p&gt;" style="whiteSpace=wrap;html=1;aspect=fixed;fillColor=#2087E2;fontColor=#ffffff;strokeColor=#006EAF;" parent="1" vertex="1">
          <mxGeometry x="599" y="350" width="90" height="90" as="geometry" />
        </mxCell>
        <mxCell id="qfzlSMDLd1hETzHLxcoC-6" value="" style="image;sketch=0;aspect=fixed;html=1;points=[];align=center;fontSize=12;image=img/lib/mscae/Docker.svg;" parent="1" vertex="1">
          <mxGeometry x="631.8" y="360" width="24.39" height="20" as="geometry" />
        </mxCell>
        <mxCell id="qfzlSMDLd1hETzHLxcoC-9" value="" style="html=1;verticalLabelPosition=bottom;align=center;labelBackgroundColor=#ffffff;verticalAlign=top;strokeWidth=2;strokeColor=#0080F0;shadow=0;dashed=0;shape=mxgraph.ios7.icons.mail;" parent="1" vertex="1">
          <mxGeometry x="403" y="589.67" width="30" height="16.5" as="geometry" />
        </mxCell>
        <mxCell id="qfzlSMDLd1hETzHLxcoC-16" style="edgeStyle=orthogonalEdgeStyle;rounded=0;orthogonalLoop=1;jettySize=auto;html=1;entryX=0.5;entryY=1;entryDx=0;entryDy=0;startArrow=classic;startFill=1;" parent="1" source="qfzlSMDLd1hETzHLxcoC-15" target="qfzlSMDLd1hETzHLxcoC-3" edge="1">
          <mxGeometry relative="1" as="geometry" />
        </mxCell>
        <mxCell id="qfzlSMDLd1hETzHLxcoC-18" value="Register/update info&lt;br&gt;" style="edgeLabel;html=1;align=center;verticalAlign=middle;resizable=0;points=[];" parent="qfzlSMDLd1hETzHLxcoC-16" vertex="1" connectable="0">
          <mxGeometry x="-0.0792" relative="1" as="geometry">
            <mxPoint y="25" as="offset" />
          </mxGeometry>
        </mxCell>
        <mxCell id="ocC6ctCUgFMbPHnCsPzQ-16" style="edgeStyle=orthogonalEdgeStyle;rounded=0;orthogonalLoop=1;jettySize=auto;html=1;startArrow=classic;startFill=1;entryX=0.5;entryY=1;entryDx=0;entryDy=0;" edge="1" parent="1" source="qfzlSMDLd1hETzHLxcoC-15" target="ocC6ctCUgFMbPHnCsPzQ-8">
          <mxGeometry relative="1" as="geometry" />
        </mxCell>
        <mxCell id="qfzlSMDLd1hETzHLxcoC-15" value="" style="image;points=[];aspect=fixed;html=1;align=center;shadow=0;dashed=0;image=img/lib/allied_telesis/computer_and_terminals/Personal_Computer.svg;" parent="1" vertex="1">
          <mxGeometry x="131.2" y="567.02" width="45.6" height="61.800000000000004" as="geometry" />
        </mxCell>
        <mxCell id="qfzlSMDLd1hETzHLxcoC-19" value="" style="verticalLabelPosition=bottom;html=1;verticalAlign=top;align=center;strokeColor=none;fillColor=#00BEF2;shape=mxgraph.azure.mysql_database;" parent="1" vertex="1">
          <mxGeometry x="399.25" y="210" width="37.5" height="50" as="geometry" />
        </mxCell>
        <mxCell id="qfzlSMDLd1hETzHLxcoC-29" value="" style="whiteSpace=wrap;html=1;aspect=fixed;fillColor=#eeeeee;strokeColor=#36393d;strokeWidth=2;" parent="1" vertex="1">
          <mxGeometry x="134" y="458" width="40" height="40" as="geometry" />
        </mxCell>
        <mxCell id="qfzlSMDLd1hETzHLxcoC-30" value="" style="shape=image;verticalLabelPosition=bottom;labelBackgroundColor=default;verticalAlign=top;aspect=fixed;imageAspect=0;image=data:image/png,iVBORw0KGgoAAAANSUhEUgAAAlgAAAJYCAYAAAC+ZpjcAAAABmJLR0QA/wD/AP+gvaeTAAAACXBIWXMAAA3XAAAN1wFCKJt4AAAAB3RJTUUH4AQBDhgQAp7VsAAAIABJREFUeNrs3Xl8HGdh//HP7C2t7sO6rJVv+ZSdw9jkIk3Skh9QCIEEXKBB5SoBF0JLCVfLfUNbQtOkl+gBoqRHEiAcSZOGnM4msSPLp3zKtu77WGnP+f2xsiLbOnZ07Ur6vl+vfdnanZmdfWZ25rvPPPM8ICIiIiIiIiIiIiIiIiIiIiIiIiIiIiIiIiIiIiIiIiIiIiIiIiIiIiIiIiIiIiIiIiIiIiIiIiIiIiIiIiIiIiIiIiIiIiIiIiIiIiIiIiIiIiIiIiIiIiIiIiIiIiIiIiIiIiIiIiIiIiIiIiIiIiIiIiIiIiIiIiIiIiIiIiIiIiIiIiIiIiIiIiIiIiIiIiIiIiIiIiIiIiIiIiIiIiIiIiIiIiIiIiIiIiIiIiIiIiIiIiIiIiIiIiIiIiIiIiIiIiIiIiIiIiIiIiIiIiIiIiIiIiIiIiIiIiIiIiIiIiIiIiIiIiIiIiIiIiIiIiIiIiIiIiIiIiIiIiIiIiIiIiIiIiIiIiIiIiIiIiIiIiIiIiIiIiIiIiIiIiIiIiIiIiIiIiIiIiIiIiIiIiIiIiIiIiIiIiIiIiIiIiIiIiIiIiIiIiIiIiIiIiIiIiIiIiIiIiIiIiIiIiIiIiIiIiIiIiIiIiIiIiIiIiIiIiIiIiIiIiIiIiIiIiIiIiIiIiIiIiIiIiIiIiIiIiIiIiIiIiIiIiIiIiIiIiIiIiIiIiIiIiIiIiKSOENFICKJ2r59uwMoAIqAZSOPNMA1Dw8HEAKGgeAc/9sPtALtfr8/qi0vIgpYImI1NGWOBKWxoeniv8//P2+JHTdiQMdI2GoFWsb5//l/OxTGREQBS2RxhyYb4APWTBCUxv7tUYnNWhhrTzCMtfv9flNFJqKAJSKpGaS8QCWwfuRx/v/rFJxS2hBwBDgMHBrzaPD7/UEVj4gClojMX5gqA1478qgaCVJlKfI9DgIRIDrm3+gEfycyzWR/x4B0IGOCh3cBH9uiwIkxwWs/8Izf7z+pb4CIApaIzDxMOYHLxgSqq4DyeXjrAHAO6AS6gO4x/3ZP9Fwq1bps377dmCKAWXnkEL+MmuxjZTPwzJjHXr/fH9E3RUQBS0SmDgYbgNuBm4Armf1LfMPAWeDMmH/PjP3b7/d3aUtcsl1cwHLibdp8I0H34v9nzvNqBYAXgKeBh/1+v19bSkQBS0RePXmvBd4xEqy2zNJiG4EDQP3I4yBw2u/3t6vE52w75kwQvM7/fznxbibmSgNQC/zY7/cf0RYRUcASWYon4xLgjpFgtW0Gi2odE6LOB6oDfr+/T6WcctvcBpSME74qR/aBZbP4di+PhK0f+f3+ZpW+iAKWyGI/yXqAPwXuJt6+x6rTwOMjjyf8fv85leqi2TdKR4LWNuJt77YBq2d4jB4CvgJ8x+/3h1TKIgpYIovxBHo78C2gwsJsLcAT50OV3+8/oZJcUvtMJrB1JGxdDdzA9Gq6jgAf8fv9/6tSFVHAElksJ0kf8CPgmgRnqQf+Gfi13+8/qBKUMfuSQbyd3o0jj+uw1rj+34H3qTZLRAFLZKGfECuBR5m6e4VB4CfAP/r9/udVcpLg/uUAXkP8rtNbiF9anMp/Ae/QkD4iClgiC/Xkdxnwa6BwksleBP4BqPX7/f0qNZnhPncl8AHgD5i8jd8PgT/SUD0iClgiC+1Edw3wcyB7gkmeAXb7/f69Ki2Zg/0vA9gFfJB4f2rj+b7f7/+YSktEAUtkoZzcbiZ+GSZ9nJeHgc8Cf+33+2MqLZmn/fGfiXcRcbEv+f3+v1QpiShgiaT6yew24g3aneO8/DzwXnUCKUnYLwuAfwTeMs7Lf+r3+7+nUhJRwBJJ1ZPY+4C/B2wXvRQBPke8LyI1LJZk7qMfAr4PuC56qdrv9/9QJSSigCWSaieutwD/M873KQa8x+/3/1ilJCkUsu676OlhYLvf769XCYkoYImkyglrK/FG696LXjKBD/j9/n9SKUmK7bM1wHsverp+JGQNq4REZodNRSAy7RNVEfCzccIVwJ8oXEmK+jBw8R2sm4HvqGhEZo9qsESmF648xIex2TnOy5/y+/3fUilJCu+/K4CXgLyLXnqz3+//mUpIZOZUgyUyPf80Qbj6ksKVpDq/338KeBfxdoJj/fP27dtLVEIiM2dXEYhY/vX/OWC8Thq/4/f7P6MSkoWgqanpWFlZmQn8zpin04FtZWVl/9bU1KRCEpkB1WCJWAtXbwO+NM5L9/r9/k+qhGSB+Srw7EXP3Qj8qYpGRAFLZL7C1UqghkvbLv4Y+KhKSBaakREF/ggIXvTSF7Zv316uEhKZPl0iFEksXNmAh4C1F730EnCL3++PqJRkIWpqauosKyuLADeNedoFLG9qanpAJSQyParBEknMnwHXXvRcO/BW9R0ki8B3gJcveu627du336iiEZkeddMgMoXt27dXAX4uHGIkAtzk9/ufVAnJItnPt47s52PH0jwEbPX7/WGVkIgClshsnnRcwIvAlote2u33+3+gEpo9Ox543gYUAqVAwUiIDQOhi/4d77nQntt2KgTMfH//MvGxM8f6pN/vVyekIgpYIrN6wvkWcPHdgTV+v/+PEpl/165dBpA7EhyWjTwKgF7gGHCstra2ZwmEp5yR4FQKlE3w/xLAMYO3MYEu4pdux3u0XfR3x0IOZbt27XKPlN/ykUf5SBl2A2dGHo3A2dra2kELPyj2AhvHPN0PVPr9/mYdEUQUsERmI1xdR7y39rFtFV8ArvP7/cEJTnpe4o2F3wj87siJb6rQ0Hk+bI2833/U1tYOLMAQlTVyYt405t/VI+EpPUVXuxM4DBwYeRwEDuy5bWdKholdu3ZdCbwHuHUkXCV6DO8CngP+C3i4tra2c5L9/ibg0Yue/pHf73+3jgoiClgiMw1X7pET7uoxT7cCV/j9/nMXnfRWjQSqNwGvA9wzfPt+4CfAP9TW1vpTMEhljxOkNo6EycWi+3zYSnbw2rVr1wriva6/B6ichUVGgSdHwtaDtbW1TePs/78Ebh7zlAlU+f3+eh0dRBSwRGYSsD5DvBPGsSeY3/P7/Y+NOfFVAV8AbpnD79IrwD8A911bW2veeenQJnMdpnKI9/R9LfEBgTcSrzlZqrqB/wN+Djyy57adLbO58HvjtaWvAd4AZNbdeONrepcte+0c7l8m8Avg7tra2gNj9v8twD4urL39qd/vf4eODiIKWCLTDVdlwBHAO+bpe/x+/5+MBKuNI8Hq7fP1HbrikUdC6b29xpiahx/eCbPePcSOB573AFcTv8x5I3AF6s5lsnDy0khA+Tnw0p7bdpozCFZ/APwlsOb88y++6U0MZWbOx2eJEu9E9y/P12ht3779n4HqMdPEgM1+v/+QNr2IApbIdALWj4FdY546Aly2Zs0a38gJ8B3zHTq2/frXZHZ1jX2qEfgs8KM74yf66QYq+0iIunEkVF0FeLQXTEsL8MhI4Hp0z207+xMMV78PfAtYf/FrdTfeSO+yZfP5GQLA94BvHTt2LAtoANLGvP5jv9//Lm1qEQUsEavh6lrgt2OeihiGcc3q1auvBb7OzO5ym96XNBbjqgcewBYb9+rgS8A774w3kE80VFUSb4B/I3A9kKMtP+tCI/vRQ8C/77ltZ884wcoOfJNJxv07fsUVNK1bl4z1bwc+fOzYscuBsQOYx4ANfr//qDaxiAKWSKLhyj4SWLaef85ms3171apV64nXMiRFZmcn237zm8km6Qbecic8NUmo8gLvBD4EbNfWnlcB4uNV3rvntp17xwSsTwDfnWzGDp+PQ1dfnbQVj0Qi3zt16tR7iHczct6/+f3+P9RmFVHAEkk0YN0J/O2YcHVk5cqVaYZh+JK5Xiv37mX54cNTTXYE2HRnvC3N2GC1dSRUvQvI0lZOuueBe2/45icfKX/xqeNA9mQTx+x2nnvb24jZkzdsbFdX18Gurq6x/WJFifeLdVybU2RiDhWBCGzfvt0LfHH0l4dhhJcvX77aMIykfkcM02TZ6dOJTFpJvJuIh3Y88Hw68XZiHwJ2aOumlJ3AzgNvfldL+YtPZU81sS0aJf/cOdp9ycv4ubm5G/v7+8PhcPj8EDp2YDfwcW1OkUm+vyoCEQD+mHgP6wDk5eU5XS5X0n+A5LS04BoaSmjanvJV1+144Pl7gCbgnxWuUldaT2dxotMWNDYmdV0NwyA/P9950dN3bN++PV1bUkQBS2RC27dv9wB/dv5vl8tFTk5qtPtedvJkwtOe2X7dJ4CPMsVlJ0m+wfyihKfNa2rCHokkdX0zMjLweC64uTSHeJs+EVHAEpnQB4DRGoXCwkIMI/nNE+3hMAVnzyY8fXf5Km3JBaLbtxoS3Mds0Sh5TU1JX+eCgoKLn/qwtqSIApbIJe4Fxz0225+89vTpr21uaRn9pZ6WlpYS61dw5gy2aDTh6dvXbdZGXSAinjRaN2xLfF9I8mVCAI/HQ0ZGxtinrty+fbvuSBWZgBq5y1INVzcCP7DHYuvXt7UB8Tu2AitWpMw6Ljt1KuFpO9ZsZGBZqTbsAnLi2tdTdHBvQtOev0wYdST3kJ2fn8/g4CD2aJT/d/gw2cPDT1XHx2n82GTdhIgsRarBkqUYrm4BfsVFPWdv7OjA4UiN3xyegQFyWlsTnr7hht/Xhl1gTr32RmIOZ2IH6miUwsTuJp1TTqeTzMxMrjxzhoLBQZzRqBu4DHjyXrj/CzqniIxSDZYstXD1RuA/xtv3naaZMuuZQL9XoyJuDyev+T1t3FmU63ZSmOYkz+Mi3+OkwOMky+VgKBJlIHz+EaE3FKWhZ5CBcNTye4S8mZy9/Cp8LzyZ0PSlR4/Ssnp18ssmN5fCwcGLnzaAD44M6vMh7UEiCliytMLVFcQHSnaN93qy79QaDXrBIEUnTiQ8/enX3kg4zasNPAPF6W6uWJbFlYVZXLEsi2VproTnjZlwoi/AKx39vNLRz76OftqGQgnNe+LamxMOWN6eHrLb2uZ7bMJL90+nk7SJ2wZ+8F7ouDM+TqaIApbIEghXLuCHgHuiaYayUqOj89KjRy01btflwelZlubi1tVF/F55PqVe97SXYzNgTXY6a7LTedvqIkzghdZefnqshWebeyYdifvsFdcQSs/AFRhIeN9IdsACsE9+B+Rn/hZe+gj8t/YyUcASWfw+D0x6m11fYWHyT1yRCKVHEx9Ht6/EZ+luNLthUOx143XYSHfYSXPYSXfYSXfYCESiNAdCtASCdA2HF+2OUJWfyTvWFnF9Wd5UQWFaDGBHUTY7irI5OzDMA8db+fmpdgbHuYwYdTo5vfMG1j7+cELLzj97FncgQDA9uX18BvLz8UzShYgB3/8nePR90K9DjyhgiSxS98Yb4d491XS9l/bzM++KTpzAEQolPP1UtVfF6W425WWwOc/LpvwMKnO8uO1Tt0MORWO0BEKcHRzmhdZenmru4dzA8ILeDy4rzOLjW31U5szf5dTlGR7u2lrBHZWlfO2lkzzd3H3JNCeuuznhgGWYJiUNDZzaujWpZdmXn0/e5H20lQXhS8BdOgLJUqXBnmUpBKyHgUmTSNThYM8ttxB1OpP3ZTRNtv/sZ7gvbUA8LtNu54H7HmYoJ/+C50u8bt68opA3VBRSlO6atfU73T/EU009PNPczSud/cTMhbH9s1wOdlf5eNOKwqQf8H52qp2/2neaQCQ6ZrvHePuHbyG9sy2hZYTdbl645RZituTdsJfT2sqWxx+farIocPmdUKejkCxFdhWBLPJwtRa4Z6ofE81r19K1fHlS13XZ6dOWGrefveIaGm56CwAOm8H1ZXl8fGsFd21dweWFWWQ4Z/frneN2UlWQyZtWFHJ9WR7tw2Ea+1O7Vuv1vny+e3UlWwsyU+LXZGWOl9f78jnSE6AlEBxJWAZpPV0sO5JYDrFHowxnZDCYm5u0zxH0eik+fnyqG0NsQOYv4H90JJKlSH2WyGL38anClWkYnKusTPqKLj90yNL0DTe+BQP4/RWFPPyGy/jazrXsKMrGNg9JYnV2Ot++ah3/eMMmrijMSrmN7rQZfGXHGr74mjXkup0ptW7F6W7uuXY9V5e8Ot7liWtfb2kZVtrpzQXTMGhZldDQTLd9HwoRUcASWTzujQ96/N6ppusoLyfoTW43B7nNzXh7ehKefii3AMfrbuDe6zfy2StXkedJTojYnJfB375uA9+/dj3Fs3g5cibSHXa+d816birPT9l902Ez+NrOtVxWkAlAd8Wa+PiECcro7iaroyOpn6FlzRrMqW8ScDvhfToayVKkNliymAPWLUxxeSJmt7P35psJJLmLhi2PPz5uz+2ZFRV4ly/HW1qKt6wMZ2b8hGy7cgeX/f4b5uQuuOkKRKL8urGT9kn6gDLn+KDjcdh4g6+AgjTXgthHQ9EYPz/dQcdQiMKGAyz7v18ycOYMA2fP0nP4MKG+vgnnba+o4PBVVyV1/Tc99dRUjd0BTt4JGolclhzdRSiL2XVTTXB6y5akh6usjo5LwlXWqlWsvu02ssa5DGPY7ay96XdSKlxBvObozSsLebm9j3MDwXl//zSHjatLcme97dlcctltvKmigN82dxPYtIXsrnPkbtwIQDQYpPGRRzj72GPExmnrVNDYiKeqiuELB2CeVye2biWnqQlbLDbZZCv/Fso/Amd0SJKlRI3cZdF6I3wNKJno9f78fBp27IAkB5XK557DM3LnoCsri8r3vpfVt92Ge4JGzLnr15O9Zk1KlrnNMCjzeogBnfPYl5bNgKtKcsh2LbzfjHabQY7LyanBEPZQkLTeeFcONoeD3A0bWPaa19Db0HBJbZZBvMF7V1lZ0tY94nZjA7LbprwD8ulH4JCOSrKUqA2WLGbrJnoh6nBwdOfORNqQzKnclpbRk5MzM5Otn/gEhZdfPvEMhkF+kvtASsTGXC+VufPXrm1jXkbKNWa3Is/jxJfpoad8FRdfRE0rLKTqrrvwjhOkik6exB0IJHXdz2zcmMgoCNt1OBIFLJHFY9wOpWJ2Owevuy7plwYBKl55JR6uvF623nUX6SUlk06ftWoVrqysBVH463O989IWqtjrZk12+oLfWTflZYA3g4HCoktem2j/MGIxy3efzraYzcaRHTuI2Se+IGJMUpMsooAlsvAMjHcyOHjttfQUFSV95fLPniWzqwubw0HVxz8+bg3FxQq2bVswhW8AVxZm4bLP3WEm3WHnisLMRbGzuu02NuRl0DPB3YTOzEw2f+Qj2C7qDLf4+HFcw8ntj6y/oIBDV101WY1wtw5HooAlsnjcM/aPwZwc9t9wA90lKfBj2jRZURfvWLL85pvJ8PmmnCWjvBxPfv6C2gAeh43L57CfrE35Xpy2xXMYW5mVhqOohGDG+GWWVljIije/+cKDeDRK2aHkN2/qWr6cY9vHvxJoQgciClgii8b3z1VWHjhXWUnD9u3svfnmlBjQGeK9tqf39pK2bBm+m29OaJ6Cyy5bkBuhON3F6jm4hJfhclDq9SyqHdaAeFusSfrEWn7TTWRWVFzwXMmxYziDwaSvf8vq1ey/4YYLL78bRpMD7tfhSJYa3UUoi1bWrl227pKSL3eXlKQN5OUl/W7B0fNNLMbGp5/GEQqx8QMfID2By5XpxcUUXnHFgt0WuR4Hx/uGMGdx/MLN+RnkuBZfTzMeh53DETvZZ09hi0Uv3X8Mg8yKCpqfeurVX8qxGDGbjd4UuPQ9nJFBy5o1DGVn01VSQk9x8Sc+09z8tI5IstSoBksWs61AbqqtVPHx43gGBsjbtIncDRsSmmchtb0aj8tmY7nXPWvLS3faKc/wLMqdNt1hIyfdQ2/ZigmnyfD5yF2//oLnSo8exREOp8RnMG022ioqaF29mqZ160p1KBIFLJHF5YaU+8JFo/gOHACg5HWvS2geT15eQm20Ut3KrNm7TLguO31RD0NR5nXTU75y0lrXsptuuuBvRzic9DEKJ3AVIgpYIotKVaqtUOnRo7iGhvAUFFCwbRuG3X7hw2a75JG/QNteXSzX7SDXPTuX9EozEq8NC4fDNDU1sX//fk6ePMng4OACCFgeIu40+oqXTzhN/ubNl1xeLj1yBPs4vb4n2c5du3bpXCNLjobKkcVsWSqtjD0cHu2zaNOHPjR5h6Lnv6BpaWSvXr1oNsjK7HS62/pmtIwslwNXAncOtre38/TTT9PR0YF5UeMvr9fL1q1b2bx5c0qWk8dhI8ftoGtlJVktZxm38ZphUHr99Rz7j/8YfcoZDFLS0MDZBC89z5NsoABoQ2QJ0a8KWcwKU2lllh8+HL/TyzAovvrqhOZJpG8s0zSJpF6txfhl4HVjt83s4l6+Z+oe2/fv389DDz1Ee3v7JeEKYHBwkGeffZbf/OY3hEKhlCyrDKeDUHrGpLVYBZdffsllxLLDh7FFo6n2cbIQWWJUgyWLWcrUYLmGhig7fBiAzIoK0hLoLsKZmYkrO3vc1wKBAJ2dnQwODhIIBDBNE7fbjdfrJSsri/wU7S/LZhgUpbloDYSITvOWwoIpAtazzz5LfX19Qss6deoUDz74ILfeeisOR2odDtMd8d+/k9ViuXNyyKyooP/UqVf3teFhSo8eTbVaLAUsWXJUgyUKWPNg5b59o21jSq6+OqEuIzImqL1qaWnh8OHDtLW1MTg4OFpDEwwG6erq4tSpUzQ0NBBOkTvKLlae6WFtTjors9IoSneR5XLgsFCrle+ZePid9vZ2DozcRJConp4e9u7dm3LllO6M96IzZS3WOG30yg8exJFaNXOZOhyJApbIIrBr164swJ0K65LZ2cmyMTUMha95zZTzuHNzcXgvHCw5Go1y9OhRzp07N+5lr7H6+vo4ePAgAwMDKbdt3CPtp9x2G7luJ6UjYwmuzk6nxOsm2z1xGyuPw4bHMf5rpmny9NNPT1k243nllVfo7k6t0VzSHa92U9i1snLCUD5eFx6OUIhyi0FzjqkGSxSwRBaJlGl/tfqll0b/b9hs5G3cOOn0hmGM2/aqqamJ/v7+hN83Eolw8uRJYrFYSm2YicYmdNoMsl0OStLdrMpOY21OOmVeN7luJ56ReSYbFqexsZH29vZprVMsFku5WqyxAStei1U+/nTFxTgzMi55vvToUdyBgAKWiAKWyOLbt5edOkVmZ+fo35krV+LOyZl0Hk9BAXb3hZVvgUBgWuEhFArR3NycUhvGneDgz3bDINPloCjdxYqsNNblpFM6SWel0w1X53V0pNZweWMDFkDnqolrsdKLiy/9AsRio+NdpgBdIhSdhEQWiZZkr4A9EmHlvn0XPJe/deuk7a8Mm430cQajbmxsnNalL4DW1laCKTBO3XlOm4FtGsMW2QzjktAx1tDQEC6Xa9rr1dvbSzSF7r6zGVxQTuE0L30lE9RiTTCA+bJTp/D29KTCxwkissToLkJZlGpra/t37do1BKQlax3KDx7ENTR0wXNTXR5MKyrC5rzwLrloNDqjzjFN06Svr4/CwtTptcJhMwhFrQfGydrC5+TksGXLFkzTZHh4mFAoRDQaJRqNEovFRv9/PkRlZmbS39+PaZqj4bWvr4/c3NQYXSkci42GrPPZumf1erLbml69o3DkX29p6UQbn5X79lF//fXJ/jindVQSBSyRxaMFWJmMN/YMDFA20qnoWNlr1kw4j+FwjDvwc2AW2tEMXRT0ki02zdo4Y7Lav5HXDMMgLS2NtLSJs/XatWvJyspieHiYI0eOjPYj5vF4UqiMYE32xcMLpZNxzetw919YK+XJz7+gw9GxcpubyWltpSe5A0ErYMmSo0uEstgDVlKs3LcP2ziNyzPKyyecx1lcgmG3z0k4CqROY+fR8DCtgDXJa5MFqrHO9xV2PlCdr7EyDCOlAtZE/YQF8gowL2rs75mi37OLL1XPMxM4o8ORKGCJLB6tyXjTnNZWCs5cej5xer24ssa/mSriToPcvHFfs9KfldPppKKigsrKSjIzM6e1jPk5404vYQ1FJm4jlZ6e2GDSF3coev5vj8czaQ3ZfItMkEJjdgfDORfuKw6vF2fmxO3IM7q6KGxsTNZHaa6trQ0hooAlsmjM++1zhmmy6uWXx33Ns2zZBA3cDQYLi4hOcEK1UqtSVFREQUEBGRkZrFixYjQwpFLNjMn4Q+slGjqC0diMAlZfX99o4DRNk66uLkvzJztgAQxl5xO7KChmrVgx6fJWvPIKRnK67NDlQVHAEllknpvvNyw+fnzCu7YmGh5nOCuHiMtDZILUkeilL2D00heAy+XCPdLdQyqFh+m2vzpvMDx+LVZ2djYZ4/QHdUnAM00OHDhAY2Mj9fX1BINBbDYbJRPciZcsw9GJw5BpGATyLtyfMioqJl2eZ2CAkmPHkvFRTulQJApYIovLr4B5+8nuDAapmKTfofHayZh2O0N5BZPWWKSlpSV86aq3t3f0/6FQiOHhYcshba6FYzMMWJNcJvT5fAmVVTQapb29fXSg5+Li4tEwmgpMYCA8eZcRwYxsIu5XayYna983Wj719djn/3LxYzoUiQKWyCJSW1vbDrw4X++36uWXcU7S35Qn79I2VoG8ZcRs8YbtEzVqNgwj4cGbW1tbaWtro7+/nxMnTsSDn9NJ9gSDRifDYHhmfU0FIrEJW3ClpaVRPE6nm5NJT0+3PM9cGwhFEqrpC+QvmzTAj/cjYJ47H40CD+loJApYIovPI/PxJrnNzReMNzge+0XtoCKeNIYzXw0+k9XslJWVXdI4ezyRSIQzZ85w9OjR0b6zysvLsdvtqROwIjMLWKZpEpgkpJWWlrJixQpstqkPb/n5+VRWVqZU43aA3gRDaNiTTsgbb9xuS7CT1ZKGhvnsfPTJ2traTh2GRAFLRAHLMnskwtoXXpg6GFzQS7jBYMGF/RKFojFCE7S7cTgcLF++3PK6ZWVlpUzHmRC/9DUUmflV255QZMrgtGEKYOecAAAgAElEQVTDBrKyssYNWh6PhxUrViQcxOZTzDQZDEcSnj6QVwiGgSPBgGWYJmv8/vn6OP+tQ5AsVepoVBa7F4E2YNlcvcGKV15JaFDdUF/f6P+Hs+MN2y+puQhFKExzTRgaIpEI586dS2jYnJycHCqmaPg83wKR6LSH/BmrPxRhyO0kzTFxOPJ4PKxduxbTNBkaGmJwcBC3243X602pGr3x9gErRRR1uhjKzsNmoQ1ZVkcHRSdO0Lpq1Vzn6f/RIUiWKtVgyaJWW1trAj+cq+VntbdTevRoQtOeD1gxp+uSO8DGnlwnU1RUxPr16yftdsFms1FeXs7q1asTuqw4n/pDszfWX9tQYl0rGYZBeno6hYWFZGVlpXS4ipomHcPWG6EP5RYQzc6xNM/KfftwhOa0e6rna2trm3QUkqVKNViyFHwT+GMga1Z/ncRiCV0avDhgDRQWYxrj/7aJxEwGI1G8kwxqnJ6ezsaNGxkYGGBwcJDBwUEikQherxev10tGRgbOi8YzTAXhmElvaPbuYBuKRBkIR8lw2hfNjtoaCE3YH9pkTMOgZdPlluY53+D92JVXztXH+a4OPbKU2VUEstjV19cPbdmyxQX8zmwut2L/fgrOnrU0T94f/CE92fkER9pbjfeImZDrmTwgGYaB2+0mIyODvLw8CgoKyMrKIi0tLWVraNqHwgxHZrfXjGA0Rq7buSj204FwlPah6dconcVF/b795DYeT3iezO5uukpLCc1+Nx7P1NbWflJHH1nKdIlQloq/Ajpma2Henh6WjzOY82SaYzb2enJpGgzSNBjk3ASPA90DBCLRRVX4s117NTZgdQXDC758Yia0BoIzXIaJ/713EcywUFFrmqx58cXpd60/wVKBT+iQIwpYIktAbW1tP/D12ViWYZqs27PH0rAjpmHjmTs/zwAJdIIZM3mlo39Rlf/B7gHO9A/TORweaeie2HwR06QnFOHswDAtgRD9ocglPd63D4XoDy/cQGoCTYPDM+6ANYbJcFYOL97xMUvzZXZ2Unz8+Gx+pJ/U1ta+oKOOLHVqgyVLyb3AxwDfTBay/NAhMkbGr0s4YLzpnbStr0q4i4LWQIhzg0HKvO4FX+jNgSAne4eAV3snNwC33Uaaw06aI/6v0xYPn6FYjH3t/fyysYOTfUPjLvPKZVncsDyP9TlebBg0DQbxZXgmvaswVcPVuYHhKXttT2hZI/ns2PVvZPWTj1Bc/1LC86585RU6y8sJz7w3+2Hg0zrUiKgNliwh9fX1kS1btjwJvBtwTWcZ2W1trHv+eax0S9lbVsGTn/gapt3O6ux0CjyJvXVXMExFZhr2FOsE04r+UITnWnoZr3ImYpoMR2P0h6N0B8P0hCIEIlH+6eA5fnG6g57gxHdUNg0Geaa5B4dhozLXGw9vkSiZTjt228IoLxM4OzA8457tzzvZP8RL7fEbKdorq1j32EPYYokt2xaNkt7XR/vMu/X4Um1t7cM62ogoYMnSC1ktW7ZsqQfeMVKRkjDX8DBbnngCh4Wx3Eybjf+9+7sMFsYHEl6RmUZxemK1BJGYSSRmJjx9qgnHTJ5p7pl00OKxYib8trmHF9p6iQ4F6D/4Mh1P/pLmh/+d9id+QedTv6bzmUfpevZR+g68TCw0zAnTzU5fEZlOB6YZryHLdDlSPpTOdrgCeKGtl6M98f7YgpnZmIZBSX3iI0Wl9fcTcbvpT3BYpnH8S21trdpeiYzQJUJZcmprax/etWvXnwPfSXQewzRZ/8wzuIaGrAW6N7+bjrWbRv+22nj9ZN8QmS4Hq7LSFlQZm8CLbb2WLn01DwT4z3+pofnX/0Xg9DEwJw9mbY89CIbB21ZV8p533s77d38cXC5O9Q1R7HWTmaLdNwxFYzQPBifstX+6zvQPX/D3gbe8m1XPPEqOhbsKV+7dS29hIYPWe///JfB+HV1EXqUaLFmS6uvrn9uyZUspcEUi06+oq5tyrMGL9ZSv4qmPfxlzTLcJ2S4na3PSLS2nNRAizWEnx70wfg9FYiZ7WntpCyTe5cDTv/wZX//w+2h94ueEezpHIlpihrs72PPUkzz684fZcvkVFBaXjDSGB6/TTqrUZZnEG+S3BoLT6utqKj9uaCE4JrSZNhtdK9ex5olfYCRYnoZpktPWRuuqVZiJDyH0AvCm2traoI4sIgpYImzZsuVXwAZg02TT5Z07F7+V3crJ1G7nfz/9vUvGGwybJlcUWu/vtHUoiNdpJ9uV2iErEInxTHMPXQn2Rh4cGuILd9zOQ//wt4T7ZzYAcVdHB//1o3+jJzDM5p3XEBjpiNTrtONIcrusoUiMM7PUmH38co/y3yfaLn0+v4i03i4KjifepYgzGMQ1PExnYmNfNgA31tbW9uqIIqKAJQJAfX19rL6+/oEtW7a0AjcCl/RY6RkYYPOTT2KLWjsx7r/1vZy49uZxT7SXF2bhnMYAwy2BIBlOO1kpGrK6gxGebelOuF2RaZr81Sfu5OX/e2zW1sE0Ter2PIeRnknxxq20D4U43hdgcKTHd7d9fu8y7BwOc6QnwNHuQXqCYfpD0fEf4cQeAxM8f7hncLSB+yXhfMM2Vj/5S5xDgYTXO6O7m6GsLAI5kw6/8xvgrbW1ta06mohcylARiMCuXbs2AT8BNp9/zjU0RNXjj5PW12dpWe3rNvOrL91HzD5+ELp1dRHrstOnva7lmR6q8jNHuzVItphp0tAb4GhPwNKlr//4/nf4yd98e25+OTqc3P/kC+QXl17wfGGai7XZ6SxLd81ZeURiJo0Dw5zoCzAQmp/+uX7b1M2zLRPXAJbtfY6bvnaXpWVGnU72/e7vEsjOvvilAeCTtbW19+nIITLJcUhFIAL19fXtW7ZsqQHygO3pvb1seeIJ0vqtdfgZzMjiN39xD6FJetPOcjlYOYNG632hCGcGhsl0OpI+Dl9zIMjzrb00DwYtdQZ+YM+z3POpj83ZepmxGO60dLa89poLng9EopwZGKZpMMhQNIZJvD8u2wzvOuwPRWgaDHKsd4i6jv6RRuzmvG2HJ5u6J+1stb+kHE9/LwXHDia8TFssRsGZM3QtX07k1f6xfgvcXFtb+6iOGiKT012EIiNqa2uHgY98ctu2h1fu2/dzy98Pw+Dpj/4FgwXFk052qm8Iyma2rsORGM+19FCR6aEy10u6Y36DVm8owoGuAUsN2cd69Kc/wjTnNoDU73l20pDaF4pwNL7ZyHE7KfA4yXE7cdsNnDYbLpsNl90Y7fIhFIsRjMQIxmIEozGGIzG6ghE6hkMEZ3mMRUuhPhajJYHt8OJ7Pkpx/YvknD2Z8LJdw8NUPfYYjZs397WuWvWVmN3+3dra2piOFiIJnBJUBCKXuhc+B3zZ0gn9Le/hpXd/JKFpP7BxOfme2Rmk2DCgJN3Nqux0CjxzN/BxJGZybjDIqf4huodnNv7fey6vZKC3Z063YdnqtfzgN0/PeDk2w8DExDRTc1891hvgP48n1gwq79RR3vjp92GLWN5+t94J/6Mjg4iFY4eKQORSd8JXgD8CErr1vHXjZby8648TXv7B7oFZW1fTjPds/nRTN0+c6+Jk39Cs3a0WiZm0DYXY19HPrxo72NveN+NwFY2E5zxcAZStXDUry4mZqRuuAE70Jd43W9eKdZb2U+JD3/yRwpWIdbpEKDJxyKq5F54AvoZh7JroLNtfvJwn/uwbF/R3NWXA6hrk2pLcWV/n3mCEV4LxdmMuu40Cj5M8j5M8txO33YbLbhu3cXzUNAlFTUKxGL2hCF3DYbqGw/SHI7MeLjr7B+PVbnOcWl5/y1sX/T4aMU0OdlkL6wfe/C4KGw5Q8fzjU036KPDJO+EVHQ1EFLBEZjtkndrxwPPvLjh+6LYt//0vjrK9z2IPx9u7xOwOjr/uDey7/f0EM7MtLbc7GKY5EKRkDofBCUVjNA0GaRq8sBLOZjAStGxEY/FQFYnNfRVNhj1GhWuYyoFjXLFxJS8dODFn73X3B9/C59/2GpqNAEeGPQxGF2dl/aHuwYSHIhrr6Y9+nognjVW//SVG7ML5WzZdbi47sv/6j0bCv9URQGT61AZLZAo7Hnh+OXAGwDE8RP6Jw4TTvAwWFFkOVmOtz/Vyy8pli7780m0x1qcNU+oME+1tJDbQxCNP7uW2P/nrOWnofsdbr+Pvvvh+DJcXR+FmTAwaQy4aht0MxxZX0PrXI02XBGgrspobKa5/ifSudoZy8jl3+dUMFBYDVOy5bWejvv0i06caLJGprTz/n4gnjdaNl83KQg93D9JSHKI4zbVoCy7PEeFKbwCXYWIO9xAbaALgDa+7jL/57B187q9/St9AYFbeq7wkn7ve+wbef/sNAJihQWKDbdi8RVS4QpQ7QxwcTuNUcHGUd+tQaEbhCqCvxEdfiW+8l1YBClgiM6BG7iJTWzFXC/7tua5FW2jFzjCvzRjEZZgQDRHpPnbB6++//QYOPvIdPvKu1+NyTv+33roVJdz/5Q9Q/4vv8Me7fhfHmLZw0b4zEIvED3YGbE4b4kpvAKdhLvjyfWJu951V+tqLzIxqsESSGLBO9A1xZmCY8gzPoiqwDHuMbelDI20QTCJdDaNBZ6y8nAy+/al38dH3vJ5fP/UK+w6dYt+h0xw8dpZQ+NLpHXY7m9Yu54rNq7hy5LFxzXJsE/VqH4sQ7TmJPW8N51tEFDvDZGVGeW7Ay9ACvWR4uHsw3p/a3Fmpr72IApYsEHWN1blVvppuBawLPXK6gzvWl+KxL44KZcOAK9MHcYzUEsX6zmCGJu8Rv6K0gA++48bRv0PhCGeaO7HZDJwOB06HHafDjjfdg9viWIyxoU7otmHPXTUastJtMV6bMbggQ1YoFuOxs51z/TaqwRJRwJIUD1WbgE8BbwTy6hqrjwH3A9+t8tUslOs02XO58O5gmIdOtnH7muJFcddJmTNEhj1+Z1psoIlof5PlZbicDlb7imZtnWKBdoiFsWWUYLizLwhZTw1kEI4tnJJ/4lz3rPVztlQCVl1j9ZXAh4HXAieAnwE1Vb6aECJzRG2wZC4Pan8G1AHvIT7GH8Aa4NvA/9Q1Vi+UgD/n1+9O9g3x5CJpj7XGE294HetrJNqbOu2kY8M9RDoOEW5+kUjbfqKdR3D3HSdvqJEDXQM0DgzTE4oQTeFeRZ9r6WFve998vNWiuURY11h9N/Ac8Y6DN4z82LsPOFrXWH21jtQyV9RNg8zVQe1twH9OMdkXqnw1X0z1z7LjgecfBW6aj/e6piSHq0tyF+wX02uLcr3rDNGBFsxg74JYZxP4WGM5+4deHYA73WEny+Ug02Uny+kg0+Ugy2Un0+mIP++0z3iAaKv2dvTx68bO+XzLjD237Rxc4MehdwH/PskkAeB3qnw1L+ioLbNNlwhlriQyKN/n6hqr/7PKV3MgxT+Le77e6OnmHs4OBnnLikLS5nkA57EipslwZGRQ42iU4eirAxwPR2Pj/B0lGI1xTXoP1yxrWlA7qgHcltt9QcAKRKIEIlFaJulBwuuMh6/zQSxzzP+znA4yXHZssxSV93b0z3e4AigHDi/gcFVBvKZqMunAJ4B36pAtCliyUFQmuP99Gni3AtarTvUN8c+Hm7i+NJe1Oem4bNav5JswEo5iDEfGBKQxoWiy16d7mcyXPbQgd9aqkTserXzqwXCUwXCU5kBwwuDmdcZrws7XemWO/j9eI5bhdEwawXpCEX7d2MHJvqSUa/4CPwZ9EchIYLqbEFHAkgUk0d4c31nXWP35Kl/NSQWsV/WHIvzsVDsOm8Ga7HQqc7w4bcaENUfng1FwTO1SMoRiC/PiZrY9SpkrxNnQ7HVCagID4SgD4eiEHYIaBmQ4HWSNE766gxGeae4mHEtam7CchXrwqWus3ki87WciYogoYMkC8iJwcwLT2YFPAnem8GdJWidVkZjJ4e5BDncvjKYwfTH7gt1he6Pzv+6mGQ/T/aEIzLBX9jmQy8L1VRK/ieuMDtcyF3QXocyVn1uYtrqusboohT+LW5szMceHF2ZRdUQc9Eft2oCLIGDVNVbvBG6xMMtPtalFAUsWkh8DAwlO6wHuUsBa+F4OpNMRWXgV4/sC6dp4iyRgAV+3MG2Qye8yFFHAktQy0mP7fRZm+XBdY3WqtvlQwEqQCfyyN2tWlxmzuTBcGRjubPpJA2N2D1v9UTv3tRdo4y2CgFXXWP17wPUWZrm3yldzTpta5oLaYMlc+h6wO8GAkkW8HdbXFLAWtn/tzGdr+hBVadO78800HNizyrBnFGP3Fo32vA7wrwfO8sGNZZjhQWJDnUT7zhDrP4cZnX6H3D9oK6QzokPhQg9YdY3VBtZqr/pT9Hgji4RqsGTOVPlqmoF/sTDLx+saq9NS8KN4tDUTFzEN/uJcKc1hp4UjkRN7zkpcFdeTvul23L7rcOStuyBcAdhtBhgGhisDe3YFrvJr8Gy4HVfF9dgzSy2v60+7cvlNX5Y22iIIWMBtwOUWpv9ula+mQ5tZ5op+tslc+xbwPuJ3C06lcGTaH6TKyu944Hl7gusuY/RG7dx1Zjnvyuvi97L7cBuXdjUQsafhzizBnl2BPbMEjKmL2TFe7+mGgT2rHHtWOWZogEhXA9HuY5iR4QmXEzQNvttSxKMKV4siYI0Mu/VlC7O0E69hF1HAkoWpyldzvK6x+gES7yn5k3WN1fdV+WoiKfIRdHlwmlrDTr7XWsQ/dhRwRXoAl83EgUlf1M7piJefvHGH5eFmXPbJK90NVwbO4stwFm0lOtDM8aYThPubybVHcNtMWsNOfjuQwWN9mbPa55UCVtJVA+ssTP/VKl9NvzaxKGDJQvcNCwHLB7wLa5cW55Iuo89QX9TOE/2ZFzx3XWmu5XAVNU3SHQluDsOGPbOMlsx0/ny/gtRiDlgjzQr+0sIsp7F2A46ITh6Smqp8Na8Aj1iY5VMjDVZTwZC24OzbVpBpeZ7+UJQsl7XfhJlOXd1d7AEL+ChQZmH6L1T5aoLavKKAJYuFlbt7NmCto8A5s+e2nVHifeXILLIalAD6wxE8dmuHrAyXKulnIH3HA8+ndPVfXWN1NnC3hVkOAv+qTSsKWLJoVPlqngaetjDLp1No9Qe1BWeXy2790BOMxohaHJZPNVgzluq1WJ8E8ixM/9kqX43GHhQFLFl0rNRiba9rrL4xRdY7oE03ywHLZv3QYxgGUdNawvI6FLBmKDtVV2xkeK2PW5hlT5Wv5kFtUlHAkkWnylfzCFBnYZZUqcVSDdYsc9qsN7GzA9GYtYA1nZoyubAIU3jdPg94F+DxRBSwRObENyxMe2NdY/X2pH9JzNiwNtvs6hy23vO6zTCIWazBmk6QkwukZCO2usbqlcAHLczymypfzRPanKKAJYvZT4HjC+FX5567K+x77q64yxc4vlGbbXad7LeeWW0Gli8R2gwDZawZcaboen3JwrqZwGe0KUUBSxa1Kl9NFPi2hVluqWus3pCEcFUJPAN8zxMdcmrLza5TfdZ7v7AZBhFzOu+mhDVd17f+4rJUW6e6xuotwB9YmOU/q3w1L2lrynzTPcySDD8k3jFgSYJnx08B752nYGUDPgZ8FUgDcMXUS8OsB6z+6QUsq5cI+0IRy/PIq7b2+O/fc3fFbuDvgX/b8Y3TPSmwWl+zUDkQAT6nLSnJoBosmXcjnfz9lYVZ3lXXWO2bh3C1Cvg/4mOUjQ46rYA1+5oHgxy3WItlNyBisZF753BYhT0D0fj4kJuB7wNNe+6u+Jc9d1dclaz1qWusvhp4k4VZaqp8NUe1JUUBS5aS+4BEfw07gD+b6xVaU+r6yMoip68w2x7wemyjbXcUsObGgyfaLM/zmzOdlqbvCipgzULAwukwyPba0soKHDeuLXU9lMRVstLVyzDwRW1FUcCSJWVkoNUfWJjl/XWN1YVz+mUwaHM6jIrcDHt6Wb6D1aUufIVOXh99np3BvWTE1FvDbPrV6XaC0cT6fIzETL699xR72/t41ELIOtilbTYdBdEubhx6hss8LawsdrKyyElRjgOv21ZmGOQnY53qGqvfAFxrYZYfVPlqzmlrSrKoDZYk098AnwDSE5g2jXingp+dw/VpH/uHAXhcBjvMw+zoPoyJwUlHOftd66l3VbLftZ4eW5a24jT1h6M8eKKNd6wtnnS6qGny+T3H+G1TNwBfffEEuW4nVy6bvOzrOvv5+wNnVNAJyIn1sTV0MP4IHqIs2hJ/wXn+m3CBeW/UNjI26dcszNKLtdoukVmn22skqeoaq/8G+JMEJ+8BKqp8NX1zsS7d96x9E/AzK/OccZSy37We/a5K9jvX02HP00a18gvPZvD9a9dzeeH4YSlmmnx+z3H+9+yFtVYeu43dVT7euqrokm4YekMRfnS0mR8fbbbcZmupyIgNUhU6xNbQIbaFDlARsVTRE8nd3eCc5+PEHwA/sjDL56p8NV/VlhYFLFnKAauceL9YiR6w767y1XxzjgLWDuD5mSyj2b5stHZrv2s9zfZl2shTyHY5+Pvf2URFpueC5/tCEb758qlLwtVY63K8vGlFATuLcmgdCvHwyTb+71w34ZiGmxsrzRxmS+jwaKBaFW7EmH5FVDh3d4NrHo8RTuAQsDrBWVqB1VW+Gl0fFgUsWfIhq4bEu2FoAVZW+WpmvXf17nvWrsJaJ6hT6rTnst+5njrXeupd62l0lGqDj8NmwNb8TG5Ynk+ex8nBrgEeOtnGQDiqwpkGlxliU7iBbcEDbA0dYm34JHZmrSxDubsb3PN4fPgwcK+FWXZX+Wp+oL1Akk1tsCQVfBO4I8HAXwxUA383B+vRNtsLzI92c330Oa4ffg6AXlvmaO3Wftd6TjrKMfU7h5gJezv62dvRr2/DdA7kZoQN4WMj7agOsSF8DIcZmau3m7frrnWN1enExxxM1Engfu0Rkgp0ZJeUUNdY/V/ArRYOomtHeoWfVd33rB0CPPP1uQds6RxwVo624zrmXEEUu3YImZSdKGvDJ+OX/IIH2BRuwGWG5uvth3N3N6TN03Hh01hr3P6eKl/Nv2sPkZT44aMikBTxDQsBayXwTqw1ek1UO1A+Xx86IxZgR3AvO4J7ARgyPBx0raXeWUmdawNHnasIG/qa6pewyerwabaGDrItdJDNoSOkmUkbg3xearDqGqtzgT+3MMt+4MfaWyR1vrciKaKusfpR4KYEJ68Hqqp8NbN6sO++Z+1LwOWpUiYhw8kR52rqXBvY76rkkHMtQcOlnWUJqIicY1so3oaqKnQolfphC+TubvDOw/HgG8SHyUrUm6t8NT/TniOpQj+NJZV83ULA2kx8yIzZPqC2pVKBuMwwW0KH2RI6DEAEOw3OlaNtuA641hEw0rTnLAJl0Ra2BuNtqLaGDpIT60vVVZ3zWzTrGqtLSbz7FoBnFa5EAUtkAlW+msfrGqtfAF6T4CyfnoOA1Z7aX9goG8LH2BA+xu2DPyeGjRNOX/wuRWe8A9Q+W4Z2pgVgWbRjtNuEraFDFES7Fsqqz8clwr9gzHigCbhbe5QoYIlM7hvAfyc47WvrGqtfV+WreXKpBKyL2YixJnyKNeFT3MqvMDE47Sij3hXvGmK/az3dtmztVSkgL9YTb0MVPEhV6BAl0baF+lHmNGDVNVavAd5nYZZHqnw1T2kPEwUskck9SLxTwQ0JTv9pYDYDVsdCLjwDkxWRs6yInOVNgccAOGcvHtM1RCVt9gLtZfMgK9Y/crkvfsmvPNK0WD7aXNdgfdnCuckEPqO9TVLzeCySYuoaq+8AfmhhliuqfDUvz8Z7d9+z9qPAPYu5fNvsBfGhfUZC1zl7sXa6WeA1A6/2lh48wIrI2Zn0lp7KenJ3N+TO0Xd/G/CyhXNTbZWv5g+090kqUg2WpKIfAV8CfAlOfzdw+yy998BiL9xl0Q5uHOrgxqFnAOiy5YzWbtW71nPaUabOTxPgMYNsCh0dbUO1JnwKG0tiiJ65TI1ftxCuwljrhFRkXukoKimprrF6N/D9BCePARuqfDVHZ/q+3fesvQ346VIu+z5bBvWuSupHhvg54fQRw7bk90mXGWZDuIFtoXgbqsrQcRwsyaF8unJ3N+TPwXf+Oqxd7r+vylfzYR0tJVWpBktS1T+O/DotTGBaG/H+ct43C+87sNQLPis2wFXDL3HV8EsABIw0DrjWjV5SbHCuJLIEept3EKUydJyq0CG2hQ6yIdyAywzrmzl33TR8w8K0AeK13CIpSzVYkrLqGqs/C3wlwclDwOoqX83Zmbxn9z1rrf6KXnKChotDzrXsd8V7mz/iXE3IcC74z3X+jszzXSdsCh3FYwa1wS/Vnru7Ydksf9ffDDxkJYxV+Wo+rU0hqf0jTSR1/S3xmqnMBKZ1AX8K3DXD9xxQsU/ObYbYFjrAttABAMKGg6POVdS5NlDvrOSgay1DhiflP8f5Oy63BeNtqLaEDuM1A9rAU5vVNlh1jdU24KtWfgcRHyBeRAFLZDqqfDU9dY3Vf0fi45F9oK6x+itVvprOGbztoEreGqcZYVPoKJtC8SZwUewcc64YvVPxgLOSAVt6SqxreaSJraGDo90nZMX6tQGTHLCAdxEfmSFR36ry1fRoM4gClsjM/BXwMcCdwLRe4sNr/OUM3k81WDNkJ0pl+DiV4eO8ffARTAxOOsrH9MW1nl5b5rysS0m0Ld6GKniQraGD5MV0Xk6lgFXXWO3CWluqZhK/+UUkqdQGS1LeSC3WHyc4eRdQUeWrmVZQ6r5nbTags/Aca3SUvtrbvHM9nfbZ6VapINp1wfAzy6IdKuzZ15y7u6F0lr7bVu4WBvhwla/mPm0CWQhUgyULwbeBD0BCt67lAR8CvjvN99IlwnngizThizTxhsDj8TO2fRn7Xev5ccYttNgLLS0rMzZA9cADbA0epCzaosKde7NSg1XXWO0FPmdhlmPE7y4WWRDUuY2kvCpfzb2jS0sAACAASURBVAngPyzM8omRSw+W5e5uiAC6dWyelUTb+L2h37I1dNDyvKsjjbwh8LjC1fyZrW4a7gKs3I34F1W+moiKXxSwRGbXNyz8ci4F7pjBe6kWK0lKI63TmEfBap7NuAarrrE6H/ikhVn2AT9R0YsClsgsq/LV7Ad+YWGWP69rrJ5ub5hq6J6sgBW1HrCWq+ZqwQUs4oO0Z1mY/jNVvhpTRS8KWCJz4+sWpl0DvH2a76MarAUUsFSDtbACVl1j9XLgIxZm+W2Vr+aXKnZRwBKZI1W+mmeBpyz+Sp4O1WAlK2BN4xJh2TRCmSQvYBHvRsUzD99jEQUsEQus1GJtrWus/n8KWAtHmjlMbqzXwgEsRkm0TQW3QAJWXWN1JVBtYZafjfywElHAEplLI5cK9s3xr19dIkyiMguX/JZFO3GYurFsoQQs4mOLJto2MgZ8RsUtClgi8+cbFqa9tq6x+hqLy1cNVhJZaYdVpvZXyTCtbhrqGquvAN5mYZYfVflq6lXcooAlMn8eIN7pYKKs1mKpBiuJrISmUrW/Sobp1mB9ncRHDwkxsyGvRBSwRKyq8tXEgG9ZmOUNdY3VWy1MrxqsJFIN1uILWHWN1TcAv2thlr+v8tWcVFGLApbI/PsXoMnC9HdbmFY1WAslYKkPrAURsLB2c8og8bZaIgpYIvOtylcTAr5nYZbb6hqrVyc4rc7ayQxYEdVgpbiAlYnrGqvfCrzGwix/VeWr0bVfUcASSaL7ge4Ep7UDf57gtKdUtMmTZg6TGZv6Kq2BybJYpwps/nVZCFd24KsWl/0dFbEoYIkkUZWvZgC4x8Isd9Q1VpcoYKW+/FjPlNNkxgbURUNyJPqjhs6WvE+dOLB6w8kDa+hqzScambKHhq9X+Wp6VcSyGDhUBLLAfR/4U8A70QSxmMFgbyahoNOdnjn4OaYepuMIcAYoV/EmR16sh1Msn3EIkzlxKJGJnnj+y5mnD+V+MRxyA9B2dhmGESO/uIPl687g9gQvnuUs8AMVryhgiaSAKl9NZ11j9T8AHx/7vBmDzpZC2s4WMdibSSwWvzvc6Q59+NdPfuHbr3/dF05NtMzc3Q2h7nvWfgn4B5VwkgJWdOrwlB/tVkElx38lMtGzT9fd/5N/rXcEBkNs2bKFLVu24PP56GheRldbASs3HqegtH3sLF+s8tUMq3hFAUskdXyXeK2UEyDQ7+XYK+sYGkwbnaC9vZ0jR46QlWMzqsyc+4Cbp1jmD4FrgT9U8SYhYCVQO5WnGqxk+HXu7oZXEpgu49tfffj2nu54LdXx48d58MEH8fl8vP3tb2fDhg0c37+WQL8X37rTYJhHR75zIouGoSKQxaCusfqfgD9qO1vM6UMriMVs9Pf38dhj/8tzzz1Hd/ertR0rV+dF8wtcGS/uaZny13L3PWvfR7ydV5pKef48mP567st696TT7Bp4iDsG/lOFNX+OAa/J3d0wZdXh2vW59zcc7v7gRK/ffPPN3HrrrRiGwYoNJyjytdxe5at5QEUsi4kaucti8a3ejlzz5IFVxGI2XnzxRT7zmc/yyCOPXBCuAE4e77IbNiOhXqJzdzf8E7ATaFARz59EaqfUBmte9QNvSSRcAQUnj/VOWvP7q1/9invuuYeYGaavK7sTUFIWBSyRVFTlqznS1Zp3GExqa2u5//77GR6euILq6KGuD5DgoLO5uxvqgCuBh1TSqROwdIlw3pjAu3N3NxxMcPpPRyIxz1QT7d+/n7r9z+B0h79d5asxVcyigCWSqjuzI/q1Yydf5PHHH59y2t6eYD7w9kSXnbu7oQ946wvubS+ppOchYCXQyD1PjdznRdBwfT93d8PDCU5eztR36Y4613Kw5c2v//w3VcqigCWSwn7/d//y348d95+zMIulQaBzdzeYX8n5/+zdeXxcdb3/8df3zEz2tTttKbSltFDa0k4hKTuisggqS4rsIiBefqK44H4FRbyKqBdFZFGRRe1tQFAERGVRtoT2AN1YulDaUro3abPPzDnf3x8zbdPSZGaSTJbJ+/l45JFk5jvnzHzmzDnv+Z5zvucLf1mWc6iKnemApV2E/SVc8XDhGb9O4yE3ArmpNt6xY9s1qrIoYIkMAFu3bf1aGs1nAGekM/2ICdX/qPQaWkyeip1BebaNfNvxLl6DpdxTwMq0v+efxP1F56Y6dMIU4LJUp33AmKKaZ/+x9hFVWRSwRAaAf/9r3R+HjchfmcZDvpnmLBq3BIby77xKFTvDOttNWOI3EsRTkTLsldwjAQpSbP4DUjyuEfA3rG+8QhUWBSyRAWTr5pYvp9H8uMRPqizA0/nHqtCZDlid7AIc6uv4q0yzGN7MOYRLhmw/pmXx709oXvLAMY1L/jiyg+ZHAeemMfkHgDdUZclmGmhUstHfgKXAESm2/ybwsQ9sYKw1De6fhlIYtV6r75Xl+94pS/3cJuuwNGcymwLDGOltVbUzpNRv6PC+kk7uk56xOnggzSaf2UVbf2NxwFocYjQvvr8e7FsW8xbWeSkWbH24dOqVP0xj0m3ADaqwKGCJDMQv3/Aj4MEU259RnJc3c3Pt3eVgKn3HVhrfjG9Z8sDBwRyKiBqCgQAtkQCfG7ml6acbR2IxLMydzsean1G1M6SzY7DybZsKlGHvhMbF05D/gR0dZWAqDVRi/E8313t3/eTrF5n7HvkPS5evS2XSdwJrVGHJdtpFKNlqHrA6lYYBx+Hm6z9Vaw1PW2NvNpazMPYIoGg/yW33eD2bAsNV5QzK6yRE5Vldsi7T6pxSAFpt5xf8KC3ON//volOpmf8Dfv29Kxk1vKyz5g3AzaquKGCJDFwe8JNkjY4LT6b2oR9wZdWHQqlM1Fr8PQFrmKqcQZ32YPnqweqtgLWfHqz9b0wcw2Vnn8CzD3y3s5D1M2CLqisKWCID273Axo7uPGbmofz1zq9x+CFjU56gZU/A2qyA1WcBK0+7CDOuPsUerH0dNHoYf7njqxQVfGAok63EL8wuooAlMsC1Aj/f3x3jx47g4du/TF5uKK0JWky7gDVUFc4g7SLsW3WBRMDy099MTJs8jgvO/MCZtjcT30UoooAlkgXuNIYd+9541dwPUVpckPbEfLtn8KVdu1AkM/J99WD1pQZTCECz37XNxMWf2DP6yYihJa0HHXTQnaqqKGCJZAn77LPNn5374b2+NRtj+NTHjunS9DxM0+4Pj/VV4EwGLO0i7FOBxHeJRq9rm4kJB47Y/fdN152f98Zfv/8ZVVUUsESyROuQdV//9jVnj83PzdkTuqyltKSgS9OL+E7zrr9DxFTgDOosROVrF2HGBW0iYHWxB2vjlvhAsYdNHMOFZx2LMeaWlkX3j1dlRQFLZIBrW3zvFGv472HlxXz63BP3u/JPVxSa9myAFLAyST1YfWvXF4hGP9Clx//jxSUA3PD58wg4DkChb/iOKisKWCIDnGcCtwC5ANdddgah4J4Nxf2P/KdL04xYZ0/A0rXwMipPAatP7foC0dRuF2FjcysNTS1JH/vmqvV8//aHOGraRD5+Snj37SbNi6uLKGCJ9DN22fwiLKfu+v/AA4Zy/hlzdt//k98+xn8WvJn2dNv8PcdghWxUhc6g/E7PIlTAyrQ9PVh7NhPfv/1hjvjY9fzuoWeJeR/8ghGJxrjzT//ktCv+h7ZIjO9/ce6+TYpUWRk0X1JUAslGLbFIGYac9rd9+TNn8ofHXsRai+9bzvzsLXz63BP59ufOZuSwPWcEtkViLH57DS2tbZxw1OF7TXdnzNl98cHR3mYVOqMBq7VL90nPOCC2CXKhKbGLcN2Gbdwz/2naIjE+//17uf7Hf2D6lHHMPHw8nuez+r3NLFm+lk1b4yftnjLnCI4/6rC9pmkwz6uyooAlMpA3ziXRrS0NgS3A7uvZTJ4wmjNPnsVjz7gAxDyP38x/ht/Mf4bhQ0o4aPQwojGPN1a+RzTmcci4Ubz+1x/jOHsGWlwXzdm26+/x0bUqdAZpF2HfGh+LX1dw1y7Cm3/9CG2RPccdtrRFqF20ktpFKz/wWGMMN103l+Y2D4OhMM8BWG4sX1JlZbDQLkLJSmb85a3G2ushvp+jqc2nqdXna1eetd/2W7bvZOHSd1j01hqisfiuj5VrN/Lnf7zSvlndmkjO7i37wbH3VOhMhmRfuwj7Q8Bq8B371jvv84e/vpDyY8/56NEcedjBFOUFKMxziPm8lR9pmZk345K3VVlRwBIZ6BvoGZfdh3WOj3k2lp/jUJTnED5iAidXTE15Grf+7rFdf24w1qlq9Z3iXTdMiq5WkTMogNfhiQS5NqICZdi42HpybBTPGnPaVT9+3vNTG/ctGAhww7Xn7nVbyOF5M/vqZlVVFLBEskTBjItrggHzRru9fFx/1VkpP37xW2v52i1/vCn/rbwD82dc/DQwBOK9VxNi2kWYaV4Hqygfo+JkWI6NckJrLY0r32DzlrrjU33cpWefwCHjRu3zfrFIFRUFLJEsY7Fu+/9POvpwZh8xIeXH3/7g308yc+fu6kopBzi9+VkVNuPhKoDtIEjFjA4f7Q1nNj/Nuj/ckXL7/NwcvvW5T+57c7NjeULVFAUskSxjrPPPfW+7/sqz0pnE8cCuK9cOGeLX8+GWF1TYDIt2EqIihFSgXrBhyWJ2Ll2Ycvv/uvAjjB5Rvu8XnC/nz7hU+9NFAUsk2xTMuORPhr2/QZ958iwOmzgmncl8C8Bgh3y1/i4KrQ4nybTOeqnUg9U7bnpsW8pt83JCrV+87PQFQATYhuEFCx8rnH7ZXaqkDEZaS8mgEA3ZS4NRcwNwFZBnjOHzF59a//++97uyFCdxBjDjiob/GzMrslQF7Y33rJPVU4yACpRhb22I8Nra1Mcba41EbzropM//UJUTiVMPlgwKJYddtq1g+qVfyI+0DDXBwMGObyf/9rHXRwBrUp3GUePz5p3X9HiBqtlLAcuEOrlP3w0zbXNDWtfa3Aj8r6omsofWUjKoJE4Vbx+qbgV+mcpjF61tmxL1LKGAzmDrlYDVaQ+WVl2ZdtTB+ZQVONQ3pzQ8w02A9puLtKMeLBnsfgukdM2bqG/Z2eKrYr0VsHQMVp/KzzH87PyRmOTfJ1YB96hiIgpYIu21ALel0vDo8fkMLdKxP72lsxClXYS94+xZRVR/bgwjijtd7r8D6MrnIgpYIh/wK2BnZw3KChx+dfFIVaoXdbaLMKpdhL3mlMMLePWGg/n2mUMZVbqn7o7BArcA81QlkQ/SWkoEdgA/IX4cyQccf1g5v/pUGQcO0celVwNWJwe5axdh7yrMdfjqqUP48keH8NqGHOpzD2bSzBPtqPK8Z0ee8AUVSEQBS6RDNwMlwOeA4tycYOS00z+Wc9lll1FRUYFp2UJks4uz5VUCm1/FtG5VxTIesHSQe39gQ4X4w47EGz4Tf0SYw0rG77rLsev/fQcwQVUSUcAS6XA7AnyN+ICixStfevgd54DZObvvzB9O7KDT4KDT4luWhrU4W1wCm12cLa9joo2qYE8HLHQMVp8I5OINPQJ/eBhvxEz8sslgOrgm5Mijxm995LOTh51999sqnIgClkhnYpteumd8bNSsTgcg9YvH4RePIzbhbLA+Tv1yAptfjYeubUvBa1Mlu/tG6CzC3mEC+EMOwxs+C3/4LLyhU8FJ7VJENliAN2rODXD3hSqkiAKWSOcbjYIDbuzoG/v+N1AOfvkU/PIpMPlC8KMEti3F2ewS2OLi1C0H66mwaYp2cr1BjeTenUDl4JdOjAeqEbPwhk6HYH6XJ+cNnXamiiqigCWSlF868cPdmoATwhs+E2/4TKJcCX4UZ+e7ODtW4exYhdmxCmfHSkxkp4rdWcDqdJgGXew5pS8LOSX4pROwJRPxSyfgl07ELxkPgdyem0fhAcXvr3BPGD0p/B9VXEQBS2S/1q9fP85Cfo9O1Anhl03CL5u0d0dC69Z46KpPBK6d7+A0rAWrwUwhyThYWnXts4wF8YsOxC+diN0dpCZi84f1zuybNpwPKGCJKGCJdLChqF/x0X2DUMZ6F/KG4eUNwxtZsedGL4LT0L63ayXOjncGZW9Xp5fKGcTHYNm8IYkANQFbOjH+d/G4lI+byshzChZUau0hooAl0smWIvbhPp1/IAe/7FD8skP3utm0bsM0b8K0bMZp3oRp2bL7f9O8GdNWT/xEyOzR5HR8Xe0mk5+dy59xsHnDsAUjsPkj8BO/bf6I+G0Fo7A5Jf0w9A2dqJWHiAKWSCefiIKZ/TL35Q3F5g0FDme/h8t7EUzLFpyWTfHAtSt4tewKY5sxsYF1Ld5GU9jhfQ1O0cAMTzml2Pzh2IKRu0OTnz888ffI+HtsBt4FNmz+0NL169cXjxkzpkErEREFLJH9BJlh4wbkEw/kYIvG4BWN6biNH4uP1xVtxCR+9vzdFP87suu2hj33x1riZ0H6Xvy39TB7/Z/kmDETACeIdYK7/8YEscFcCBZhc4ogWIgNFWFDhRAqwoaKyNuWD7EOXm7hSCLjr0s8xyZMtKnd62mCWFP8efux+I+NYXwPbOL/JEEIE4gHIhNIPOfEbxOAQAgbLIw/78Rz3fU7/ndhu7/b/y4ATJZ+cgwm2lAB/EtrEREFLJG9rF+/fqyFvKx9gU4Qm1sGuWU9vzNxd+DyMdaLBxMnEaa6GCpyWhfGL2K0v4CVV05swindfL4xjB8DY/YOUlkbgjIcsZo3n6GAJaKAJfLBDURkx2E2p1SF6FLxAhCIj03VU+EtGijo0n3pPF/bg8MVDHrWP1JFEGn3nVYlEElsc5s2TFcV+g8v0HFnYqS7AUsysDUJjlERRBSwRPazRY9MVhH6j5jTccCKBvJVoH7GBguGqQoiClgiH2Sc8SpC/+F3svsu4GjV1e+EiopVBBEFLJH9fBpCo1WE/pR3Oz5ENGh0IHp/Y0OFofXr1+epEiIKWCL7bLXztYujP70dnYSokKOA1S/5UR2HJaKAJfKBb+AlqkL/Eepk7RRSD1b/3KDUvaUTRUQUsET2ZiINJtsuNzOQddaDFVC+6oefnx04DevUgyWyax2mEohA3S8nGf71aWNzSvCHTsMfOg1v2PT4NQEdfUz6Qn3U6+Q+XwXq62/nDetwti3B2b40/rthHcAWVUZEAUukvVFAjonsJLDhRQIbXiQEEMjFL58SD1tDp+GXT+mXF9vNRhtbO76kzabWmArUm7xWnPqVBLYlwtS2pZjIfofZP0jFElHAEkm+YfDacLYuwtm6aPdNNn8EfulE/LJD8EsPwS+diC0cPSAv0jtQA9ZGBayMMc2bcHas2uvHNK1Pfs1JBSwRBSyR/Uj5Is+mZTOBls0ENr7c7pOUh18yIR64yuKhyy+ZAEENiNlVnfVS1Uc9ol6MUECrsC7z2nB2rt47SO1YFb9odk9/URFRwBIZtLq3YYi14mx/A2f7G+2jGLZodKKXKxG6SidiC0aq2km0Rlpp8To/4aC+tZnhOvEz5S8Fzo53cHas3B2knMb3Uu2VUsASUcAS6bJxPT9Ji2lcT6BxPYH1/95za6gYv2witl3o8kvGgxPSu7A7PDUlbbO1JcLwQtVqL14Ep+FdnPpEkNq5Cqd+FSbaMDC+qIgoYIlknV7bMJhoA4Etr8OW19vdGMAvPhBbcAC2cDR+4QHYxI9fcMCg29W4raUtaZuNrVEOG4QLqok2Ypo2YJo34DRtwDRtxDRvwDStx2lcn4leqXQU1/1yUnn5tSvqtEoRBSwRwTvgmMOdrYu7e/xJ11kPZ+e7sPPd/d+dWxYPXAUH4BeO3it82YIRYAJZ9X7Ej7/qfLCr99qydDAsL4LTvCs0xX+cRKAyTRv6bhlNxgnglx8G+cNnwopntFYRBSyRQW7ZsmU5bSXFEzEQqF+B2ewS2Lwwfiq6H+0fvRZt9Zi2etj+Jh+IUiaALRiBzS2PB7GcUmxuGbT7O/67FHJKsaF+uF/N+vHgEG3ERBtZ1pQDdB4a32w2mLrlECqEnCJsqKh/Bk3rYyI74+9fZAcmsiPxfsb/pv3/rdswrdsZGAPeGvyS8XgjwvgjwnhDp0OogOB7z54OdytgiQKWSiCDXVlx/hE48Q2zVz4FyqcQm3wR+BECW5fgbHYJbHFx6lf09e6XDjbg3u6ejtR6GkLY3NI9QWx3CCuJD6pqglgnCE4ATLDdbYHdf3/gNicUDzcmAH5kT1iK7AlN7QOUiTZCpN1tsebdT8/H4blRv0/6Mt5qiLDzP99ipLe13RotDxtKhK3E7/Z/Eyrc+7acIgjkAz74MfA9sDGMH4v/b73E731u23W7H8PYxOO8lnhIaqtvF5x2YCINZMsVAvzC0fgjwvjDZ+ENnxlffvZdHPOHTdVaRUQBSwRa6+ZQOGo/QSQHb0QYb0SYKPFjp5zNrxHY7OJsceNnYQ3IrWQU07IV07K1Xz697YEyLKnt/tsaGLJ3wIq1YmKt/fa1DTh5Q/GGz8QbPgtvxCxswajki1du+UQVTkQBSwTHCcxOpV/KhorxxpyAN+YEIDEe1uZXCWxxCWx+FVq3qZg9YKtTnkbbISpYD7LBQvzhM/FGJHqoSsanP428oWNVSREFLBFsIOeILj0ufwSxg04jdtBp8cC1czXBbUsx9SviAzfufAdiLSpwmrYFyjPSVvb9ZpGDXzp+96C4dugReGWTun8cWzC/YO3ataPHjRv3voosClgig1kgb3xPTMaWjCe61zd+i9O4PjGw48o9o2U3b1LNO5FOr1Q6vV2D+ktE/vB4iEpc3skrnYAtGpuxkwIcxzkMUMASBSyRQb3xcUIZGg7c4BeNxS8aC2NO3HNrtCEetOrbha6dq/vNGYt9TT1Y3Uk2+/RKlR2CXzIRm1Pcq0/DGDNMb4YoYIkMYhs3biz0PK9Xh1C3oWK8YUfCsCP33Oh7mIY1iV2Lq3Aa12OaN2GaN2IiOwfVe5JeD9ZgPAbLYPPK8fNHxC+7VDS2V3ql0qSAJQpYKoEMZr7v948NgRPAlk7AK52Ax0f2vi/WgmneiNOyOR64mjYlBqLcFB98srWObBkGAGBrGr1SWwPZF7CsCUBBPDzFQ9QobMHIxM8o/IIR4OT095ehgCUKWCqBDHJD+/+nNB9bMh6vgzO6jB/DtGyKB66mRPBq2RQfgynakBjcsiE+HpP1+v3LTWsXoRMf0sEMhIAZyMWGirE5JfExx3JLsDll+IngtDtE5Q0F4wzwby6xEVq1iAKWyOA24L9pWyeILRwDhWNgeKct4wN6tu0KXDsgsnP33ybaEN8d2bYTEoNnml2DalovPsiqH8NYH2sT9yUG5sTa+GCc1gffw+76u4OBWa0JQCAPgrnYQF48fATyIJhHXRq9UjETpHHEHApjO8BrBa8NE4v/xmvt5Lg2gzUOJjGgqsUBE8A4Qaxx9tzmBDBm121BLA7GiQ+ouus2gvm7gxOJ8LT7/9xSbE7i7/7f69SDASsyWqsWUcASGcSstUMHz6s12GAhBAuxvXa1HLs7kMXDmIVALrtGzv/ghtmjtXZDvF2qZn2Z1oIOcrL142HL2nhYcoLxQUwHeg9Rvw9Y3kgVQRSwRAa3fJUgw6Fu1yV0Usg0Xmsdvk1vd19LSz1FHQUs40Awv13ck155161fpCrIYKevcTKoWWtDqkL/0dpSl/ZjGlubVLh+x89TDUQBS2Qwf9OONuqbdj/S1Nac9mPq2tpUuH73zcXPVRFEAUtkMH8AojtKVYX+o661Ne3HbG7zVLh+F7BsjoogClgig1lbowJWP/Jem0n7Masi2hvV/wKWr4AlClgqgQxmxmtRwOpHlkfTP71xSUyXy+l/HyyjYxtFAUslkEH9RdtrK1YV+o83Y+nn3fWRQIfjbUmf0RnqooClEsig3gpsfX27s3VxfNBM6eu4y8a29AdSiFmItjWofP1lo9L4HoH3X9CpnaLti0ogg/oDsHze/waXz7uIYF6+N3Q6/vBZeMNn4pdN0mCUvSza1kisiwNVNbQ2MyRPe3v7gmneRGDr6zibXQJbXsO0bAG4Q5URBSyRQaz82hXL6n456TpirXcFNr1CYNMrhAAbKsYfMRNv+Cz8odPwiw/uePRx6RFbG+oA06XHrmtqZUiZatgrgappA07dmwS2vIqz+VWcpvf3bfJv4PuqlAz6z4pKIAJ1v5w0H6jqsIGTg1c6EVs+Gb98Cl7ZodiSg+IjlEuP+MeKpdy5pWu9UB8uaeWaIyapiD0ept4nUL8cU7ccp/5tnPrl8YuGd5KTgRnl1654X9WTwU49WCJxVwGzgfH7vdePEKh7E+re3HNbIA+/7BD88sl4ZYfil0/BFh2oXYtd9Fx918PqfxrzuCbWCkEN2dBjYapuOSaa1rFtFrhU4Uok8ZlSCUTi6n45aRbwL6Dr5/0H8/HLJuGVTcYvn4wtm4xfPFYftWRb5oa1nLukezV6YMI2CkcdqWKmG6bq3sKpX5FumNqfb5Zfu+JHqq6IApbI/kLWDOAfwIgem2ioEK90En55InSVT8YvHK2PXztvrl7ItzeM7NY0Plu+idMOm61i7sNpeh+n/u1EmHq7p8LUXvkYuK782hW/ULVFFLBEOgtZk4GngTGZmocNFWHLDsEvHIMtGhv/XXwgfuEBEBhku7lizVztbmSL172xKYMG/niEQ7B4zOBbaGMt8SDV+B40vhf/u2k9pn4lJtqYyTl7wBXl1664T2sOEQUskVRC1vhEyBrf2x9JmzcUv2gstmhwhK9FK17me1vG9si0Lip8j3NnzMnOlXWsCdMQD0+maT2m8T2cxvXxs/hat/XFU4oAF5Rfu+LPWmOIKGCJpBOyxgBPAtP6y8fV5g3FFo/F5o/Ezy2DvCHx37lDsHlDsLnl2NzSAXN2o9+8hU+/vpNGcnqqQjwwqZGC4YcPnJWwH4XW7Zi2uvhP63ZorcOJ1EHrdpzmTZjG9ZjIjv70tOuB88uvXfEPBQqhYQAAIABJREFUrSlEFLBEuhKycoGbLOZ6gx0gn2oHm1OKzS3D5g2BvKH7hLAyyCnBOiGsE8QkfmOCEAhhTQgTCGHTCWm+h4k1QbQRE23ERNv/3QjRpvjvSEO8XSR+2015F1NjJvToyz/I1PHz5jvIC+Vgg4WQU4wNFmBDRRAqiv/OKcQGiyCnCBsswg8VQE4xOGkEPeuDjYEXxdgY+Hv+tl4kfpsXwUTqMa3twlNbHU5bPDyZ1rp4PQaWp4jvFlyvNYSIApZIt1z34K+evmrnnz402ts0qFYP1gkmwlYQnCA4ObtDGbAnMMVa0p76owWncmfJxRl55qe2/Jsv7fhN2o+zThBCxdhQITghsDFMIjh9IEwNvssrNQBfKb92xT1aI4gkp1ESRVLZ8F7w3SlPFZx4fJFtZlJ09aD5ZmKsD34U47VhYi3xHqnITkxbffwn1hwPG2l6L3gAPyi7Fi9DuzJXhQ7mkOgaxnob0n69xmvd8xojO+OvOdYcv92PJoKVHWwfgWeBU8uvXfGM1gYiqdGIiCKpeafV5HJ7yWV8a8jX2RIYqop0UYNTxA1lXyZicjI6n1vKPse7wQNV8G6ImmAMuBY4pfzaFWtUEREFLJGetmrXH6/lTOVzw37IXwo+SluGQ0K2iZkg3y/7IuuDozI+r2aTz3+Xf4VtTrkKnyYfhxfzZvPd8q/8pPzaFbeXX7vCqioi6dExWCIpqKiuOQh4d9/bi/1Gzmh5lo83/ZOhfp0K1QmL4SelV/NM/rG9Ot+J0TXcuv0H5NtWvQkphNK/F5zIXwpOZVNgGMCs2qrK11QZEQUskUwFLAdogf2PJxDE46SWlzm7+e9MjGpPyr6iJsitpVfz77zKPpn/hNhavl/3U4Z52/Vm7MeGwAgeLTyVf+SfQIvZPdbaNmB4bVWleq9EFLBEMhqylgOTkrU7MvIG5zQ9yVFtizBo27TTKeKmsi+yJGdKnz6PoX4dN9T9nEOjq7UwJyzOOYxHCk+jJncm9oObg/m1VZXnq0oiXRNUCURStiqVgPV6zuG8nnM4B8be5+zmpziudQElfsOgK9b7gZE8Wngq/8w/vn2vSJ/Z5pTzxaHfo6LtdT7Z9HeOjLwxKBfiRqeQl3Nn8WjBqawKHdRZ03/pIy/SderBEklRRXXNr4Br0v+QWSZG1zArspRZbUs5PLqcHBvNyhrtcIpxc6fxn7xKanOP3F+vSL8xPraOj7b8h3DbYsbF3s/a5TZqgiwLHcpruUfwWs5UVoTGp/q+TKitqlR3n4gClkjGA9ZXgFu7O50cG2Fa5G1mJgLX+Ni6Absr0cfhzZxDWJgzHTd3OitCB/frUNWR4d42ZkWWMrttMUdG3qDYbxywy6nF8E5oHK/lxAPVkpzJXRkS453aqsqJ+tSLdJ12EYqkbmVPTCRicnBzp+HmToNiKPN37g5bk6OrOMDbTMjG+t2L9wiwPjiK1cEDWR06kNXBA1kWmkyjUzDg39gtgaE8lX8iT+WfiMEyKbqaQ6LvMj62joNj7zE+to4iv39e0iZicng/MIK3QofwWu5UXsuZyk6nuLuTfVofdxEFLJHesiATE613Sng27xiezTsGiO9SHO5tY4y3idGxTYzxNjI6tonR3sZeCV8tJo86p5QNwRGsDh7Iu8F4mFobHEPUZP8qw2JYHprA8tDe10gc6tUlAtc6xsfWcVBsPUO8ekr9BgJ4GX9PNgRG8H5wJO8HRu75HRjJtkB5JnoNdfyVSDdpF6FIGiqqa94BxvfdBzYevkZ7mxgT28QQv56QjRIkRsjGCOARsjGC1tt9W5AYQRsjRAwfhzqnlDqnlHqnhHqnhLpAKfWJ2+qckoyPsJ59K1FLsd9Emb+Dcn8HZf7O3T/l3g7K/B0U2yZ8HGIEiJng7t9REyRGMP534neMABETYnNg2O4wVeeU9m7GjA/PsE3vrkjXqQdLJD0v9GXAshg2B4axOTCM13Om6t3oByyGnU4RO50i1jImG17S6wpXIt2nS+WIpOd5lUCynHYPiihgifS6F1QCUcASEQUskZ71FvFLiIhkoybUSyuigCXS2xLXZXtGlZAs9YfaqsoWlUFEAUukLzyiEkiWukMlEFHAEukrjwMRlUGyzEu1VZWLVAYRBSyRPlFbVbkTHQgs2Ue9VyIKWCJ97s8qgWSRLcBDKoOIApZIX/srZPj6KCK953e1VZVtKoOIApZIn6qtqtwCPKdKSBbwgTtVBhEFLJH+QhslyQZP1lZVvqsyiChgifQXjwLvqQwywOngdhEFLJH+o7aqMgbcpUrIALYa+LvKIKKAJdLf3I3GxJKB687aqkpfZRBRwBLpV2qrKjcD1aqEDEBtwO9UBhEFLJH+6n9VAhmA7qitqtyqMogoYIn0S7VVlQuBh1UJGUC2At9XGUQUsET6u28BMZVBBojv1lZV1qsMIgpYIv1abVXlcuAeVUIGgKXET84QEQUskQHhe0CjyiD93Jdqqyp1mScRBSyRgaG2qnITcKsqIf3YY7VVlf9SGUQUsEQGmluBVSqD9EN1wOdVBhEFLJEBp7aqsgm4jPgFdEX6kytrqyrXqgwiClgiAzVkvQjcokpIP/Lr2qrKP6sMIgpYIgPdDcAilUH6gSXAl1UGkd5lVAKRzKiorpkGvALkqRrSR5qB2bVVlW+qFCK9Sz1YIhlSW1W5BLhclZA+dI3ClYgClkg2hqx5wI2qhPSB79RWVd6nMoj0De0iFOkFFdU1fwI+pUpIL7mttqryOpVBpO+oB0ukd1wO1KgM0gseBL6kMoj0LfVgifSSiuqaUuAvwImqhmTIE8AnaqsqdeFxkT6mHiyRXlJbVbkDOBXQeESSCc8BVQpXIgpYIoMxZLUBVcCdqob0lHBB88a/HbLihZrzKlpUDZH+QbsIRfpIRXXNjcQHJBXpsnPK6/n8iM2Y+Ar98VbPu7h85uX1qoxI31IPlkgfqRmz9sdjcyLfRtctlC5+O756+FauTYQrAAsfyw0EFjQsuv8IVUik7z+jItLLmhbfd7XB/AwoeL6hiJs2HEDU6uMoqQkay9dGbeIjJTs7XMQw5jMF0y6Zr2qJKGCJZL2db943NBg1vwE+2f72Rc35fHv9GJp8dSpL5w4IRfnu6A1MyWtN3tjaW/Onr/66MTeql1REAUskO7UsevAUa7z7wYze3/3rIjn8eONIlrXkq1iyXx8p2cl1IzdT4KSelyz8rmDaJVcaY6wqKKKAJZI17MK7Qi05+T8Ark/2mbPAI3Vl3LN1GK3qzZKEAsfnupGbO9slmMz/Fky/VIOPiihgiWSHutfuLcsNBB4lzcFFN0ZD3LpxJG5zgYo4yE3Ja+W/R29gdCjavaBv7fcKZ1x2oyoqooAlMqA1L3pwrDH+kxa6fEbXEztKuWPzcB2bNQgVBzyuGLaNj5fV99yK2pjzdeC7iAKWyIDVuPjBaQ7+E8DY7k5rWyzIzzaN4KXGIhV2kKyUTy/dwVXDt1IW8Hp68vUmGDgy//CL1qjSIgpYIgNKy5IHTsLaRy2U9uR0n95ZzC83j2CHF1CRs9TE3LbIV0ZtyjkslTMEu8qaF/Pfzj3RzJ3rqeIimaP9DiI9qHnR/Z+y1j7V0+EK4JSSBh4Y/y6XD9tGSUDbxizzzjGFjT+/++B3t2Y0XAEYe2zLlLavquQiGf6oqQQiPaPl9fuPsw7PARnvYmrzDY/tKOMP24a01XuBXFV/wFoJ/BB4oLaqMmZfmp/fWtx6HZavZyKkt1vzb81vyBtnjpmraxeKKGCJ9F/1i/9QnoO3CDiwN+cbs4Z7tw77xx+3lx8MHKp3YsBYDtwM/KG2qvID3ZFNr/5ptBOMPtWdEySSsdZcUzjjkl/rrRBRwBLpt5oXP1AN9ry+mn/MNxd+ZMWkKPBNYJbekX7r38CvgYf2F6z2E9r/BhyToeeyMn/aO5M1yruIApZIv9T62h8m+QFveR/Nfp2Fp43hsYJpl/4ZoKK65lTga8DJ+oz3C9uA+4C7a6sq307ngXbhXQWtOQUPWezpmXhivrEziqZdtlhvkYgClki/07TkvpuNNd/qxVn6GB4B87OCaZe81FGjiuqaMcBc4FPA0XqnepUPPA/cDTxcW1XZ1tUJ2RW/yG1pLfsXluN6fgtgzymYdtkjertEFLBE+p3mxfe/B4zplZlZnnWC5rN5Uy9Zmc7DKqprxgPnJ8LWDL1rGVEPPAU8Dvy9tqpyS49NOL678CVgSs9uAcz1BdMuuVVvnYgClkh/DFi9cRHdCMZ8O/+Ii3/a3Yv2VlTXTE4ErU/1+AZ78FmWCFSPAy/VVlXGMjWjltfuPdgGAi8Do3pwsrcUTL/063obRRSwRAZdwDKw1DP2okwcK1NRXTMdOBM4DpgDlOkd7VQr8CzwN+CJ2qrKd3tz5k2LHphljP030CPD+hvLKfkzLn1Gb6uIApbI4ApYxt6Wn7fj62bSF9oy/Toqqmsc4sMCHJsIXMcB4wb52xsB3gJeIt5L9XRtVWWfjh3VuOiB0xxjHwOC3ZzUpvy38sZoRHcRBSyR/hqwXgGO6ukNu7HmqvwZl9zfl6+torrmwHZh6zjg8B7YsPdXa4DFwJJ2P29ncrdfV7Usuf8Ka/lNtyZi7a0FMy67Xp9gEQUskX6pZdEDl1pj7+vBSW7B8c8uOOLTL/a311pRXRMEJgCTiQ9sOrnd36MGyFtWt0+IWgIsra2q3Dmglrsl93/TWn7YpWxluL9g64FXmJNPjukTLKKAJdIvJU6jfw/LsB74QC7F887Kn3n5uwOtDhXVNSXtQtckYCQwpN3P0MTv4gzMvh7YksLPhtqqyg3Zsuw1L37g82B/kda63PLT/OmXXN/dkyVERAFLJOOaFt13jTHmF3TvOoSP5udELzVTrmjI5lpVVNeEgPJ2wat496Z/z2+b5Da/XajaWltVGR2sy17L4gcustjfk3zXbROYbxRMv+R2fWJFFLBEBk5vwqIHKy3+lcZwAVCQxkMbjeG6/GmX/lZVlK4uexj/R8CJ+29h/2oC5tr8qZeuVbVEFLBEBujG7r7rMeaWFJu/5BC4JG/6Re+octJdrYvv+7CH+bqBw4AcDG9ba35aOP2SR1UdEQUskQHNzp8faJ7S9luDvayTZlFjzY15b+f+WKfJi4goYIlIKiHLWtOy5IGfAZ9n72NjWjDmXuPbW/NnXLpalRIRUcASkTQ1L3pwLI49xlq/3DHO23l55lUz6eKdqoyIiIiIiIhIGtSDJSIywITDYQcYA2xyXTeiiogoYImIZHv4mQJ8CDgeGE18rK9y9j9OVSvgAte5rrsuhWmfBdwATAXygBiwHPiR67oP9NDzLyd+FuJWYJXrujoJQ0QBS0SkT0JVAJgLfAOY3oVJLHRd96gk8/gNcEUnTf4MnOe6ru3iaxgF/BS4sN3Na4CrXdd9Su+ySHoclUBEpFvhagLwKvDHLoYrgNnhcPjQTuZxYZJwBXAOcG0XX0MO8Pg+4QrgIOBv4XC4Qu+0iAKWiEhvhauTgAXdCFbtHdPJfV9OcRpf7OK8LwJmdXBfELhF77ZIeoIqgQySDWGA+HEr44A3XdddpapIN5epCcAjQFkPTM4D/t7BfBzg8BSnMz4cDhe6rtuU5vxndPN+EdmHerBkMGwIjyK+C2cR8BiwIhwO3xkOh3UMonR1mcoBqnsoXAE84bruxg7uy0v8pMKw5+LZ6RiZ5P7ScDicq3deJHXqwZLB0MvwFPGzuNpvhK4GaoDfq0rSBXPpeJfavnzgfeDdxO/2B6G3AYuBX3X0YNd1m8Ph8DvAxBTmta2ToJYsmPVEGxFRwJJB4kv7hKv2TlbAki76rxTaWOAnwHdd123r5vweB76QYjsRUcASybhjO7lvhMoj6QqHw4fT+QHpu8LVJ1zXfayHZvtt4CxgfCdtNpH6wfAikmE6Bkuy3QGd3KddHtIVx6fQ5oUeDFe4rtsInADM66DJ34BjXNfdprdHpH9QD5ZkrcRB7MNUCelhs1NoM6+nZ+q67nvABeFw+BvANOK9WWuBZa7rrtTbIqKAJdJbhmgZlz4IWB7xMwwzwnXdNcRHWBeRfky7CCWbDVcJJAPGJ7n/Ldd1t6hMIgpYItlKB7FLj0oM+lmSpFmjKiUiCliigCWSuhKSnxyhgCUiCliS1bSLUHpaKiO3K2CJiAKWZDX1YElPS+WSNU0qk4goYIkClkjPUg+WiChgSVbTLkLpCy0qgYhojCDJZurBStOc+S/lm4AdESU0wvh2JJaSAN52GzCbvUhgy7DSrZufPOOMtkw/j2P/8kKx3+aM9HFG4TDSYoZj2YZhNQ6rXzmnQiOWi4gClogCVs8Ih8OhYDA4sra2dj3x6911b3oPLzwgaGPnWGuqDDbsQxE+OPjxBgZ8HPDBCfpsbxpCRXXNTmvMFsf6i60xf/N954kFc4/e2J3ncdKzzwabtxScYBz7cSxnxSJM2H2ungWz66VawIOK6pqdWFYDq3FYjOGe2nMr39MiP6CX7TzXdVtVCVHAEun/+ssuQjN79uxDfd+f5DjO+vr6+jdWrlyZUi/QzJkzT3Ec58PAYcAUYGIsFguGw+E6Y8xVCxcufLgrT6hifs0lGK7Cjx0LOCa9rFZirC2xmIlYznaMbyvnv7zQYv7mBwIPLjj3qHdSfh5/rBlJiO+1bOV8Y2xZGk+jBMMMYAaWT2L5VkV1TbXvOD9fcO7RC7I8iOQAc4BJwHrgZdd16wfoaykErgSuAqaEw2EX+Kzruou0+pKBThe7lYG6kRkC/A/wIeLXG9zfslyaZDIxkp/xFQPWAXe6rntXus9z1qxZlcaYXwGz2t38vrX2S6+++ur8Tl7fFGvtz4wxp3cy+WgkEhm5ZMmSulSfz1EPL5jg+N49ibplQivwwyGF22/pbFfi1PnLcgpN43UG+x2guEefgeVFHH5eu7TiEW40fprL1dnAN4GDgdB+mgRSeL5tdH4clk0Eo/td1/1Jms/vBOAe4NB2N28FPue67sPd+DzNA85P0iy/J3uYwuHwMOBJPnjpoRZgtuu6b2hNJwpYIr0fsG4DvtDLs53huu7iNJ7jRGAh+x87yTfGnLlw4cIn29945JFHlgUCge8D/0UKPczW2s+8+uqr96byfI5+qPZLxtofAAW9sGZZ7lvnmgVVRz+9710V82vC1jH/Z6ydmOFn8echhdsvTPWYsXA4XA5sAHJ7cZk63nXdF1J8fgcCiztYnqJApeu6rw6EgBUOh8cB/wAmd9DkGdd1T9GaTgYynUUoAzFc5QGX9sGsr0insbX2s3Q8MKVjrb2+/Q1Tp04tCgaD/wSuJcXd98aYj6cUrqprrzbW/qxXwhWA5VAH/18V1TVf3StcPVxTieHpXghXAOdsbxzy5LF/eSHVHrKqXg5XAJen0fbznSxPIeDrA+TzOxV4qZNwBVAZDofVASAKWCK9rA3oi2NOouk0NsYckaTJzHYbnVBeXt5D1trZaYa4ZSk2vbSP3qtbKqtfvgjgqIdfOQGff5J81y3AMmvMrw3258BPMfzEYn5soNpiUr+QsuHkWFvwuePn/yeV4/H6YvyqdAYlPaKb9/eHcDUH+A8wJknTza7rWkQGMB3kLgOO67o2HA7fA9zcy7O+N53G1tpCYzr9Ep6zOwbAb4BT0/6G5DgpHXdjsKkcp9WC5UUMzwAbDTZgrXEMNuDjBAw2YIw9yMeZZbAzSX7RYwBjMfdWVr881vr+d+m8B63OYm71bOBBd+7stZ0U1lQ8XDsNy3XAJUnXY4ZZEXLmAcl2OT2SCO5lvbhM/T6NtkO7eX9fh6vTgYdIrRf1Z1rTiQKWSN+ErB+Gw+EngbOBo9j/8YQfofNe2q2Am2RWbYlv3E9m4KBbD2DWrFlXkn4Pk2et/anruq+lFMTwf+gR+LDBtt8FFgMWAE/j8MyQ/O0vpTzGlbXmqD8vmB3wvc9YzAV03isVspgfJZniHW3B3G+/fvbM5D2Txtja+LFInzl6fu1NBvt7DCckedSHjp5f+7FX5lY83sky1RIOh8cDHwfO7CBAFgLHJZnXGuCtTu6PEd9F9rd0jukbyMLh8EWJLyihFJr/ynXdX2otJwOd9nFLNq/UW+n8mJqnXNc9LVPznzVr1nPGmBM7aVLvuu6QcDj8BvEhGPbbxlq7whizPPF7hbX27dzc3DdefvnltEYMP/qh2tmO9S+0xsSA54Kh2PMvfuK4hm7X+bGFBcHW2M3AF7u0TjH8pPa8yq91ef53LQwFh8R+CVydpOkb4+za6dVz53rdWKamAG8maXab67rXZWB5rgEqOmmyyXXdUV2cdsYOcg+Hw18Efp7isvFt13V/qLWXZAP1YIn0HX/27NmnW2v3DVcxY8w8Y8xPFyxY8HpPzeyV8yoWEj+rsUe5Z81uBr5UUV3zpMX8dZ9esmR+2p1wBeBePTuKtf9V8VDtJDoffuLwtYy7Arhbi16vfcn5AfDtFJrGgKtc1/29qibZQge5i/Qdz/f9L+1z26ue5x2+cOHCS3oyXPWG2qrKfxhrUz+TzXBbbVXlV3tk5sZYP+Z8GogkmefHtdj1SrBywuHw3SmGqybg4wpXooAlIj2l3Bjz4Xb//6a1tXXO66+/vmKgvqDaqopfAKmc2fh+o1/8tZ6c94ILjl5H/NiszgLWBC12GQ9XuUA18dHZk9kCnOy67pOqnChgiUhP2b2L3hjzmOu6Vy9btiwyoF+RMdYa81SyZhZz27K5UzPxWt0kMx6PtTr2NHPhqpj46OznpNB8FXCM67oLVDlRwBKRTFjT0tJyIeBnw4sx2KeTNGnwbOCujMzckmwk87xj5714gBa5jISrEcBzwMkpBuFjXNddqcqJApaIZMoNy5Yta8yWFxMwXrJdhHe7c2fvyNDstydr0JabO0SLXI+Hq4OBF9j7mpsdeQo4yXXdzaqcKGCJSKascV33gWx6QZ4NdDpSu4nZ2zM1b4Mdl6xNTiTSosWuR8PVNOBFYFIKze8HznRdt1GVk2ynYRpE+tYCsmTX4O6QY+0Q2/GQRxtqLpjzbqbmbR0zjiQXWGkL5TZrseuxcHUs8DdSG/3+R67rflNVk8FCPVgifchauzQLX1bHu+Asr2WwmAb4aJJWm9xzZ2/Qktcj4epjwD9TCFc+cK3ClQw26sES6ctvOI4zuAKWSXoQepcd/fArn8ByWJJmz2ip65FwdSnw2xS2IW3ARa7rPqyqiQKWiPSmvg1Y1pojH329ND/aMswPOMOsZ4biMMzx/aEW41lMozG2yWIajWObfM+py8mNrOrsEju+cQ421naQr2xGerBOf+KJ3G1NfDeFpv/UItftcPVl4FaSX/qmnvgAos+raqKAJSK9KTZ+/PiVCxcu7NWZHj2v9lDH8ausMefxUO0RQNA3DvhgjAUL1phdgWjPbx8c4xOLBKmortkIrABWGOxyYIW15q1YXXCFsbE5Hb5gG1zW06+nav78wJqmofcb7MwkTbfn25ZqLXbdClc/AlIZrf894DTXdZepaqKAJSK9zauurvZ6Y0ZHz68d7xj/IoupAjvddv8676MSP8fvnpaB4JBYjI6P7YzZOvNOT76uiodrKtf45o4UwhUYbn+u6mSdvdZ19wAXp9BuWSJcvaeSiQKWiGSlqvnzA2sZd7013Ggxub0wy87WKU5wSMytqK5ZC6wx2LUWs8ZasyaAt/blN+Zs4EbT6RmVpz/xRG59Y9mhvnFOwXIJPrNMstMG49Y7vn+blohuSSVc1SbCVb3KJQpYIpKVZs9fMHmt8f4AhFMMIZnmANMSP+zq+TLG4uNQMbU2RnXNemATgLHWWGMcLAaDA5Rsb+LgxN+k0QkXtdZUvTz3mO1aKjLuYGAE8eOvRBSwRCS7hOcvHBcwsWeA0QNsfXRQ4mf3cWDd3JsZs5grX5lb8bKWim77EfCNJG1GAk+Hw+HjXNddo5KJApaIZI05818a4pvYU10IV00Y1uKzFsNaIGiwwy1mBDCceM9E4QAqxTYcql45t+JZLRU94ntALvClJO3GJkLW8a7raswxUcASkezgG+ceYEqKzd+2mD/51pm3cO5Rb6cQ3vJNwI6I2eBwgx1hMcMd64/CMNZacyDxC/2W9HEJWoB7/ZjzowUXHL1OS0SP+kri/b0iSbuJwL/C4fCJrutuVdlEAUtEBrQ581+a5sPZKTRtAD5bW1U5L53pvzz3mBZgTeLnAyqqaxaTOMZqP94hvvsvkKGXX2+N+VWu33bb83NP2KKloee5rmvD4fBngWJgbpLmhwNPhcPhD7muu0PVk8FGl8oRySKeCXyH5EctLcEQTjdcJRW/VM0hHdy7s7aqcmJ+Y0uRb52Z1pqLgJuAB7G8CLwPaR2Jb4HVBvuIxdwIfDKYExv3ynkV31G4ynjI8omfUfhECs1nAY+Hw+FCVU4GG/VgiWSJY/784gjPs+clTSYBc8kr51Ss6On5HzVvwViC5Hdw95sAz11+civweuJnL6c/8UTulsbhBwcCXrn1jAkYz1jHGOsZY40x1jEm6MWMH3DaaOGN2osrd+pd77OQFQ2Hw+cBfwdOSNL8WODRcDh8puu6baqeKGCJyIDieYE5JOmVNti/1Z5TuShDa5NDO7k36bFQT55xRhvwtt7JAROyWsLh8JnEr+84O0nzDwPzw+Hwua7rxlQ9GQy0i1AkSxjsMcnaWMfcnKn5B6zXWcDarHcoK0NWA3Aa8dHbk/k48EA4HNZ2RxSwRGTgsJg5SRLYm7XnVtZkav6+cQ7rJPzpuKjsDVnbgI8QP4khmU8Bd4XDYaPKiQKWiAwUByRJYE0Zm/ON1nHwP9FJi216e7I6ZG0gvhtwfQrNrwR+rqqJApZI9irKqldjkh5TmbELSx81dcHJFjOuw2xnjc4iy/6QtZp4T1Yq4159MRwO36SqiQKWyMAUSXL/sKx6tZZQkvszdnCxwV6epMEwLY6DImTY29rzAAAITUlEQVS9CZwKpHKG53fC4fDXVDVRwBIZeJKduTY8y15vfZKQ42dipsf8+cURBntOkmYnaXEcNCHrVeBM4iPqJ/PjcDh8jaomClgiA8u7Se4vD4fDgWx5scbYZAewz6x4sKbHL2Pje86d0OH4V7uEj36o9pNaJAdNyHoeOIfkvcgAt4fD4UtVNVHAEsmegGWAqVnzai3JAlYRuXymJ2d59EO1F1hMKpfmwVj7PW60WucMnpD1d+Aikh/7Z4DfJQYuFVHAEsmCgAWQNd+cAzHvCYtJNlL2zXPmvzStR8LVvNpDjbW3p/GQ6RVTa/8ZfnjhAVo0B03Iegi4iuSXQQoAfwyHw6eraqKAJZIdAeuibNlN+OIFx71vsL9J0qzAN85jRz9UO7s786qorvmECdgFwJA0H/qhgO8tqnio5oyeeM3hxxYWVMyvOa/ioZp5FdU1T1RWv/x19ZL1u5B1L/ClFJqGgIfD4fBJqpooYIn0b6tTaDMKuCNbQpZj/f8BWpM0O8hY+1JFdc1XEhdoTj3Q3LUwdPRDtT8AHgG6dDyXwQ7H8nhFdc2yiuqa/654qGZSOo+ffv+iwsr5L59fUV1THWyNbcFQjeV84HSL+VHF1NpfatHvdyHrNuCGFJrmA4+Fw+EKVU0GOo2mK1krHA4HgTXA6BSa/xW4EVjSU9dKmzVr1nPGmBM7adLmum5eT7/uiodqLsbyQEorAGuXWmP+aK2Z98rcig4D6Zz5L02zxlzu41xssJ2dfekb7HVYPmuNOSKNNdFyY+06H2ejwW4ENmJoMb7NtcbkAsXAZOBw4BA6v45qa0tL/rDFl85oysAyNYXEhas7cZvrutdlYN41QGfBY5PruqO6OO15wPnJwo/ruq3dfA0/Bb6cQtM64CTXdRdrTSYDlS72LNn8rTkWDofvTgSnZD6e+GkOh8NLiB+YW5T4yQVWAb92XXdef3/dtedVPljxUM1ULN9I1jYRgn5ojP1hxfyaRRjeN8bWWWvqE70JQ4DxPkyP56BOD6WJGGMvqTlvzvxj//TCw7Fg8HlgQkpP2nKoxRy61/QtWNOl74ChIXnb9eWxf34mvxIOh0uIj+bemXLgz+FweLrrus2qnAxE2kUo2e4uUhv0cJeCRC/BMcRDxQRgDHAC8KdwOHzqQHjRtUsrvo3htrQeZJgBnG6tuRC4Brgc+ESiDsk0+Dhn1Jw3Zz7EjwcLON6HMEnHIsuEPz039+TGLFyWbTfv7+5jbQ+9jquB/0uh3USS96qJKGCJ9NE35o1AT+6uuTrlvGJMso18Q8Ze+I3Grz2v8jrgAsjgNQjjNhvHnrSg6uin29/40rnHriHCURYzv7cCiMHe12iLr8jgPLb2UJsu1TnJ/RsyOO0druu29dBn0gcuAR5Pofl4rcVEAUuk/4ase4H7emhyZ6RxQPySJPe/lunXXltVOQ/DzETIsT08+Shwb8Dxjq45d86r+53/hZWbXqmqON8Y+3FgZeaiFS861q+sqZrz6WVzp0YyuCxtBTZ2833vqqVJ7l+YwWkv7uE6RoHzgH/3US1FFLBEesjlwM09MJ3XXddN6aLJgUDgbmBHR+HE9/0f9MYLrz2vcsUrVRXne4HAdGAe0N1jWpqA/8VhQm1V5WdeOvfYNckeUHPenMdqqyonOfjHAnfQc7087xhjz6+dW3ncy3OPeaWXlqXOLlJcQ2o9M11xO/GDv/enPsnzSuaPxI8z7ChIfz0DYbUVOAtY0ElgfFSrLhmodCCoDCrhcPh44BagsgsPbwGucF33T6k+YNasWccbY+4kfvbb7lAAfMF13cf7ogYn3ftsXktx/oeMtWdZzDHEz8or6OQhrVheMca+YKx93sn1X3zxE8d1a/dm+K6FoZzyyCkWE7bGTAEOI36WYFGSh74NvIjhRc8PvLhw7lFv98EyZIBvAN/a5/k+Anzedd33Mzjv44C7E/XaZSlwpeu6td2c9lTgN/t8NtYC/+W67hMZfE0lwP3Ej/fb5d/ARa7rrtdaSxSwRAZW0DoSmEb8AO5piZ/2wznEEoGqGVhOfHfeL1zXXZXuvKqqqgLvvvvuFM/zJhhj3i0uLn7zueeei/WnesyZ/9IY4BCPQJE1pjVIrMU6ppUoLQ1OyapM7nbbzVpz1LwFY4OB2AGeE/ADeJ7nBHwfxwtGYp6f42x+5ZyKbf1oGSpOLDclwDLXddf10nwDiYA1nvhYb2+m2quaYng8FJgErAfe6Kljr1KY7+HAlMQXkEWJY7VERERERERERERERERERERERERERERERERERERERERERERERERERERERERERERERERERERERERERERERERERERERERERERERERERERERERERERERERERERERERERERERERERERERERERERERERERERERERERERERERERERERERERERERERERERERERERERERERERERERERERERERERERERERERERERERERERERERERERERERERERERERERERERERERERERERERERERERERERERERERERERERERERERERERERERERERERERERERERERERERERERERERERERERERERERERERERERERERERERERERERERERERERERERERERERERERERERERERERERERERERERERERERERERERERERERERERERERERERERERERERERERERERERERERERERERERERERERERERERERERERERERERERERERERERERERERERERERERERERERERERERERERERERERERERERERETk/7cHBwQAAAAAQv6/bkgAAAAAAAAAAAAAYCF0bEkh90PvtAAAAABJRU5ErkJggg==;" parent="1" vertex="1">
          <mxGeometry x="134.99" y="460" width="38" height="38" as="geometry" />
        </mxCell>
        <mxCell id="qfzlSMDLd1hETzHLxcoC-31" value="Central MySql database" style="text;html=1;align=center;verticalAlign=middle;resizable=0;points=[];autosize=1;strokeColor=none;fillColor=none;" parent="1" vertex="1">
          <mxGeometry x="343" y="180" width="150" height="30" as="geometry" />
        </mxCell>
        <mxCell id="ocC6ctCUgFMbPHnCsPzQ-1" value="" style="outlineConnect=0;dashed=0;verticalLabelPosition=bottom;verticalAlign=top;align=center;html=1;shape=mxgraph.aws3.redis;fillColor=#2E73B8;gradientColor=none;" vertex="1" parent="1">
          <mxGeometry x="250" y="215" width="38.1" height="40" as="geometry" />
        </mxCell>
        <mxCell id="ocC6ctCUgFMbPHnCsPzQ-2" value="Redis cache" style="text;html=1;align=center;verticalAlign=middle;resizable=0;points=[];autosize=1;strokeColor=none;fillColor=none;" vertex="1" parent="1">
          <mxGeometry x="224.05" y="185" width="90" height="30" as="geometry" />
        </mxCell>
        <mxCell id="ocC6ctCUgFMbPHnCsPzQ-17" style="edgeStyle=orthogonalEdgeStyle;rounded=0;orthogonalLoop=1;jettySize=auto;html=1;entryX=-0.004;entryY=0.828;entryDx=0;entryDy=0;entryPerimeter=0;startArrow=classic;startFill=1;" edge="1" parent="1" source="ocC6ctCUgFMbPHnCsPzQ-15" target="qfzlSMDLd1hETzHLxcoC-3">
          <mxGeometry relative="1" as="geometry" />
        </mxCell>
        <mxCell id="ocC6ctCUgFMbPHnCsPzQ-15" value="" style="whiteSpace=wrap;html=1;aspect=fixed;" vertex="1" parent="1">
          <mxGeometry x="-30" y="390" width="70" height="70" as="geometry" />
        </mxCell>
        <mxCell id="ocC6ctCUgFMbPHnCsPzQ-8" value="" style="shape=image;verticalLabelPosition=bottom;labelBackgroundColor=default;verticalAlign=top;aspect=fixed;imageAspect=0;image=data:image/png,iVBORw0KGgoAAAANSUhEUgAAAeAAAAHgCAYAAAB91L6VAAAAAXNSR0IArs4c6QAAAAlwSFlzAAALEwAACxMBAJqcGAAAAVlpVFh0WE1MOmNvbS5hZG9iZS54bXAAAAAAADx4OnhtcG1ldGEgeG1sbnM6eD0iYWRvYmU6bnM6bWV0YS8iIHg6eG1wdGs9IlhNUCBDb3JlIDUuNC4wIj4KICAgPHJkZjpSREYgeG1sbnM6cmRmPSJodHRwOi8vd3d3LnczLm9yZy8xOTk5LzAyLzIyLXJkZi1zeW50YXgtbnMjIj4KICAgICAgPHJkZjpEZXNjcmlwdGlvbiByZGY6YWJvdXQ9IiIKICAgICAgICAgICAgeG1sbnM6dGlmZj0iaHR0cDovL25zLmFkb2JlLmNvbS90aWZmLzEuMC8iPgogICAgICAgICA8dGlmZjpPcmllbnRhdGlvbj4xPC90aWZmOk9yaWVudGF0aW9uPgogICAgICA8L3JkZjpEZXNjcmlwdGlvbj4KICAgPC9yZGY6UkRGPgo8L3g6eG1wbWV0YT4KTMInWQAAQABJREFUeAHsnQmAXUWV/uu+rfcEEiIQQREBlei4gWAg6QRBEWVTE3FDcUZAR9xFhSwvJIC47w7RQVFnFKLDn1FBBUy6ExhUUFySUUHUEQMYtiy9veXe//eduvX6daffvvR7nVNJv+W+W3WrflV1TtWpzRh1SkAJKAEloASUgBJQAkpACSgBJaAElIASUAJKQAkoASWgBJSAElACSkAJKAEloASUgBJQAkpACSgBJaAElIASUAJKQAkoASWgBJSAElACSkAJKAEloASUgBJQAkpACSgBJaAElIASUAJKQAkoASWgBJSAElACSkAJKAEloASUgBJQAkpACSgBJaAElIASUAJKQAkoASWgBJSAElACSkAJKAEloASUgBJQAkpACSgBJaAElIASUAJKQAkoASWgBJSAElACSkAJKAEloASUgBJQAkpACSgBJaAElIASUAJKQAkoASWgBJSAElACSkAJKAEloASUgBJQAkpACSgBJaAElIASUAJKQAkoASWgBJSAElACSkAJKAEloASUgBJQAkpACSgBJaAElIASUAJKQAkoASWgBJSAElACSkAJKAEloASUgBJQAkpACSgBJaAElIASUAJKQAkoASWgBJSAElACSkAJKAEloASUgBJQAkpACSgBJaAElIASUAJKQAkoASWgBJSAElACSkAJKAEloASUgBJQAkpACSgBJaAElIASUAJKQAkoASWgBJSAElACSkAJKAEloASUgBJQAkpACSgBJaAElIASUAJKQAkoASWgBJSAElACSkAJKAEloASUgBJQAkpACSgBJaAElIASUAJKQAkoASWgBJSAElACSkAJKAEloASUgBJQAkpACSgBJaAElIASUAJKQAkoASWgBJSAElACSkAJKAEloASUgBJQAkpACSgBJaAElIASUAJKQAkoASWgBJSAElACSkAJKAEloASUgBJQAkpACSgBJaAElIASUAJKQAkoASWgBJSAElACSkAJKAEloASUgBJQAkpACSgBJaAElIASUAJKQAkoASWgBJSAElACSkAJKAEloASUgBJQAkpACSgBJaAElIASUAJKQAkoASWgBJSAElACSkAJKAEloASUgBJQAkpACSgBJaAElIASUAJKQAkoASWgBJSAElACSkAJKAEloASUgBJQAkpACSgBJaAElIASUAJKQAkoASWgBJSAElACSkAJKAEloASUgBJQAkpACSgBJaAElIASUAJKQAkoASWgBJSAElACSkAJKAEloASUgBJQAkpACSgBJaAElIASUAJKQAkoASWgBJSAElACSkAJKAEloASUgBJQAkpACSgBJaAElIASUAJKQAkoASWgBJSAElACSkAJKAEloASUgBJQAkpACSgBJaAElIASUAJKQAkoASWgBJSAElACSkAJKAEloASUgBJQAkpACSgBJaAElIASUAJKQAkoASWgBJSAElACSkAJKAEloASUgBJQAkpACSgBJaAElIASUAJKQAkoASWgBJSAElACSkAJKAEloASUgBJQAkpACSgBJaAElIASUAJKQAkoASWgBJSAElACSkAJKAEloASUgBJQAkpACSgBJaAElIASUAJKQAkoASWgBJSAElACSkAJKAEloASUgBJQAkpACSgBJaAElIASUAJKQAkoASWgBJSAElACSkAJKAEloASUgBJQAkpACSgBJaAElIASUAJKQAkoASWgBJSAElACSkAJKAEloASUgBJQAkpACSgBJaAElIASUAJKQAkoASWgBJSAElACSkAJKAEloASUgBJQAkpACSgBJaAElIASUAJKQAkoASWgBJSAElACSkAJKAEloASUgBJQAkpACSgBJaAElIASUAJKQAkoASWgBJSAElACSkAJKAEloASUgBJQAkpACSgBJaAElIASUAJKQAkoASWgBJSAElACSkAJKAEloASUgBJQAkpACSgBJaAElIASUAJKQAkoASWgBJSAElACSkAJKAEloASUgBJQAkpACSgBJaAElIASUAJKQAkoASWgBJSAElACSkAJKAEloASUgBJQAkpACSgBJaAElIASUAJKQAkoASWgBJSAElACSkAJKAEloASUgBJQAkpACSgBJaAElIASUAJKQAkoASWgBJSAElACSkAJKAEloASUgBJQAkpACSgBJaAElIASUAJKQAkoASWgBJSAElACSkAJKAEloASUgBJQAkpACSgBJaAElIASUAJKQAkoASWgBJSAElACSkAJKAEloASUgBJQAkpACSgBJaAElIASUAJKQAkoASWgBJSAElACSkAJKAEloASUgBJQAkpACSgBJaAElIASUAJKQAkoASWgBJSAElACSkAJKAEloASUgBJQAkpACSgBJaAElIASUAJKQAkoASWgBJSAElACSkAJKAEloASUgBJQAkpACSgBJaAElIASUAJKQAkoASWgBJSAElACSkAJKAEloASUgBJQAkpACSgBJaAElIASUAJKQAkoASWgBJSAElACSkAJKAEloASUgBJQAkpACSgBJaAElIASUAJKQAkoASWgBJSAElACSkAJKAEloASUgBJQAkpACSgBJaAElIASUAJKQAkoASWgBJSAElACSkAJKAEloASUgBJQAkpACSgBJaAElIASUAJKQAkoASWgBJSAElACSkAJKAEloASUgBJQAkpACSgBJaAElIASUAJKQAkoASWgBJSAElACSkAJKAEloASUgBJQAkpACSgBJaAElIASUAJKQAkoASWgBJSAElACSkAJKAEloASUgBJQAkpACSgBJaAE2otAEARe+BfBe8V/119/fTT057VXyjW2SkAJKIHSBJx8zJN1FcvJZDJJPyojQ9z7LAgWhP7+/khfX5+3e/fuYGBgwMc1v3QxLH4Hw+Ud9Qir+JP0VyWgBJRAcwjUU64xrEbI3uaQ0KfURGDjxo2xu+66K15TIGV41lZeGZD0FiWgBFqeQDNkGWUyZXPLw6hzBPeZHjDNJvPmzfOWLl2acQy3bt2aeOyxxw5BATsUVucnRyLBAbCOzDbG7/Lg3H2l3mm99vAf4URx7x2LFy/+f/TDggsXlPKvvysBJaAEWpFAvgwbHBw8C3FcCJmWdTKv3DgjHMjByAjedhnj7fA8/+8I529z5sx5YMGCBSkXDpXwjh07guXLl2fdtZn8XraSaWMIHlpXsWOOOSbNNFARH3jggcehMJyEAvDiIPCPhqo9OB5PdMTjcRONRg2uV5xc3/dNItFhHnvsUShe75z+/hOvQ2GLsrBWHJh6UAJKQAm0AAEnwzBEt9zzItfNnTvXjI2NmUhERtoqiiF1cDabNel0mn9j+P4glPH/Iqg70ulg4yOPPHSnU7zsEUNms7M0ozswM7rLT2XLEuKU76ZNm89GL/fNyPSTenp6+6LRiMlkMlIgwndmNseBq8l0+NljZs+eHd+5c9epCOM6Kl8UMrxpLxg81CkBJdBGBELZJR0IKN9TZ82abR599FHpyCAZlfdSrJ8IBSI6O+zwHBaLxQ5D5+Xle/bs2X3QQfN/unnz5msXLVp0A2U2nh/ZsGFDxCnlNkJXdlRnrAKmKcOZm9F6e77nRS+FXn0VCpHHFtzQ0B4qWrawaDqWQhF+Zq+1bIB5N1LTBmzdweXM3Hm/60cloASUQJsS8LKZTJrWQa72oICsWEjCH/3jLfBTqRRlpevsxBKJRF9nZ+eZu3btOmNgYPMN8Xh0He79FWHly/I2hVcw2pXbEQoG1To/XH31XfFx5bvlArTefjxrVt+r0drykMEpKGBqSRagBP7iLFR4Jwt8rLhcwZt1LJjWf82TqV2Q+q4ElIASaAECvgzNUcZVFxlRvvRK/+zwUOZyMixlsAeFnKZspoyePXvWqzKZ7I8HB7dciN8MZXkzJs7yWc12M04BM6MuuOCYNKe6Y9LApxOJ2L91dXXNQ+amYWZmz1SULt6rLEils4h6uPRdeocSUAJKoD0I1C7TiopE/ijKmDKaspoyO5GIfxkm6c9A6Udokp6JSnhGKeBw4D590003dZx00snX9vb2vYeTo0ZGRjjLjub2GDKzPUq8xlIJKAEl0CIE0GNtuOAMRbPIacpsTtjCXJ13oyf8TZihO2eiEp4xCpjjBMwgLi2C4v1aX1/vGzGwz1l3NDeLmYPK15qIG1OqXSF17415ioaqBJSAEph5BGg3DDtI7BEnKLspw2GSfn00GvsaZTtlPGX9TEn9jFDA+YP0jz76+Gexu9XrsLsV84gm59ymG41UvnwYCo/YWdw7r6lTAkpACbQ7gWbJtEkymrKbJukAMv2cxx57/HPkyDHhmaKE214Bc6zXTbiCqeK9XV2dF7LVxIzDH0zO/Nhcpz3g5vLWpykBJdBYAtMh0/JM0lnKdMySvgAzpN/PlFLmu+0xG5vyxobe9gqYe4oSESZcnYA+6GUc80VrzY35wuTcWID5obOQ+v40aPz8SOhnJaAElEADCFC2NlMR58ludqRSfD5k/Bor641xsr8BSW1akG2tgJ3p+d577+1AwViNTTB6scRoDPQ45luJJsS9AXvMKYRD5c1xY36v+C8el+GJnNkbYahTAkpACbQ5AR/7ZsTZueHGHBXLRfhJh7KV8pX+K5XPCcr2/fbbrwcLWJKQ/Z0zwRTdtoPZ4ZiE7NLy978/9Pru7s5Tdu7ciXy1Y77lzLdCgZDNOBBWHNtIxljAqtlijQ9l6wyLyc3w8DAL6R28xp248AzdipIw1CkBJdBWBCC7AsqwcCeq20dHR9+8//77x7FmtyY5yc2KuBEHYLDDw5UpRTuCebIcuwzupCn65JGR0dfD/zVLlixp690G21YBb9q0KcoW0J133jkrlcq8HQu4WbjZc2XvkytxixqfkelUjJHe3t4EPmNnrKFRrAV/AF4fxvXH8TeClpaP3wqGwwKK++CoxyPcXQuRiGzy/cw1vLpt27ZKWnn0oq4aAknOitxRtBIXDnaeb5JLWRb2jbyqnRV7L+r2EQJOhmFG8tdSqbEO/C2BjEMZsDKPGErLSFGwXbh1f8jUA+HjkJ6enk7IzwTGdlnvWKZEgON9Lxeaonkf63gash6bJ5l33HLLLd9DGDvDCVltWS4LKpe9KLTQBZfhVIBbtmx5LfLjO2yV4Ts6oj4yCdq3eMoyyETp8WK92W9w7w3wx17rvTiM4ZHt27cP17r/KCcI4I+lVF3DCKBxlERmJ8WSUf1T2MhaswbhzOT8Iqs6pHEZ9lffsJzlet9osFRfqmaMz3rIMvak58+f3w1FfgDAHAlL40LI8bO7urr/iT3icJOkgkoYfSS4gD1vdooitDaOjqZev2TJom/n64N2g15cTbVoavLMIgY7pfwX1v2ejanqGShgbm9WKk0ZmJpjyHS0mLwr0ZL7PI4P3FGvpLJwMCw2BuoVpoYzFQFaJkILRPJHc0y64ygTx7kqMEgZv0TzK5J3T9y/Hz3gh+QJaDTNSCXMBoaz1nzkZ3NNbOQog8GRslkZNGp9DKXEze/B6gmbG3n8p8oevTajCDRCrmEy1TxAugi18SNQqKFMLtwTDoEiKkF21qxZsd27d90I2c0jEmW4r9ZOUxh+U98KtjiaGosqH4YMPBqZtwRjE1R42OWbb4UDY8ax58sWF+59D44M/CLvxnUPp27EDz/88ADrhwOeR8nry5YtC3C9YIju9/x3Vbwk12iXJ/xXDJwBA9Za6OKnmix7ZaKXxxWOG0JwCki+Q3E7g3U28ohZseljZt2Sr4jynXFKOE/5rho80/gj68Do0IKsyMkpbMfKoF0bQThZ736zYuDDZl3/T2wO5+VDo7Ncw59WAk6uQVbyhCIvX+aVIyMZeZ7HjvW83v3330//nJTFjs8qdKIegkz+AjbbiOHAhyyu48AHdmL2TjJlNR1lPu7phwV0wYknnrh17zvb48oUSWztiDMDGEPkQTCIzbo7Ozu+jMwQhcnLRWLPHqnX3d3tDQ0NX9Pfv+ifeS9nUB9xxBGcDODCKBKE/tQSBKwZNGuSG48w2chm0zvnIDOKtd9SY4sVgUmx9zH029lrzNDjKRP4LzPrlm5CmDH08tpyPGlS6uzX8++Km/U4C3vFbU83XuxWM2veYWYIndgIjUXlOlQNSsTOPpy4+ej9xo8vNpcv/LtJwtpTq/m/3CjofTOKAOX4fffdlzjyyCO5agXLSLd8pbu7618wiZVymH+uicyfJzjIapmbg/2iIctH/hVm6C/l64UJN7f4l4KJbOF4g79TlsFidGjZgy1m7mVm0vkdHR3IsKFH8fEzvMA9o1kAxsPjVXWtTQANsAXLbJ5mIv9kYomDzJ7HfJPG8rM0TrlKjeK07xJ/7p5sOiXKt7MPy9Yix0m6OSErbOS1NodyY3d3eGNsARooh5ndjxiTTY8II8ehGC+5B1wzqVHhHEscbrzMseNPtw3i8e/6SQmUJkCZS9lLGcy7MXj0GcjmRyij8dXJcye7JwRIZUuZj/k69LeIP4YyvILW94Qgp+1LOypggXXHHXfMQSY8zx5wVJQ7f5QWFZU1MuqnWMD9Wwby8pe/nGvS1LUzAW717aEaGo9rv+OwgXAWfPG/8Xvgx4sZ9oTt/AGSCGRCFj/NBDf/KCvEcAAcGhZZsGKqKPQqYxXAj4deCVlFAhGaMwGPpmF6CTgZTDMyjo29jTIajoWU5baoYLey3zz31ltvnUtP7ejaTgG78QbMpnsagD+FmQDRwowqllk+Zs9FOFMa+bqRGcWp69rzJYk2dpxMZRUKc98qmkqSg9FOuZ2ma/e5Ev/tdC+MdkgjGypIK+3JFboJfItanCoMWG/flwlQBofLiNib3RiuMaZecr3gqfDAm8eZ0/ztKdFo59P4wekGfm4X11aTsGh6AFgRHr7vHYHJzD1QxAVZU8xQttIPzRUY6B/CcqN7CnrQH9qMgBvHrFyfSEKlbIR+Pd+WlDYjUF10a0kq/Op519VhV19FCWBu7K99Pz2EVSo9kNNSMfNk+GS/HmU/eszYGSt9BH68ixPDqCOo1Cff3Krf264HDJACF+Pwh3PnKmRUQbbSsWHDH5lCBYz3Hdls4v/owc10LuhZf1ACSkAJKIGGE3CyGOKcsvkfoazmOK/rQE0ZB/weUAfAHR7e0DaK1yWo7RSwa91Apx4Cq7IszKY5opDj/fwd4wu4xXtkePhR7nIlS4wK+dHr7UagcP6XTkktfkuHrncoASVQnAB7rrwD8vxx6NRHKNetzC7ckw1lfsB74fMQ+qes53s7ubZSwGu4W1HooFOfxI9sJeEvd939PvmdOhp/T5x++unD/A1hTb5FvyuBfYNAydqyb2DQVLYGASeLFy5cyO1/sUaudAGdJPNFFzA1+TqiNVJXPBZtpYBdUkL4+1H5wpXT6kHjiJNAA1G+9LR69epy/PFWdUpgZhHQkj+z8rPNU5MviyGnh9lZgiuthaX/xcIcUBeUc78E3EovbamAb775Zh6ggMH3Sp2eTFQpMb1/BhJoS1E1A/NBk7QXAcj1wpN69rrbXkA/rIebehT4uaUvt5UCRktJYEajT8YSItOBzKoILoeDK/KgNysBJaAElEDTCECuVySjqQPgJ/HAAw/IbCynI5oW4Rof1FYK2KU1kXiMmVRRRtFvOw7SuzTruxJoDQJo9HLXdXVKoAEEoEyrKFvt27FqSwXMfFcR0IDSr0EqgVIEICGhgdtWbpRKnv4+vQTQo624Y9XOuqBtK5LIgektK/p0JdCeBKroY4wnFPIx8MXcN35NPykBJVANgbZVwNUkVv0oASVQDwJuB7J6hKVhKIF9l4Aq4H037zXl+yqBio18k0EV3v518p36XQlUQmBfm6ejCriS0qH3KgEloASUQMMIVDMG3M7DkaqAG1aUNGAloASUgBJQAoUJqAIuzEZ/UQJKYEoCOgY8JRa9OA0Eah5PmYY4jz9SFfA4C/2kBJSAElAC00hAx4CnEb4+WgkogSYQqGkZEuMXbhe4dQO6H+13Ak0TCOsjqiRQ7hjw+H01F+YqY1ofb7H6BKOhtD4BLHBPcvewTRGzva+E3eZuY+YfhZK9xIcfvKuQrVv+JpPgfzBsuC+sPcj5L8yapFfx3rmV7yHHqKLI+NjyIB73jJ8+Khf5i27qMGN/QxxqSA+97n+/b5Yvb73p1dwYYvmGiFkwzyur3px8vm+2oc5UU2+WXR81+x9enVXycfDb0IL8cgWlvh/ye8rtvBGHKuD6lovWCS1fcBy9JDDLcRCFCAVTucC+PoiabZs8s3VHYK5f5mNPz/Zudk5XLlHAJkVIVp4HheLMMJsieKGIoHqNn4lCvbzVrBy40azt/xWiVT+lmQwiVTUoCrGp5vqEeoPy7skBLlmzoczA1l8wfmNyYyhfSzZkPbPs+kiYj9XztPxYN7V+judCS39SBdzS2VNh5JzwWLYMHZYpBEdya8KkH5pnIokDjJedY3yvD0K1E10btLojPqrtqIlFdpls+nETTexAt+QRk1yQEuXtosK+MxXyBkgkVcaOSul3CuPk0ozcmBz8J+P7c00kPJ0rmy1hkcgL3o8GJgr+kWA3rt4jYbJXnUzWT6nnPS7vI+MYMZm0b+Idh5r02PfMys1fQDn6lckiHREuBrHJy/NT/CPTIv5wW6bjd1C+j4Ye+KzmKZFcvcFTp6w3G1FHug4w2bF5iNX+JpLtA4qECZDmgBaI7Kjx4jvh+zET9VBvFqLe4LrLb0kUGjDSkEUIq/GXa8TiOi1MbEQl75xlsqnnmCAbNwHqY6REuSA/D3U3APi4IT+cpUsXhmm/zPjXdl6GpAq4/YsnTMtJ9E6PRg9lktL9yOA8E80+F9dfgEq+wPiPHm6isYNQwfdHHe2G8uURXjCHhlYvD72ZjJ8yXnTIZLNPGO/Rh9DTuR/3/g63/BIC4dcQKo/kFDLFJHtgC7bB5JbUlnehsnT+XXGTPCZtLrn1QBOJf9Zkg5cjP2KgHSqZKEmW5yhu6SsreTZoVgy82yT77zXXIx/KNeHSf/lPzI8XfMFzOgUl3Pk0bMj+SZSXUZQN9Noo9CucHc202F3d4yY+eq9ZOXihWbv4drkkp+I00tKC+CZBgePYk+tN8ifzjZ94LhqoqDfBAjQwDjNm7ECA2A8+ukwQRb3hftgIQw6miCD92TH8PgQbwWMmGNyOenMfGra/xX13m7HY78zHvN1mOTnBreaz0dvnszeEQwgrNp8MPf4J3H8kgoZi5Y0lyoXwQzRgj0U+3G9WDb7HXLb4NlyAX+ZHI/kxfq3i2jedbayA2xd63Yqtq8TWrGmDveTOA0107CX48jL8HQfl+jT0WBImEmY1589w0MS9izR3MfKiqMxdEAD8Qy/ZOwK/nAizI4TuWAqC6M8QLD9Dvf6RyWR+aq44+WFpudM8J4p4GRRxFWOS7vEz8f1qKN8LoHyldzP2TdOz3ykmNWLzYEJ6RWjiikjeCb+Mf6HmDB3zsGe/l5tdO4bRs3qtNIrYw+JQQ2MdIohnp0czKCMxE0ugdzg57oynS0f+ZxcxXstzTEv3rGeb3Y9+2ly85SUod7tFQSUnFM48DzV+lLKKsPPLavKWp5hs4mRE+6VQk8eijjzVJDphaQgbFa6+uPfxqCGhaEyRhef14P1JeH8mGJ0ESxJ69ukh05m9Fw2l29Hbv9mMRgYlfYTI+rsB7ysGoHT9fze9c59iRnYhuLBBPCGZ+Twn/ICQUKe755Dfl01y40loJD9grkdryCn8Sbe38tf8sd1y44niE4lzbkIburZUwISdzaLw7quOJsej0ePNF7YrNx2Liv0GE6ReCaHxdPRQbMXMQnlmUmiMj0HKoaaK6WsqoTgFTJrmKA1oJozGE+g9PwNfnwHhey6q95/Q4v5v9JT/01y+9K6cIhYz2xr2iBttEp0iwi12iT1fKl9OVMqOfd109Z1ihnayBYRMcWaHauPspczI7m747jf3bF6A99+Yx+9mnSitgGsXVQwhhuIEi0lqkjbFL+U7VxCzZs9jHfB2jOnIPA/vm8Mg+Jxawg+DCd9cg5XmXjYa6VYO9kPpvgFWiVNRxg9FgwJ1BQjZ6MygUxugTxv4eSZj663EK+MdQV3xEF4P6uPzUO+eZ8aG34H0/cas2PQ9E4tehwbAHyUczzvBdPY8BQo0i/uYf8hHh6bok9xNvtn9WAx1/kgzNvJi+NhgtqEO7iO9YCjtaGdnZ1vqg7ZUwOl0OhqJxCTubDy38xhA0eo11Y/5Y4n8PbnlRJPN/Cvq7Bkm0d0twoMKd2w4X3CEAgE9XHH8WoYjWBo8gyCL1jxGmlIwuUGoeFDK8a6nQ7C814wNnS8Tckz2S2btSbfnGgWT41nG42bULVS+66F86fbrWW86e882w7tpWmTDhKb/6h3zhTOSWfgprDkmXIlzYrsSP1PfW9lzpw6DZQyWF/kRY6rB7PHb6hdR9AxjUHhs+Fi3YuOpKMeoN1C8iZ6YVbjIrsn1Br0rKe/OX1nvYp2D6vZRB9FAYa57CCcCk3IMpm3jPdekht8FRfxtEws+hiZTp9RbmpJzZcMCKetxeACcLQ8RWLDokqv5XDxKvs3oF1Dzdu/e3ZYpbUsFnM1mRQFjLRgKFssdSm5b4q+gXrA3umYTZtGGE3lWDDwLlesDJuu/0XT2YXLVqBUeoVSWZglahrknVMuHosMN7lnIVOxZk8LzSD0a60HL+/VmdM9rYEr7JuLzCXPl0t9LPCn0Vi9hq14kRC4uM/3D+VePK9+VA583HT3ngg9STVshzJW1SkYWfB5c3oEOcGbsTvPE0DZB+iAUfDmu2rJQTtjV3MO0oJCI10i8dA++kmfQWmT6I7l6k9xyDBqsH0K75TXodRoZDhgbQpnGP8ZgssKdwIp4J1woEBNajnCju9W+YwZ51rfDD1DGcUyEjHdcBCvGWbh3u9Rf6fmShVieCoQ9xeUA9YtPk+fsG0NAbh0wqwL+4t3d3eOybgpErXqprRTwhg1c+I8mIhzeaLKCQ7mTCmyLn702w145ZrUGFZPKlzOZszveiRR+2HTNmoceqIFwZ8sebESIhQWxPFlcOanQ9O+ESjaD3vEeiC1MTOno+WeMYZ1uVm680jzc90WZeGRwfxICJX+8rfKHto8P2/O3Pd+Vg5djHPGd6O0w/hgzpfKls/Ds54pfqazSUB4JM/TEn9AA+pD5/GljtocXNs5KBVmuHikVTr1/Jxa/xMzfSp5px8RpcciYD90y23R0vB9zF95numf3SIPI1htOZaLysibMollT9MdSMXMmUjwNCpMT2WhRinUciu+HokFrY2HrcamwCv/u+zVFsnDArfcL2/+hAu6AVVT0gdMRrRfbqWPUVgrYJSEajXZns34XLTxUOWwNzdgusDPlcswqufHZUL4fNx29p4rJbGQXBT0rNpUuSeCtmS43Dg9zWzZrRnZio4auJ5lI5NPmwKFTTHLwg1C8tnfm0tHM6DX7WVbgWzPnqoEPwdx4iYy/BxxQdMq31khB+SY6E1AgOzDc+2aTXPw7mQDnLCPlBL8viGiWt+WhyXnlT0/AzP5PYBjgeEwmNGgkst6wzth601werKe2t8ped2aMPf7xBkA5+VfsnghmULexE9tOBfGnAga+rnQ6wvkQbedcq6ytIj425u+HCPfY1g/wS8evrZJQXmTzldbKAcxpjPzEdO93qhkdQgt6jEKEDahQ+ZYXZIPuoghDPGDyTo+mMY4WoJdxGia23GJWbHyNPFN67xCKM9XRSuEmxa0afDtQfFTG9XxOha2T8kWuw3SZgBlzBIaFt8qYO5/L9diVuLYW0WUkVJZ9hdYALm0y0ZtN56zjYe7lpDE2kOL4o+xrruqdHHWrhll/6yeH21wYQp+WVZZdMqkDIP6hfMeoE9rO1S/jm5D0ZdxgAi4a9bkmr9f1gOViGS/IrPqOL5XxzKpv4Tii69Ws3HQJwrkOY34Hm+GdWKcrXV0KkekVIHsnjvFhvAKJZ0f3fEzauh5jwxhzg2N6KBxnmpPlJKESXDXwBkyQ+iJM8jB8ZthIqld60yYWj0sPzjNvN+sW/QCmH88swNKvSsfYW63U1LM8uMlvbJis2PQpMPsy5ij0odebQqmkvJupjUA0q5CxgR+Wt/bMZChW1pmyHXUAXC+sotQJxukIfm4H104K2IN93zF9GoaBvRC+u1bw3bWW0NDEzKE2cCJELrAFcdXAZ0yi63IskeAkK0xvlhm0rZ5vjF9C4hvD+rxE50dFGBI9ZwbPJCVMJSgO43orBs6AkP+KSXRgY4Q0G0rItLp0NzNQ6HE73oKJd5f1XyuP5B7F+8rYuoVc/NUp3w/8uMc888BvYNnXe3Nr2FkebY+zeBjt/CtLYtun0Q8VcHkNCOoA6gK4w5h1oY4ozzM9TLNrdUGew0NTA1o30tzB5N4FMaxCwjUZAMjdNMUHZAxvCzPE51TU1nY0O7vlKys2rccSiXdjwgZ6U2kWzNqWrzQ/5Qn0ArGBB+Lf2fteLFf6okSB6WM6296hXG1Ar4pKcNWmpRB+16Kx1IX8QoID5FXJ4lmaAK02nLwVwxyTbPpKs67/k+KJ/JqyB3TpKLbEHfnKt7vzm5igyJn5mNRFgc68mOnOibi2T+duK9ZlXk+p1qsI91gMO3cGwbOZ8uXLl2OBXilvrcOobRQwkLGVE2zcyH1ZA2wRJ44KuWhrJ8wM6S3D/yP0lZSlCeK/tV7yx3xXDXwBLfi3yQzaAEJEelOtFd3yYgPhRyHImcAdPe8w7NHTtf+YsGeSm+y476WDL8K8mv/AEMF+2AghT+AXLZrl4MOQCdZcd3C5zPB6bDN4iWUH5euGJ8oJZfI97SOfJsd86u+u0Zq8PmG6Or6O8d6zMd5L2eDGe2daiqfm0MZXx2Vy5BEns8tQpNwIFPks2fsCqxvq0eptHsi2UcCbNm2SuGIXrOchY56dTstkU5JnK6goMShebNiEjXeDYDtvPJq7SLWa4ziiE6qrBpIm3v2vMOGibHEGbd3GEacr1WyiQgmPICVd74Y5eqVEhOnlWF07uvPvskowOXg0Dkb4Nnr4B5vRYTaU6tWzF2uP6cbRkaN7vmei/r8Kpvy5AdVya73SX21K7MEgrt5kDvyc6Zr9GjO8C/OLsXuVHe8VGVH9A9rFJ6187Zux4zLZ305ZTZkNV1CwhzKftwVYgoRbvQWRSEQ6Zk5XtEPOtY0CXrJkiQgk6Nozsei6J02zbDh7MMysQrwDZIxJpVKB70f+4m6Cn4KZ6+5p3rszkeOJKze+BclaLfvIivmsTjNom5eYQk+KS0+YW2NGopdhC8A3yo2cRJQbIijktcWuO3Pnpbc/FTO9v4ONUA6HkqQUoPKtXQpyeQqMp7CARNGT22iiHW/NTWBbH84NaDEkdYkOUx3BCT/lOjZa3czzlZsuhgXiAjOKQ6J4qIjdhIZh1Z4f5cZH76uKQL4sxsFgf4FC9Smzi7k8mR+hAu7q6urBBn1n0o/TFcX8t8pvxVPZIrGEaSEG4P7g4ODBaPm8OowWe4aRYr1f9xtmyOHW4JFoNPhTiyRpYjTOvxu9KYwjJmHKNN4nsEMOx/vCSTwTb23rbzSjM11Mnwk+ZVb+9IWSbu7w1S6OhyvIGPaPsd45820oyedA6KMs8iCLugh7Ko0MlHoMW1feY/z4m0zy+F0ycc3NDaiVVfkqrtYnleefW1CIY8R4NGY5Do1WniZEt2oLT5e6QhqttLTsUz1fITBjXiIR/0+Q25DVViQUM26Gv7G8UBfQwvmqLVu2zKeuoM5oByhlFvbpTcqOHTgY27rzOjo6jhwdlcnMUvnyWkJ7RRK/iT87Ycvch/1C/8qbMJnLhbeXn6ZfcL2p5E04CzT4BExoc2GqZfe+kRNHRNLhGSy44392mRYtDY3kw3WsKdnFy8Q+gclYvW0zHuxONrpqS5/JcqJP34th7uTSNtSj3KYk+FqLwzKMrt44lPqfcfrUG8zlC/8uE9bWHyNCppaQG+CXZWW8/FT72TNYIsQDD4DRFwUaRjXUy1NF/HowlzN0t8zH8ZqfRe83Gk5UxMxzcUU8TxVgGdesZYL5PVWaG11vyohg+97iZPIBBxxAGX0fZTYdTczyYYoXa6WWHzzqBPSCj8hmg/N4JU9nTOGzdS61vAK+66674pjZlr399tufjuw4n6YJtHTYypVubTGUoQLGG7omnvnZaadhyz7rCmZqsfDq/htNaK5X43d/AOOIi7BekRW5/q03KzwyKM5kx7Wj2BwepTwW55FyMSxz4h+PI2SZ4N28j/fXk1UYFszqTGdnzxKTjb4PzwknZdVLiUmIZb6UmTynfLkV6J4sJvr0vVQm+lgpUKd6hBOOEl3c5eoRlO43misXbxPly/2069koqo9qohLCQRAsP1J2XBkq/F7ovki0w/TOgaj17zMx/zeScbZ3O3XmcBKlMz1ns2uRFzgFaJjxaVS9YV3g+D4bCVFs/zmx3rAe2XrDPaVtvalnfgmQGf8ieb1gwQKuIPgZZTZcOSWV/qLUCaGcP3/jxjuOoM64/npMymtxVyfB0ZhUAmrkmGPsiTKZjH9xb2/vU0dGRnyAdibLKTMI/iRCfMe9Efjh+228yDAbE9tqQt1k47Jy04tRcd+LFjyrbdijqia8KfxQgVIoUHhQ0bJ31dkbkWUtPBsgg9lsGSybyeKd37nchb/zPt7P03vovz6KmPmFzGEe4GE8tckEHzQ8SpHu6LIqnNza1BdaKXisIF12x9Xg8yooX0vWNgTrEB0oX9nlahi7XPnnmWT/HXJerBkIj5CswyPqF4QvZSOBg3eyGeSjlCHuMsVTszK5P353f7yeDr/zc/69XMy557E/o5K+B9aQh1AmsLyryO5eR6+29X7V4Jnw81aTwn7oFNb1GQIIKfFQA+QJXayDdSaO2ehscKCXjirKZYGu3nAirq03UTQq49IoCVC+rTK2wigMVd8KE8iTzbcNDw9jR1v0tlAY6MPJ9Cl8S1mgTqBugI54SjSavZj3QQmn8sKcwuv0X6p/i7GOabr77rupaP2BgS1nwJr81rEx6cBmATXODAH0KZ8WXsctQQCzhEHGbBsejt7Bm7lZN9eKTemxmRfdkiP2grMDF2OLyd5wlyu22ljopk5cZXGk4o3imMI4SjMPbRjD3rO/h/5DLyP4A57yAH5/HB0ZCBqfy4X2x02HmHTwTDzmOYjCMyF4OiBwojAbkxl7Gc7EV1lMxu9mupA+9ILTqTQOYu9Fb/jDuPZq6dVwVnSz1reWQ1nyKVS+Kwdg6ux5Czgyd9hQqk/9oaCO4SBa7lNszIVm3dIfAJHN/9Y6V5nE2JCLQPk8ivUH61GWfo5rPsrX3uV1cv3M/87PPFJRxnwjUOj+L6F8HyAA6wpMkmT5YO+Xm20EwaUwPXODGpZL1yh3AVT4zueFzKXBGsSQ17YHNbpnCPVmG/L8N3jmH43v/d14/k5kP57LehPMMf7IU5CLz8JDWW+egeEJHnEYxbI0Tggjt/qUlQpT1S63Q2YH6LFKhwSf74Do3oozfhdAEXNBcNHN/nEvk0m/aegIvp+H+UI/XLx48Y1Oh/CGVnQtWyhoembvF+8HIBNW9/b2xYaG9rBFKgoKmbJ3hZ9EmLdwMB9vN5x66sLH+PO2bdsktybd2uSvUtFtIyCz+QyYtM5Cj4pxcEKkZNqKRtj2VjPoUbEXS8X7NwiX70OA/ADT1n6BDfxlPXTRMJIbD4BYPRbxOh0Az4AifjKEbkSUJoVJbb0Nmz42DkSZRV5lVmx+pWyvyFnRG8ingAAuGulafmT3P3Q8S9Uk8T9vve3KgbUwD79LllLZhkid6k6QQf5jlys+O3i/WbvkGxKL67HLFcxo8rklXlht0CuMxjDWmtqN7DnPXLbk+3WNGk3Lwr5I3nM3Wm6I14mZ4bGOY8P8ID1bpqqKUE75sgxksXMb8gNyfGzoXpT9/4d8ucmk0r8yV50CpVvCJTcehDbFcSjXZ+DO02WuA48KZY/ZLlGrIZ4lnt3mPzvZvGjRosc3b958A2T3gjLEPLLIVh4kP44Z0Sn0ghN79uxZBSV8B3TIDqdLWhFPnYRIfZOGllDUmZ7Re/0wlO8LAJSmZ8RX9GfBQmwbQ1ZYJBLxKPw9AWvQdYwhw+XYQH1jW0Vo3MCBaxe5cUA2eAda2jihZXeucYEQC6avjKfBZAlInX2cyLMHu1BdjTWkX8Xzfj/BL1iYWw+PmBfmXb0bnx+/37eTW5ZSSd8sf8nBL0AY/Qta/2+DaboXwsUxdA2GvEDK/iiZBHMrZvz2xhDmRVgTfLNJoncjvWDpYZYdWFU32kZEFktfIG0jcyUMLon6/M0Jc+9NUMBL7ZyBFTjVKRZfAcWD4idb5cEKYKNf1XPHPeGIwgjH4NF2H74SyvdT8hMV/3KUj1Zy7sxZuyPXdTnlm8TGONv7shPKUaXxfvB+lPd5WAXANCcL+2aZZf398GZYavzzkW9QbGjA1Ny7lAYxw4mi5xpHXfwHquAXjR+71lx+wl8nRIh5sx1rswvXG5jQzY3yd8ngC2DduRAa4i1imh4b4jNQ1uQPb+ryCSRh7XEyOpOJXAfZ/U7s+7AflpBC3thhR6tr833lPovMpI6groASps6gZe391CUu3NzdLfKhFRWwN2/ePIE5OHj7K6A83x2anrnFWIzmhmKtImQQJKN492F+jqZS6ev6+/t/2yK8EY383u+BJ5uId4r0Ag1MXlaoS+Sriq/dthDjUL1ove++A+F9GIJycy4sKnwKOk7q8aDo2NqfyslOYf0QFDvQI1meQo95G257H9bu3gjh9FEIqeMlzu55U4VR+ppLZ0Q2HDHmpeZZB50Mbz+WAwYa3wt2GhSj7mz7eGeb5B1Xg8t9+OIm6xlsGvJ2E/U+xiFrmOI5DkwTPMuYiz++VuXInmZOWijWQ/leIqHk97qrCrZBnqReQXFw/NN4v5Cn2OMX0b1rkttm5YKJZc9Bo+XZcog9G0w1ZwWGViJoCMU72RC+GQ3WS9AYuMemCuEnNyDPc/WGSnRqx3qz/eComb8//KDeXLH4l7jxfLMK9WZsz1VoFC8wIzg72w5f1NJ4nfr5M+Cqmw29dOkJv0MP9juQ4RdyXTDkfhRy39XZKVOaZ4rOjI6OcYnqu9GT3oge9Q9CncI6yzBaxrWcAoa5IMYWC9f8QuJd1dPTW7bpOVTOhJzBBt3xXbt2PYGhzy+TdpiBUyucZmbHMm6gH/bCveBNqJQ8nxSVmr37GmQ6lWEEXQIKkdHdX8e8wPdCiDwhSePMXbMBPW4IBbqkvBZ+seOO1iQrynhZzCQxO3Ht4gH0Pk6DwsABEd3nmvRIFOPGbtODwuEV+4XiKMDWN9x0YnTPubj1x+gFozcEYZZsaGVxsGM4DN0Ht6dDoH8LBypcJuORo6bXxL3Xo720ArPFUaIwXp1TvrVklMAgWw9ppsD/r/FdrjDZKxmON8ttDXopKsaKPRPI2BDxInZC2rY1GOwQBdh4oUariLMa+R4VME3EsCDkJmQWi3ix39IyBMAsTQ1/0hzS8xE74S5UvKs5gbGaesOJhttsvbls8Q/Npbfdg/L9ZfSET0e8qXwpi1QJT8oZKFmnbMnnyzt37jwHS0/ZC2bDBxWxsAs7ZiyLMRxEBlN0XwLDlldhbfAvTzzxxO2taIqmOaRlHBdPO9Mz6vVHZ82atQAACV4mXeHdCc0p45yXAQYD+Lz9y2j9/Dq8ufFCYspYFbi4cssCxO9UCH/Gs2i6CoSQf5kzZa3yHRv5LHpT54nyZY+Xk7yoPK1SzfdT3mf6E/8MB+F9dNHjZm3/mzHz9HOi7K0AtMq6mtYlzcBMvp2AdCoUICeyGLO1aduFsm/nQfkGGOM9DnG5AecuD5p4ZABjjGswOSoO5StlMARWY15xdi1G1zv7IlC+3OWKeZUxboOP8CGt+RZWocAPGawuUSPrmIqTMVxC5x+0FPl1nGy6YctbLflhT5liuJn0Cpwy9QFRvmywJtfYXqztdfGOypw0IlHvaDbnLPrLX/J3Ez3gNdiu9Nti9bBmaFdvKgt75t8tBQ2TqH6DRSxfsrJcEl2ODHdbE8epO6BDjvb94KP0Td3Saht0tIwCRg81snSpHfeC6fmirq7Oc7FxBrmxgpVTyVzmpGH/j6H3C7Op/3kGQOhsWfHztDr26twM3yBzmmzen01zuUL1+eCWB8mG/SPrzbr+90gaRYjQfFyndItAYXjsTcOtXfJuzPD8dzF387uNRzn5xLsnOxjl0KlKdM4BidPkxwWcLIdeSDMcGwEsPSnMWI2ia9XRcySU8XyJUybNlnjRlnfZURRGsFRwzHuMu1xlxne5csucyg6sihsdTfdecRBVe6z4SRM9oByM83kF6k0HJgMix2ro/XK5H+eURJG1fuZy1JvL5ZnSaK2hwTox4lwLk7U7p1GpI9x/dL8Z5ujvo4yFMOtUPyc/t42/U1Y7RZnNpj8PWb6VMh1JspaX8hr65OtRh0CBvwmm6HcRCXUMdQ0/t4JriYgAiOc20Ibp+SWoEVdxaSD+2POgmYbT0IvxovjkDRnMnEsMcyll4K1BC+pBwl6yBGOeLeFW21iwVeyh98soI4JlNS/2jj/TzCC4bSHHUW8ze+Kh8mXPF5W9EU56w6ESHh19N8xqG+X5YB8+zsarkmdbAhCIKI4BuSBV0vNGL6RZjkqYvRKuUR0b4sERWPsMe2vtJk6XAnLJQPBictyeP6MP/HrpFXHM123G4u5s1LvLGffeqOfUO1xOWqTjzPzAX2yrOsubCNIqUgOlx9zmEqZ06jvo+a6w4bPehOZmuVDHF6k3CJ95nc28DWXgdxjGYYFnx6CKNNQxbi0YFGU2J05BYT4E0b8GK2G4ooWNf8oZ5l5BZnmW0Ch1CHUJpOxVGzduPjlMKnvJzZMt4UOnemsJBYy1WjG2TAYGBo5EJL+Cwxa6YPPnziYy6QrXisFiRvB3FmSvp6eHivsL/f0nXo/vsu4X4RTMLN7TNOf2rv3t/Gciqs+XWbXSsKiqMDDNWGqETQJGdz2K8N5vPr1wREyZjRIiDpQTJp94GXZAiHwQY86PytIN20ItllcuhInv0gNFFvGgBuM/33xk0Jqhm39qFePOljYnWvGvjvUDW0x2dMXR+0FeBW9Aj+t/DScxJaehcVh5DgGFczV5doFU+I7JgHR+FHOPscaW1pLxaIx/KjtUWCG4deUolhlFxz4k3pzFqOwwqriR9ZLm6CtOftjEou9Fozktu9FZ2VVFgDPXS77MxjDiBpiRP0/ZDsf8FlmP92JynUcVov3sxahLoFM6sSJ1PXrCR+FaljqHgU23q6OAqS4pbmAcJocD0Nm4FgPnT0Nrh5JYAAFWwYDZeYTjDfyQnT17dhTmik1jYyPSomXYLbHsiLGkOZVrXOVj5kVY1rK/CBKJf+E0yv1TvViTL7eTxK84wGFtONb94Aub1NtfxjyCKXrR3Xj9jGz0gS0aEBdWjsod85kKOBqfi1muL7IBcNHndDibTXV7Mjd2kF2uRkbRy38zzPf/I2PznMTU9PXOSFWdk1c3TgUDCsuab16EoYFOabhWO4FJJitiOyuZc4DZ7clT/k+UYqMsRpPTNP8Htn4mF92K5t16ezAJZJgbSpp8/z78nbKbMpwIEonYit27d22kjMdXMmQpduO9+Li3y1MdMeoUmLGfhruupa7heLALe2+fzbsybQqYJgCYGBLhwHhvNBr7Zm9vz4uxdisLpct4ldRKVM74o8BP9/XN4qzn38di0bedcsopO51ibx7KEk9icXHjsZHIsbKlHVty1RqgPfaoenDO4tDvTLbja/J0TuRxzygRnZp/ljFhmNTootFr0JrfhhmeyDNZl1lN8BBC2JCfs1uNd6wEsJwt3aqsA9U8P89PyaKXd2/Bj07NQfnGOZGLN15gOCPWuWonxjn/+8K7zH4OG3Ve8Dzb4JSxQMgIh7hsENYDVwoEmS0m+tA3xOfJWPveLMc8p+WDLh35HIY7dqDMRyDtmheHZqW1Ds9xivL444/flclkzn/iiZ2/p6wnPcp+6oAyHG7zIhgPzmJVzfHQNd/CzOg+hk0dNJ3m6GlRwGGCuSVkCiaB/aPR+HfQOjmVC6gBk62aoscM5gHHrYHf19eXANy/4OMbFi5ceB8H8Ak3777p/7hmjS0pNEEFwbND4VGd+rWtZWtCCcx/mCuOf1gS+GDYum5WapPLOE6K8doTt0NPfocDLXCoHFX1gsknFELeApk9yt4hZ6O2p2O87SxbYvH992H2uBX4nAPQrIZSe7Ibj/X+4eznS7AsMQiOytUbuaPCosExfW6Nl8Ey7yByrYz3sj42e3OebWHL4cpFf0QyrpN9pG3dqbhFMQ6q8tZInt+W/hh20jhMeR9a+6+nrKfMp+xHxEsyw30oOkGEWjjcpONlGBb+zo9+9KM51EEIY9rGhKdFATO3wQJ7PA8cCRA39vX1vmJoaMi1AKF85XfeVswRfADbPmc834dh3tdg0tUvqXxbZ9JVXvTdspr5uw/E1afaDQ3yfi/rYziWzYlX8Q5MvBr6BzaJuEm8yuxNtK6b6hCfNdvERATV+UOso9yBsWD0ZDHGVrmjNA2gqOjzKebXhxwkQTR/HFgeW4cXMPB4MhAMZqkrzLoln5YwZZerad6NrUK9VQcW1Qcxn7tkwXnmUAgNzEzHMEXFzdZQRnMuCOfxZDP3w4hpLRHN7P06Ckk2LN1MXO+7mEPB2fcy2dTdUsV7O+VqxcmjTKds7+9f+Cso4VfDHH0vZT8CEj1QLEDoGogkuUP0HZUwdM5p3d09Nw4M3HkkdVEx/438rekKmDPbkOAAJoBjUKtumj171iK0aDg1nOmU+BSzKoQgebOPBdoR2Pb/EI1GzsJA/d1O+TL8RkKrKmw3nJmNPRn+sc9yTkdVUHFyyQpNteZnkCZYbkWHnXqmwx291SYkkeUxcneZiNXHNiq5+JaIWd59bNQG4BPPkBP2Mgh3PyoRQov9zCY39ivGpJH0yHcx5nupxE+GCFpsi8kWA7dXdLYfbguHFxwCebEflgxRGVdQZxgib4eQhfqV7SuN2WKuWPygPGv5sumoN4E5eoNNQzQBhWLukTX1OQuQxExf8ghQpjslvHjxi7nD2FmU/dQB+Mw8DFVInqe8j3k6RXQMdQ7WCJ+IkbybN226/ViGT92U56UpH5uqgGkGcJOi8PmDc+fOPQK9V5oAGA/8lVacIUg5ktASDz6DXU620pbPDGpJ5ZuflUFwMFry3a5Jlv9TGZ/tZI0AZl5ZoRXcJZs4UMLYM2PLCKLOt/BkKdm1ShTL3VZAoucnlaJcOZl3HxWw52Equ8FOaO3mcuU3g8lC3NkLQt67TFJx0U0deWtZ2y1h0xdf7k1OF0F5iMXDrTBtQ72ySKFFBCOknfjo/4/4FYGby7PKgqv17g1hAMnjd6G8/zxsGPBiXmu0oodU66+ih0znzU4JU9bD2rkNFuhPUwfgOhUndELZsaM5OkLdM2fOnKdHIrnjC3nSXlN1YlMflo+H3KwCpbx15CqfcMPh4vxwW/QzzjcNY+YFTxKzpAxfVBNbeIxGPdk/2TP/KyGcf3UMEKeLQ2AOfqVtOXrBNjmdhvGrpjXP8WT2HGHSgBiaVw2d6fUj5Zf5gHOexBJwC8Z97T7kc1/eOnMSaiopNXmuLHtYHjaER4f6sIrIphkoIBWboPFYRlsOb+DWc97WyiLSgLtlo5kw3MDHREr07LkQXvBWyZh1Zx9yOC645gRbHeT0T/PhNVUBQ9HKaRdMJnTuVY8//sR9MAO4wfSyTEFhGeMkLfZ2qXfeB3P2Ag6mYzOPKK5PH82C+Ydy4pYgmWA/u+GElJ3K48rxCgoiY54wWZxLSsfN36fTyWk2iADPFzberuHmc50AAEAASURBVLA1X3nlYENMesAyHLbfdCap6mfbVEOQSk8ea37pUCaTVrTa7/paFgE7cTEkGsyWesPZwhWXdgaBP1lcgfOvo1Fbb1yjuKzI1PkmHrso+6wzasH/ycESXP1BG1flCbSRq5hLndPU4OAo2ynjKeuxYdPR0AXvpw6gLsCjK9Fl3G/ap+554okn/oSjrK9i1MPh0bL0UL2SWkmk6/JMmqAJkmO26CidumvX7kFuMxb2gnMDo4UeRhkNx9cITknyMRB/FBZp34jZ1C/ELLlM6yrhNRJxyOIutj6qd+jp2h349uCwAHvYQvWB1cfnweE4XTR4HNJkyDYwagha+ATYpghu6w4rgGsIrnleRXZShHKbQwrW5xqanjm0cn5rLPyvjUWzs2L1eHRZb6xiYiQqrEC0DsGLXd24C5PT8QeXaxTLtya/IE5uYqYXfRwNtjFZSy8thSqj0uzsqTKa1XhzypcynrIeYdxI2U8dgM/UY+WWCVm6hFnUMYwDb8ahDadiCPMuhu+GR6uJX7V+mq6AXUSR4MgJJ5zwJ+z1eeaePUM/xC4nDmK5LRAC97jAGjCfjtbQ99AqeoFTwu45LffueZiGWW5ZmSr2VpbgF5g05Ry9qW5q7jVuxUGXifAYP8Sr6vRZEzSVF8/JbTsXppuThFIjjP1JZv/uV+Ulo2oweWHsOx/dznFMMec91EKPfm3DLmVGMq0xHOAmZhqPJ7LYehOa+JjkqpxXu1m2quc22BM7VpTtlPGU9VgLfARlPx4rOVvm40W3UNdg/BerR4IzEeZ91EVl+q/7bdPyYPR22VYLuFkGADwBJXwOpob/CD1hxoe/la2EERYXWKeghJ+KvPhPLm1iRrXCLidT5pacBcokVuucFEJzPhMu6K82qHr5Y3uULubTdow8rDF9IoSqHiSXqEzfi6Q9ZlCoZa/hwEvihKenhRvyy8DwtMQNIza1PzcMwp5nW3twpULI76HW5ZmSN9iHvXNa5N5eyc2ZwNNsbNo4SSNhrztLX2DSxOriuzKGJYJr6pDnpR/d6DtCPZHBKpcj0FH9D8p66IsUZT9TXc7zcS91SkAds2fP7h/jFNXXwgr7eKgneNZALUKrnChMec+0FUQm2O1yAoW5p6Mj8Ub0hP8HgGRGG2FNGeNJF8PWSxxKOA2b/jOQJ+tvueWW2S7sSbdP49fV9tl+wF0Aqo8HSqCMLxrTZfxYT/UB1dGnGwM28V6E2iUTqaoLPpxeAz7CCYHkegnVBdh8XzklhROP0ELv7D0KIuLfzFVb+uSADC5Fmg4XjbG3EI6fVlv+4M8qCGwlRbfGvjXj1UO9GY/2+Kdyn00ftmHXgzHgcHgjXApUbhj1vs81MAKvD2A7w3pdlkKZEJWcD36Yvt7chDjV6QsVJGX5nXfeOQs7WH0FW1E+k7Iecp9H1Jarv3Br4FO34IjCO7PZ7Bupc1zY06V8iajcBNQJ597BOEV53HHHPYqx9DcD7p/DBdYUGBxg39vT3ldY8rgPdBZKeElHR9c63sKwp2Nt197RwxVnTotgkhJ2XAwF2ZS3Fr1I8ybOrweZ2SaSfZLc68Zgi3pswo++j01GIEw4J6LitZoufshKbsYBw4Zcac91wIw6EoIW+ih2d+vse6nZk/06TvPplKVIzVTC2/tYN+D8YcQoJeWuqtY+guH8Y84kDrAhBh0nEpVVPeXuyl9WTwh9T6igwpnCFQUnkbebvGAtcTBmZ9hPZ+OODWmXPs8cJNtRcm+Aamd4M08lp6VXWBGcVr2ZspsynPHDgQqXU7bv2rWTwo+dtLBc89epXZ7qyFCnoNf8Z9+Pnwvl+4hTvlP7bN7VaVfATOoLX/hCmhewy0n/vWD7L7DtjyQSCbZwMmidlKOEKQaYlgA7anEVyzsxM3o5w162bBlbPyUzi/c2zuU9PggetWt45Vo14gtrIdE2iSUwuSfydInzreFaycYloETI4SYggTkSazUTdklF6QoyRaAQIuDC9Pl+OIN4irva4hKzNmyhj+wOTFffqzBr/Wuy8T/PtuUWiM1wbngg8DHxKIASpuyaoNjKiwXrEKeXMVuZz+Ig9Btp5mRZyM0U9h4LN68JZwqXF+3cXQxLGoYRNFzNEfb6NGrgNQDpGkJe9Cgc1oH4IYKIZsVO/LC88UOAgNrf5cvsgYEtyyOR6Dsp2+GYUJH1xVIJ/yJK8J6hLoFOwTh78Lb+/uPvxbUodU4x/836rSUUME0A2ESDNnqvv/+En+LtYkwNx6RAmYgjy41KAJGSh3tiMC+kurpgnfWD5E9+8pP5CNvnAH4J/43+OciZUgPzEARJxs7IrPSxLHsofEGADf5hBeTm9HQbsLUhN62fDje+CYeNDw9TwAALolJd2WIDPghG0cZ9aDqSU79n5iSp3Wh/GEq4c9Y55sA910he8VzYZilhJioaxwx1LF1jD9YKMb6X72wNQ4+X1gnsZf6hW2Zbz6vLD6PyO1Hg+2058oKH5UAL6YHn9W3KDxMLmBB3qTfhYR9yGtU0Nc7dTlist0FwjKgVO06ZKzjlJ03utBrH89Awd66heeMe0pD3cLlRFpOuDoZ6WI0eLAx/MumU4+UUhAU5sXSw4waXpQ7BH7P+Q9i84zZehJu2MV/7+PHX6oTkuP+6faKiRC9YpMPixSd+YXR09FoMtjN8wuZfKecyJA5TA7cZexYU8UX0xElZaPVMb1pzEy5kDSIEIRVNqSRN/j03w9EKwsA73nCTerqTD5+e9LlNOC6948lIz4sgTFj6qYCRH+VObMgDQS5WUfydH2aIQ7mG5hqFVb2z743mGU/6Cjh5MjGr0Ur4bkcw8xjy5eFwqUt4MY+7u63wux1U4Fm8xhwFC8xz5dajCwvCwkFV8os7Cxhr3gN/SBoQVlFVEIikk/KB5RLOWyTLw3gyUbLR8bdP3OvVyYNnzGdv/Fh7QEQNMsrWO9Y6zsNoa0dZTZkdJuIiyPKjKdPx3VmNnKyfMp1W91q9QR0CXfLNJUsWfY4309JKXTOlx2m4OD1Cu0BCCZ22+fDnj2BMdysGztnikVqP93IkhmQOoFMXXIg1YyIoNmyYporm0uomXMRiDyIV260gkR/LSVMYSq61HsXBB+hjRp5tosEi+fFB9LCmw+UEfHoJBPyzZEMBmHhsVHLxLREzyTI0KnC/NZE+iDVN260nsYyU8F/Xn1nRU8gjnPRUVnkr7+HcLo8mxtE9UMK955lVg/8mHhvdE3aHDSSXYs2491dKaKRKgJcX8Ql3Yf4B8CS6O0wkeIX8Ir3IqsObEHiJL39DxHeEm9CEZb3cBp4kly9YoS2i5AVYHrZQnrf97rCslnh6PX9mOd8Q7kHtZV4GngeYdAppqmH8VszZkrehZQIRdvNO6hn35oQlGYbe7z+ByYWU5aGT6+5LgXcnB9M4epAH9WyDNfXDvJe6JU+xF/De3MstpYCZdAy6y3gwzAUQwpEPseWD41Q5QELBmNu+sggmZkAUC7TZC94PZf1C3rt8uZed3glZa2yU7d6vfwjrmoyq2R8qeo1iIlcKgpyeXiuKK4kWI0/aaabj86hAaEaLmOXo3aGPAQln92Z1FaG8GPFu2o3YfPXMH7HHNTQV3Oo6KkEJsMALlS030IglYqZrVgIHKXDdKSt82Gsq4K+Sy04Jj2Esq6PnfLNy4IvivZFKeFn+YQPBH8O9utEYINdy5NmEBNID6qFk1lnmI4PzMEaL822vb6AcCecXzIk/gPj+WRpouQZEZUUM/rF0Lx2AfQeMkG/MsadCbKZbvgG80HhI3oXZ2IgHn85lVlXHgh5DFoE3t5lJqfez2PuFGHB17u2Q4ftjAhZbTWwolcpwKZi4T3QGlhth+NJ8CBttbGfPl7ql3vGtNbwGVpyqoxbs2GF3P1q8+IQfomR+BideIDCPGVPyAGb0em1xhoeREW6GEJyDtcHPqTo29fK4ejVEnqvowS/DGZ1UOKUK1dQxYC9zDL1gnApiVm562dQ3Nfiqm2H7rCedhie9QnrlVmnxwZWJEzmQHAKSw8e++ZXEnIo9tCfJ90a9UBkx3p3dUZMe22lGdv2PGdvzByhjVHs5Jq5+Fdc2TjLCqqP7HWbVwGckWY1SwixfOTO391uUGc5k5ri0E3KVULV1K40eSawDE4eCc8VzI2equ0NG3reQlXmrHYOGMJYGRIVljJPimG450jB4tbl08EUSf3ekZiUkqr7XyQAEkB06B2Xs2LAeUxZXVmdycQjDtOPzB5nkVhRcuGW5G9rmw4YNdmnYxo2348x0cw5leDh8iM5XST5QEWJejlBn4PNnsdb3B0x8qFOqk7UNpNeKChi91eVZZ4ru6Ih/FL3gu7mAGhkhghAZUdA5eQ34kXQ6nYW//fD5HHpguEk3q7JgCA36gRFbExYgL/gZKl0WghAXiySmcFRYFKMQJGn0OiFUIh82772jS05Gygnbwp7r8guX0lBpfPzXWIvsfQDxQHxykyQqfwQzFWelw4SN07F8HLMIt0COIqwKUAURAEsoKU7OGRv+Pj4vNWPRl5nOzn6My71fGLNXPD4MUkHQBW+NQapACUORxbvfDSX8CbmTPBthxXBn6vqZ3+E5f5MZt2zmiKu4AUhTeiacw/BOc+ltT5Vyx/OoG+EmNCDML2SHseobEKxuUeRrFrPSMRvaF9OkrM9uBPepeCQ3RWXSZPL2J+HnD1mOnJ5dUrlMFVreNYgSe8TpISa+e/+8H9rmI2Wz2w4yEvHP6e3t248ynLKciXCyfaoEQTfIZeoI6grojF9ms5kreZG6xIU7ld/pvNaSCphAuP6L4Lg+GODXAGjamqJNOsyIkoKZmYKZcwjNO+uOO+6Yw3CPnr4D3sfj2xW9B6XJ9rBsyRn/jZEs7VxLOWa4xKWjp9/0pj4o3ijEr3djsKUDquoOCisupaHbtfNijGEtlnigX1RVeNIKQZLsCUJ/MOmM7QGbRo7/5pBnTEdXBIr/V+jt/gtOL/qV+diJu82lxz+Mc3w/BbH4NpgtffRU4hDebi5Clcmc4A1KGF2xDJVw1/thjhZhYZUZ+NbTHR32dmNL70Ww98j8g5zA911ZquCJEIipUR/l7jATiV0mHpPLUw1pPDBwt5Qq6v8cPeAHxDJhe8D8NZeR/FLS0dJBYc05FNH42dil7F/FD/ccb3TjnPWGQ0V0mcwV4HeUcLTjUVXkg4SEF0EQCce3DzWjw4fJL9uWVcbGBTdN7042Y97O/pDxZ1F2O8VaIkqc1cxbREdw2BLGxjUY732EOsStJS4RxrT83LIKmDSwVkvMZDAjfB98r8F6Ll6OAjZb7wULbJhpuM3zOICPaehHp1LZE+h5etcFr2EUjPnIImy+bjZaQYhkVFtNKExoUstwC2ZvFYSJ3XeYE2Madbg0w3VmwVWbaORaIctDxKRZ7SxO9MKQV1YOmQFz1Sk7iamx479SfDgsEAnz4fsmecI/RAh/DgcoODPeZf3XYrjufChhKMp6K2Gcm+z7aeEX7/wwJmaFyqzO4/mw/Mg4fRL1JjCDmPCD4uJxsiPqV8FqJFkw9QvzGfZOmqKjsXMxBPIuuS+5NNuQxt+DVg5Aef0e0f2F5BdLvq05lSeAwwDkLkuygsvNqk1LpVfKJU/Jasvw1KRyV/OV76rBi0ws9s/hfuG0ZlWehlzA/ADvDCWTCXAONUw5EdtkSeJqbthrgoeW+wKZ7VE2M2KokgshDhZgHg/FAtmUmvvD26gTotb0bK7p7z/xvxmW0yH83IqupRUwobIFQ3BQoh/HQuy/dnV1y1GEIcwpVZfNM8oY2cTD57pgHB15Ev2EGRV6b/KbHEHmKnjkB4aTcbDCHFVnynSUjp2YD7HvcCYDEyrHS78CJXwSlIgPe3u27j0SChGGS7Pgis0nYyLLehPvQMtbNrevodeGLkkEvaqxYSqI70u6mzH+K9TxXLGS+FbpM4/eddrYBLPkZf3/Dn3zDrsBSrzePeE4TIdp6b1EEyuhhFdK+us9qW4BTK90nvkpGmz/EJN74MzQVZU/NB444Y662HzMrBh8DUIPDCY71r/cQbiy7NEF5kdiuo/gTE5sLyjXqnuJY7wfQzg9s1GOr4EF4vm53ql7VnXh7u3r/KvjubBXDrwe8f4k6hDSwh1nwnzZ21dlV0RNoUEljQrPzlDnRC+Z8FVZUNN197hszr6E6359uHxZXiBeodIOspDzND3/XyaT+TjvxaTbxHiYBXxP8+WWVsBkQ/MBZy+fgJOTUGLXs84Bath6Z9OvsGOrCr/ijXnkveimm3g0nLii/sJ7GvCGCuGWBsQyWxC1n6PFyudUKUhyEzpiIkwSnXNQ566HcnylRN4J8Vp7w/Q/sQV/Jp5znUl07odeEM2ybumYPLbCF7bSYbxGw92gdzMU3yz+7bItqVwVhlfl7dQkdMgj12tw/Hh53ZIvm6z/HhtXKOH6jglbJcwxvGj8MiiDcGyynj3hZdb0SRO7MVtq7kWSCfM9gxmqiU7MeAm+hrHs18pVcuNcBDai6u18czMaQvdjEhhb067eVFtO7H7dHd2HIZr/hZ78IkMrgcv3WuMvdQYNh/UXsI7AVjTwz3i9BnEHtzTzo4ZGKwOc4CjTMDTAuWrmpdIQ5yc2vBrVq2f49XMik7dulQlkx1mZLbK7lKzm7xwn5s6JrJ7rYXq+jzoD474w9bS2a3kFTHzz5slkHH78GkzK93Z2irB2lc698/fJTjIPLSJeP9KemISNo8KZdpNvbsr3BdtsfLnMxg++Ez6T+9sWS0cZUQtiqHzoCXfNNZ7/XVTA90PB4yB4CEPXGxaBkCwvzzke5gSI+KcywLUVmz6IeG9Az3cOeiIULDUKESi8sBuF2vNt82nMdqUCXF0rjzKQlXOLE8a8d13/ZzFue7F4i8YaoIRhSWCnLhq/0qzc+AF5Tv7z5UKVL1QsuQl63gZZjxyNMe+g9WtyticZ7+hFjn0LSszy4VwE7tDGZ7IcIZNrekpyCQcEPXN5/99Qrn8QhsZwqYSrDZv+sJpgKIN5DIch/t9HI4JKEltgorwz/q4OuEaZ/FjkhcqOaeY8DMk7hPMpTJBcuflKWLu+ivHrDlgg6lBvpowDBoIyWTTqYyCyTnYr49g8HSdNMi1sVMhYtzTeq+U25cNruehk8iOPPPJUZOcRocxmkMXi6GRmQJ2AGdP3RaPY7hUuT2fwa8u6GoVnc9KFFk2GLRquDcYA/ffwVPYQXOUrqVDsRCxzQDbrPR3+/ticWBd4Cs3DUqlRMQPvu6j8F6HCPE2UZ23KDAUVY1vp0QwEODZKiH4CPal+4w+uM5cv/rkIAxclPv9gbNIvm2jgZf5R2Brkjx4GTOwd3NSDwiO/Z37pxuNNNnqp6eh8pZhL+Zzaer7wLvXHRw+KjYc/m9jYBokAzWYUfq3iRJCCGd8vW/xxcO1AL2YtNqOwPdeaOeQSGhdzPpV7NPFxNKLShko///m5W6v4wE051sPfyMj3TVfnz5CG4/C8KgLaywuUsJS7GCZlXQU+x0OvrzFrT/q1zJTn7VRMB98dkzI3H+WLk57c5jTclpFLmVgGrz4f27SyUTbZ4doa5AHXIWcj12K44lzEfz+Z0cyeny1MxYT15ADdd1tvUsPc3hXmaP+rUMJLUTSvwoS83+bqTRK305TMOjKh3qAehdXGSL3xbL0hZzoO1TyeXoUJV4tkzDyTqkO9sUFP8cq02Alyia4X4/O3IGvejl79A7jXWQvQA8G3YDWmtiY9s/XoiKw2sPV9iiCbewlDjZDRHmR1WdWf+c10iR7Dhhvf45pf9IS5ZLUuBbvRqZeIN/oh9QjftWgyGe9GtHTeiQlZvVigTfgcE6ZZutBjPAwlGNzvpVJjh7mb4Adepqro7o5Gvi+xlYGt+ZUD10BorZXW/Xh8CiameKykVYsxYZi3sjhjtGvW6WZ410l4xjdR4/7T7EncJT3McisblzZ1p49FHwHjVuZNpqu3G7OdGQUW7hrLDmRsAP6cgBJFUCmMXydful3SRyuBVcXytSVe8pXg2v51GKtNQAGsRCKghGUsr0YeuVSGShhm7mj0M+hRpjEb+0uiCDgUQGtEtS5nCVk6BOX+NZiPj0OvjGcXc1w/Wm2w1h8mlHEuQjaDctd3NsrJEsT9KyYa+Q+TXPwbMe3mKwF6miqP11+AmZJI51QNME7+S8LfFYt/ifh/D+Xmn5EGKl/UJze3At8qd6xvMAuPUfnHsGf3G7AW/FSzcvBalP3rjHnoHsOepDMllwo/edMsk+laiM71ubBGYYMaHLE6OoT5DTgGjeE30rnJaWMj2Hu855Vo4D8DVqvPo7r+xDxp119kfgOfb2WNbeiIQobsGJc/jYzhXmFTFqMHLNfx8TCcncAlpPxeUA7myXwf+zRFoBOGcAjPjfSEfaTDMsFvre0aWxjqmPYl9rAGc8ghB/7qwQcf3BqLxY4bG+OZzBDjfC3imFlRrDHFbfN527ZtoRm4iJ+G/iTjTGGPKup/HXsEn4tKeiRa9SkIEk71ZsUomqYS8UO+wuQ4sjuLmbs9MEtfCIHyFtOb3gzBNQC/HAdEjzP2qKzH2Lkja2bPgwBOdJuxkQNMPPI0E0SfDz3bj4bBItM5u0PGlkZ2o1ZQUAd1KDdIHuZt4pFxmEP/aGL+1yRNNN1xIk8zXbmk85XwZYtXQUB3oPd+McbfMSGozko4AwmEdXfQK19EAyqD3th6Ub6FlFO5vNjzpJsT/wZ6ZuehZ3ac8Yd4rdYyx1DHy12sY3+UvYtRBt+K+P8Ev90G5XwPytNfzX2PPbGXgv3Aj3sYgPnEy4as6RcKlfUk31FBOOuRZz6L+nI2Tt+aAyXMBmFJS1h+UAU+24ldI7t8DLHMRQPrfag3bzPmwM3I6wHjZX5t/MRfMBfgMdORxWBrH+L3D1hvehH31DwTSRyO7sAxMOovgbB5semexeMoDf64rSnMwm6eQYGn1+2yNEYCPDeL/D0SwX4O9Xe72dH7G+TFfYjLQ+goP45xe9ZnrOnObEbc7qvb46sIKE8mz6esRueqaCihyIdoD7x4HFmQGtsKP7J80emKogG0yI/lip5pjy5BMxIAH2CP0C91d/e8HUdMOcFRsPLhfp9+cb83PLzn32DGfjvD4TWGxc/T4pgemyLMKN70dqxF/ZLM7rS9hILpqTiu9ogztECwmQQnfHGiDytmxOOe1DsQ3i78sbRT8c/CHzcIOAitZ7RYoGs5qSMLZcDlOjX3khDyuKNwjUicxobPxySnryBX7HzwovmCe5IgR+G8avPZiNN/IW7wyqNuKhTCbty9oxsn5Q5/EErObogheVOkbHCMj2OcdCsHPms6ut8lnOxGMXVonEjIVIlQwlj6xH2CPcM1ytfIL7UqYafEOHMZxn4ZgufYYX3z15oA4xhewIiI8MmkHkH8/4yE/R3PehTpG5Fn+sEspO8g5CO3L/qxGRn9tChimYeQZL7mubwysnLwcrC/BL1L8mFdrl+9sVYeNClQb7hJi9SbIcz6pvJCvQkMTUFsKHLLUpiuXb3pg5DCVe5Sx1niNk41WhcQSlWOZRibfHDzkY4uWJo4bQGOaeEf9/+I4FpqiDuMvdqsO+kPMlQwueFjfTXsNV8WY4jxi5DV78CKFwpo/FTUssGyAdneDdk+5GS7LFmaVtleAan6CYsKHlrNrQDKaeWsYJzx9jsO0uOdsCdV0ImhM3NxBZnJahHpnfjrNH6jkhFBiF5gDDNIU6NnwWT8UrS4Kbjq0Qu2iXNCNZPCFnxpCowYeg1RKORDME58CCCOQ6AiY0eOcoMmMwohbnnJWef59437qOYTBSUfmjFdsxNmZOfN5tDer0tA3CXIW2oFt1xo0ksegrKeSOXrlPDafu5k1WE6ei9Aw4Y9qPopMg/CPY1ZxnHOmh27GutV0+ayJd+UHmJNSnjA1pl1i7+LuGM2e9drZWiBDZKwWVgWh+I3WdnCseHUKJeZxaHIDoASOABl6VjrlUWBDhnAsmdPwjoR3/fHxfdjshDMtqi/ExpkqDfLZXZ1FiboT8LEejq2EH0OFB7LNnOy0tyElymdjT971xkOdcF0HOOwQPxQ1JtDJ9QHiiAqtAzasbQ6yZp4KL36zQ2YMoKlL4rsYzoCNIBQqWGWtg0CylH+Ib8zOD9p7gKz57E34vtKk8S1vZjjlyY5yGt2AuBE+ZbKSyrpSDhhayt9UUfgmi3fvNDirp4txkYnNcBCbXkGVof9BWMEPs95rMShHrtlSJV4a9y9NGnKLNGloxhHXA3l+wSEFJUve6QsfE5C1R4Hq4gZNgy/UMRjmHQyujuFZ47/8fsYKip/t89PQNDUs/XO9CBdXkrSObLzCaR7leyq5Xpltae0OSE4JcynrYFVZXTo63IYhTUzkl99nChhzJqNd0C5R75qLt30OgmYp+lwYlM1zk0EpF8fQnd0z4NQwmj8oFFUfwfTKxoSbChzyZqUOSl3GSir8G+XvT68c1iUmAneYC4dOFSiMtU6Vo4PswGSXMgjFj8ivU2uC7Y90nqngOEmRCmxETtlvdmTEgXncyxdFBvrWT3rTW1pso0qdn8ZL6aH9gLWRTZw0ECSpUu0fMGx1zx9DrqfcYQrLxrUATA94+bon+kr1BHleaaHaXbVVeBpirQbqIdOeAgtpSHCx3slsWHhay139QvZy8TyiqV34v0yiZwnhZDCsFQLsJq0sEdBYesqJAv8+B+vW6XbmGez5+vJ85i8lUj3XTadYa+smhRNlx+nhNlDi2bfhgMcvo0JSGxgkF39WuGihDEoFu9IoCd5jd30As9cDSlVtRLGrlX0u67/XsT1w9KD82CPZA9eXEX1ynop/kpZE5Y5mefAuuj+XFnsFOuLMT3oDc+X4Ox+4HuH7JbzXbb4hyhPV3H6AhyfUT/u+U+lEitWb2zaqHQbUW/yY1KPz5IalB4uf4QsEDXQiMZXNXEtW0ZT9ttOWDCEbegf5sOcjqjmwdPhR8hPx4NreWY0KrsWDcHUIMFUqIRreXT9/VJ4r4HplW7dkk+jNfrN8JjB+grx+se8mhCtSZHHFqbGvmbWLv6CBJLciN5MsjGCs5pYVuLHKWFaMyLZt8KicANmi7t6Vcc0QWmlx1LoqXaik3KtWbHxLCgEaMk1pkolPK5h1/Z/A4rvC5iwE7YdqMSmQY+MV+RujEnOLZoNLC9uz/MD5q9Gz/onGMKhQmEDYjxtRQPRH20ZAgcnTKcZCUS6qztFY+KKCqON/ssQbsZ51+3nykpsqyULqyYww8GMNG1SYaMBOFM0n5OJvhumudshTKiUIUzaZzyjOCZJR9Z0z8aSjF2DJpZ9n9xvTfCt0vounoRCv44r4VETDc5F/t0UKgMqAqeE66AUoIRTI1TC3ei1fANLoV5hGy5VKmFOtqHpn27/+MXIl1umtdyxQc25dNEY9ueOHCjxKvbitr1815FjJupfgPkEf0Djh71pTn6qA+9iD9ffGkGA+rSccCH75T7bbghGsGCAOqHtXFspYLdZN2z+KVgfxlhfW6ThVnvGOyH+URzUEPXfIsKksy80Cba7Ekb8adrsQnpGdm2DcD0P61qfyE1kqp3e9Ifg8o87nKUjb0Q6f4plKGxEUQHzj6W1LOFSIjFQwjiyMdHVB6bfghJ+Wc56UI052i2t4nm70eCtWDf+G8kn5pcdJywRnXr/DERYmgyT+EESsls2Vegx7gCI5NK/GD9yLsaz/4GePIdUVAkXYjb5OgVpmzlMKYDo56iA/I1BAfNEGjlsp52S0lYK2IHFOjGamTJO+eK9HoLNBT997xTidjLSfSYbnAOz2l9EGMp6gVxPavriV92ToXwgzLupfPf8CWdZvc4kF90v6WR6Z5JzSpiNqGz69aElgz1MMGAjirNS61FW2ROmEu7eD0oYG13wAI6wkSbbDFYI1Snh5NIHsMbgdYj3fZJfdlIWGw/NcrQnAhHEUsSzPeDrMdlMuBWMQoCD5+2ENO745nmvx8zox3NKeFoaEQXjWskPttFaiY998N5QAaexJJU6oe1cWypgtHaymH/V3mbLQkWFe95SCV+x9B5sXPBqKOF7YRZkT5iNjHZLM+MbSPxH9vwBkvXVdlckpI89l1Zx9Wy+OSV8xckPY8/s18GsexcaUVDCXKvilHA9Eh6aozu652Kg4juYNbxYlPDWo7FGOll5vWa545jqlYu3oZH0aijhP+bKXW5iVj3iXSwM9sTAiD2yILAKmI3rUvmTGwtHui9bfBtQL4cS/gfmUmAWv9SZ1ilrxZI//hvXWEawBhkWFGlYlSIw7nMf+ZTf6fKxwRj2+W9LRpVX1BbIYCxBojpqZsu8iamGwMkp4Zf8EjtSnQ5z5i9k7FRmjWIJT861WpnL790hntx2j2PZI7t+BoF6ulm76Ne2hw9hT8XcKq7eFjinhLnVqJ85B8rst1iiRCVcJ7OuQwclPIYx4Y4e7MKELRMvHVgoa4SPhhLmzPqKHPJOepJsHGHryCB7Rq7ccfYvNwVptJM4S0MTT/Lm5dKwZk3ptLhJfDKze+mtGEs+E0o4bETIxJ7Gx78+fFKy+QcbIZk0NiqRuDNkl+n1ecrkUCouL5MDqM93CPbSeT3pUeyM4ZCettQHbamALf/KM2pSvrXw1zwlvO7EP8DY/gqMCX8X435QwQmOb1EJs0fVYmmQPGFFoBBJyA5CI7uux5j2Kw2Xu1jzOpRvvqJusSTUKzpOCa97yZ8gOl8LS8Yf0SPjBCEsO6tVmObnO5XwUAphHwRRfb1JDr5ItqzcgG+VCjP2JF3jj7siZdNs/N0gs6O5LSb2d6o97kUA22SBDnRNEMw1a27GdHk49urLcaKE13A3hqgs6/PTpyH+t2FiFneBanz8y4lj4XtYLzi2z7X3bKutxa3ngMPjuMb0N7YB0cbDeOyMsVNWGG3r/tLGCrh1odYnZhSG4UYdVy7egW0Il2MG7ErsiDQCkyY2BpBJPXm94fo8tbZQIEAYr65ZCcRzGNs7Xop4vxbpeCTccMSapGt7yBS+a6x7NXqfIkL20vpjsNEKTtBZ1/+/2D/4tVgnjDH9HquE69ujSWAjECrhJ8McTSX8AtlPe4200MpTXrlE5JU7mtGf8/AyKPh1cn5tZx+2ihTLU6OUQRhXti09nDXdM1uiFW7Ak4tisQ9Uwsu5SQl68mz8RHvQk9/9aQzn4HCCXmzEIzvnNSr+xWJW6DeWPlqLolKvUyMPY/ezt5nLlqxCuflvxDcpa7QjUdb5xsTbGR0KxbDlr7dvZ0wVcKsXLteTYq+Rp/AEkTPQm7oTezVjOwvZNYuVcrrHhvl8HsyekHgN77oDwgIm5yVXCF63bWOrs65//HA8OI7Xc2P6QQQT64YeBCOM6Uue1VH141SmkT1phP1UUcIrNz9XxoSXyfatlafMlTueoLS2fyXK3dmYYfxrKIkoDilAI4KNLZjU6+byUFiFMCu3FnjbpuoaEXIG7jHDWF//PjQcloHP72RIhFt7WmU2nfWGCeYhDb5MGIN+hZXrB7AWnYr18V+1WKFY1i75HBo/V8h+2lHZzLnFGt11KwBVB9TO7QdVwFVnexM9UhhSiNOtW3SrifgvR69kJXqYD2M/5TgEIn+jMKmDeZMPKcNZM6p9JrdJ5ESx1PBD2KrvUrTgT0Pr/acIBROCEG/GvyGujvJfOnaNiCQaTjxGjxOc1i76GZC8Dnn3KA4RqLcSppKKiRLu6ns6lpBfay659cDcvtHVJG1iuYNyyJ6K8D+GDUF2Y4kVjmPEnuJUZFYR52nQah6Wp2PlXA3uhmUOkJC2c3exKtwFKHe0QNBdtvh7JhZ9GUzSH0f8d5oe1JsojtGxpl2W4xrjz4eUcigLdlIVmeGM1K64NGg4Vp0duxDLwM6Gtegeu80mdilbhnOx6dYuvhR163JZnjW+VS2HeurnLPP6hachlUXACvWybtWbppWALBVJRsz2V2LXqGO468s6s3LLDWg1X4jPb4AC3F+28UvJhusUKFzSjhOMGGu+1GSmGR+1tCZIGpqjECAxCDG03Hc9BqH2LZz9ejUm8GzjE8XkPP8HmNENM3ojnTR/JX2VPyXnjXLRLuyvPJAyfMjYahKTnDA2uXbxANbuvgENlQ04oaZP9t6224KWEVCJW7jBILdjHMEBV4nu5+IZZ+D7V7A4cuqzd0sEJz9LueOe05twPODSh3DtQ+bSjTeY4Z0X4fMyUWTcSziNfZLtJgrcjcrGxBa8cp4yfg/HrWXCuAdzd7gZx/zd1StHnuEr66MZ/xO340EX45ziDWb4iXcA1XJMbuxG2UX8ZRIPW3S23jBGHIutR71h/nPaKA5mQ6Ax9HhRL4F0dPffEP7XjO991XDCHh177Rdge9oNVNZwbMAyDy7rX4GDM/4Gth9DnGeBP39lwzaKP0aUzr3bb2W94jGsQ16kCr9lPaDhN0k2NfwpjXmAKuDGcG1MqDLJBGNczqS79kSeAHKRWbn5q6jMb0BFWgaleBhayjGMwaI/LNYqzLxlBZMohZUMb/kTdHjVVncbb5mQkbtgJ8XYUg7zI5ZGxDCU5qPup0b+bAwUSRaHrl+BmbPOufi574169yM41QmR97OM7KQeweREuUhMuE5VgT/s/ODLvsTupvq/M++4PGgB/pKLfwwl/Cbw+45JdHRCATCjUBcZtxoc85Tp4T8/i8+YyERnDzufkPCKnpKUpTDj5Y77lhtzJ87IXY8G4Hl42pmY6MQ1yVRkzA+uYQVXSQ9ewnTZ+LlHhxf5lcqGWciP+Gx3w0L5zcyxF2t8nRz/tUt+gRDPM8ktV0ORvQmfz4ZF4mCUg4go4ywm9NA0bBsCfHgYV7wVqjdSZ3hrmA5+kHonXtFYRZ1hvcHEZpjyf4cQv42JVtfJODW9ydKx/ogcTMLvzkkDKKeErzaXDv4Km6WsQVinyulMcuyhnC1IduPxpP/8uLrw+O7i6iGBTGksjhMN5PSz/Lv0cxMIqAJuAuS6P0JMgxDk7A3zM5f3GPNrLEP5PCr4S1Gl2PNZiHEjHv8WFYHGYwblD3pKhCPuso7vrsfiLrEiYwEEWunQTfYPn3lMYXrsEZNN3Q7f/43xqp+gdf5A6Cmv19sokzOfBAG9NRzX9Py/Y60tenuYJZoaQQQN/0Lnkue+u/e86zSddnTbxkrE+73cwR6H5zWm1y5KmL3JpAeT6I3o0bwFPL+F+GMms2wkMB5/5kBeVJEb9rt7Z2TzP7vvfE90YvUrGmBB5Of8GvaA80OTyxW/SLnL9YYz0ps3ZgCTvv4JZvUzUc5Y7p4PZUzTNMoLyxzKjJg3ub5Xrk4Rj9wlpsjHGci28Rjx76s4jsU8TI5/8kTbkFhx+6dg4j0Vnd3ToXSPR37MxnaYqDfoEEsa8E5lPLHe2CcxxjlHKxOUoNQbdExpHaJOlB722APIkwGpN7Hgp6g3PBvZOtmOFb1enA3oLk14pxJ2x09ys5Hz7zrDHDi0DOFeAKaLhDcZZ9GOE10smt82Lm2pYXDjMbUNIcYzIid4DeNENM/8P3kmrQVOQU+IhH5pBIHxTGlE6HUOE+VfznrcuHFjL3bDGuzq6n7+yMgIzUYUXIXSwtod9PT0RHBo8w2LFi16FaOFsNBeDM08vNCujhWTJ8awkua7FVueYbz0i40XXYjEPg8pPhyI5spkDirVUo7KmoLDmPAQdfMriMY7jJe9Uw7uzvdPpcUtA3lMXDMcewtUZnQrBj6K14vRwwjzv1AxkLvzXkKhzzTyNJ3I4kvCSUvRhqfDCVPGZuXAuXi9GjN0O0VR5aKf+5AX5xIfXY+LDaVs+tNQ8u8THyJw61zW5SCEDUaWPLloJTf2mmz0hShvS8D0BFxegL+DsRwNwp6WUjpwZzzlI94lmXzBn7yhKvP3saH1mPx1gdyXn99yoQ4vXKq0bVK9kWtPfhaU2IsRzYWIyHPxfhh25dpfeq+5NBR6PuJNhc1jC02wA37vg9+7IZ5uh5Xo5+byE/46wSfrjVkCy4hYGCb8NOUXcjh6tScz3HnDRTd1mNl9i2DafgW+LcLfUWg49OGsb7AkzCKO9Ts1Oob7sHtYcKW5bMnN9m5pRIQZVMR/HX/Kl8WDg4M39PT0njU0JD1yKRH/v727i5GrPA8APDu76/2xjcHgBEpCCwUqQWkvAKlF/oMIUSyomgscKVchuWulUFVVe9V4rdwnUdWkpTe5aBSqUlUqqkqQohZjm5tQ0SgKqkrkIgrFjasYr9e76/V6p+97Zs56jHdmZ9Y7uzPr51jjmZ3z+z3nzPue7zt/LWaVy7g0MTExPDc3+3Y8H2D/448/PlPmiBbj9N3Xq6yl/lreElcCXmG9XEnEmQSv/gH98Wvb4+zYz0RGvTuC3K9EUv6lCHJ5o4Nd8QMcj+FzByYTWrSPVabjB3kmfsEfxuu9qDW/Vxm56b/juPMnb3YeST+eYtRNAImJr1vXnFSmTvxWNFc+FMsb11CW0b3NnPJ4b+x/BVOUefEnla8/cbIYuheBvtViNCfhvHZ3qfK5WJ7tsebyXySsViO2+L4+Vr0BemjorcrRfa8UNZlelymTVnZ5tnRzVz/ueldlsXp/JKFfi7L9apQrtsE4sWqoktf3jsffWUWMmnEtry+OJ9oM/SI2w9j2qscqw6e/X5k6vFAcv+00QTXPv9PPuR7yGHk+2OGT3Z+c2FmZXPpsZbGWSfiXowx3xnpqLH8tLsovnuMXJz4OzUYZzsX7z+P9wyjLe3Hm8nuV8Ts+qEw9WBwHWp50brfF08+6SLzLIzc+5M5P3jSluQKROz8LlXvjPIz7Y6h7YjniN165JZYxn9PY2PsZuhT256McP49+p8L5x5Xhj94unItJb3zyzdk2J+Djx4//w+Tk9s93k4DjNpRvLy1JwMUq7OV/EnAHuvkDLx9invfRbf6RdjB620F6Oe22M27RszkJtxik4697nahWWpBez7PX028uUybcn748VHnwuVrbGl1R64vkW7kYze6Tw5WdY0uVc9OLlTvj4PFXDxVNLsuT3dDlj9plecOPl+N3ExlseTmu90OWo5z2ev0my9/iat6dLHsu35Ejecx+/crcyXwbwzQn4O5rwJNRA74wsDXgDtoiu5A06OYL1H9Ejb35SMZFTSQWqwyOxfNj48fWNsDkeEejhnikabyiaFeamfuh7STLWga38gHt3a6BDIw5btmk3e341zN8zjMD6dGolxyJOknRbHg9MTBXSow/FdMr1nNMf6O6spb6csw718lV287RPMmoviz1QyUzbRerGD+GKMdpO/A69WyeV7FO8lh3dGv53ZTJNpPjld9bvfzr9bspf+cv52/1E971ban9hrT8u8kdpthopjYn+V7/2oumn/Ylvf5Z9HAK67U59HARr0xaDfiKxRo/RRNl09a60j12c0+47IqEkBF9ALoMmmvpNmmv/5pFXevyXzOh+KKQ6JuAemWbW97ejqyw1EevfDe12g7ilUE35lNsW82/guVyNM29/N3U7bNH8xhNA/b6Y9OyrrScOfvlZe2PbeT6asATw4PcBD2wNeDmPNLrTXoLTb9Ry1ou0bVBYmpquedAfeiXRLpWtEFf/tblbt7mGtvbVOuhiz6r9V9l9HXvHYnq6t27Pv7dXLWs1y5n2vTxb3xLnBjbxfbX7akeXUy6t4Pm07p0BAgQIHBjC9Qb6gbTYCCz2MLCQuzZ5RmsOgIECBDYKgLRsnl1W0NHBRuq7d69e+Xafkfjb95AA5WAjx6tHyeKa74W47jBwvKNXzr0c7vTDqEMRoAAgU0QiATcVSLNHBDjLExOTsaFzXHKWyNHbMKir2mWA5WAyxI+/fTTmXzjusFuu7h+TkeAAAECfSkQcb3rnBQ5+MK999579fXWfVm6axeq68JeO4mN/yZWUu4lfZx7P9F10mQRFeY8F6S4KL0YPvaUOhlv4wtnjgQIELiBBJpjccTpyYzV0XVUE67ngKHMBR0N32+sA5WEYsWEcx362LHj396xY/vvX7gwu5R5OPq12pnIFVPcsmx2du6t6emJA88++8hsDh/Tchy537ZIy0OAwA0lUMbiN998c+LSpcVjcdvgR+PSoryXQcb0FXNUxu4Yr5K3GI4c8Jf79++Np1sVeWA5R+Tf/d61Slp9u9yBXqyQyMMfLBUHdWtx88HWOz85fPavD1O77dZbF+L2bPmAmLhrj44AAQIENlWgjMURz2+J7HlbxvVGzG4Zo+vxPO5jWuSApQ+yAPFdy+E3tYBtZj5wCTjKUiBHBfbUpUtxa9Po2pQv+xe948St/LwnzqC+K7/YsyduxK4jQIAAgU0VKGNxhPO7Iol+KmN1dmXsbrVw0X8oc0B0pxrDDFxMH6gEHN61cm+pWq39LPAvxFOR0r51FTh65orMlTo6Oro9nsAVTwbSESBAgEA/CYyOVn5z27Zt2xuVpdUWrZaxf3Fx8cLly9Wf5cCZGzJHrDZiP/UfqASccM89l/dXjcd7DA//V7y9PzIy2mhebpuEq9FUsRQrN0YZejzHj0dX5aVMA7fHlMuuI0CAwFYQyBicsTjLcvly7YmM0Rmr4892uSlGq1VGRoobOb4/NlYtasBlbhgkl3aF7OtyPPbYY7+IvZ1/H4nnZrfrckVFl4l2KfaWMlk/cezYsXh0XaXy6quvZkbWESBAgMAmCJQxOB4x++vRUPlExujoMgFnzG5bm20k4B9nLsiRBrEbxAScez+NmmvtjVxhkYjzjOYVV1Z8X66X6sWLF2tx1tyt0Qz9h/nloUOHLr777rtj5QDeCRAgQGBjBDL2ZgzOuQ0Pj74QN9O4LWN0/FnmpeXgXS5RVqgy1mfMX1zMY8W1N7JfIyesmAPKcfvxvajD9+OCtVqmxP+7+kPAU/+N+fn5s3Fs95Y4Hlyclt6UcJsmkeslnsJeq12OFTwc6/DL8dzJt/fv3/8X991338XG9Ibvueee2qlTp5ayKWOtd1SZan6sWdMS+EiAAIFBF4j4VibHropy5MiR4hhtxNhqxNhMrJcz9uZE4pLSP4gU+pWIzZlI47LSobbNmjFMLWJ+dX5+7mxUpooEHMd/q4cPH66fvdXVkm3uwAOXgJu5IoG+c/z48dfHx8c/n/eHzuQc/a/Zayq/yhUbB/gXY+WNRML+Rox7+8TExLceeeSR/4vx1mXlxbZRzeQtETevKZ8JEBhkgUy8mUQjhmbzcNddjF+Osxxno9n5tmhGfiEqRH8aMTnPaF6M6bfNSRnjs4uYX7l0aeGNvXv3/bSc8CC+r5Cs+r8Y4V8sd66MY8dOfGFsbPRvIwEXG0ccv489tKH43LYci7His6vMzc39pFod+scY7Xi8/nNhYfrMU089tYbbXF49v9xg47WmjfXqKfmLAAECmyewXrHstdde2x4nWe2pVrfdX60u7YvE+7uRSH8jDyPGKw/+tky+EfMLgKjxZktnNU/Wmp9f+OLBg/teas4Hm6e0tjm3LPDaJrcxY2Xijb2nXPbFsbGRVxcWLv5ox46dj87MzFyOftlE0qImvLx8I7nCoxvZsWPHQ0tLtYfm5mbnh4eXPhofn/zfaBI5G0POxWwigbbP5I0pxvyKnYKRpaWhf63VFr+TZ/at14a7vNQ+ECBAYAMFyhiWh+luv/32vNvUE/GKZFm2Nq4WavMmSEVMnojYfHO0MN8eleg7Is6OR8WncuFCUddpm3zL4sb42UR9OWJ2NWL9v126NP/P2e/1118fLs+kLocdlPeBTMCJe/Dgwcu55xPddBzP/U4k0+/G16PxylpnJuHVuiz7UmwA2SQyGntU41Ejvjv2sO5ebcSV+ueZ86OjuVc293vz80N5bOPFBx54oKPsvdL0fEeAAIHNFihj2Kc/fcdXtm0b+/PJyYlKtjZGnFzTomWcjFgdLY+zOX7eRSOP966ahzL5RpexfTTHjz+//eSTT55r1H6Xm7VzoEHqVi14vxYmVshyLXhm5o5ohjj9xZtv3vXkuXPncm8qLy9abdcsi5ZbUb6WYqO6nBtWdHmQIRN7fm7u8otymvmeXfN3sXHMVm666aaRixfnfzv6vZgnBTSmVQ5fjOQ/AgQI9LtAI3Y1klvtsfHxscrHH3+c8TW7jJtlXGuOg9mv/D4/F11MKw8R5vdlv0y8WWHqpMtxch6LEV+3TU9P/zBO5XkpRxzk2m8u/9p2Y3LMPuiy2SGbog8dyrPphqci+c6MjY1l8s1MGom044VMh9wY8jUSrdj59ydfuQHkd+V78+fl7+JEghysuD9afNARIEBg4AUiJkZoK8JaGevK90/Gwebvl2No1Jjzc1b4yjibf3fSlcl3IWN7xPhos65NReyfz9g/qE3PZcE7RSiH77v3uKlGNktUDhx47M1YMV/L9RyvTMJxRl1803kSbipbcTw3N6SuX/XtrFikpun5SIAAgUEWWCqbnTNndB0XszbdbekbsTvHy7Ojt9Vj+9DX4uqXkzmtMvZ3O91+Gn7gE3Ceadw4IasSK+abcWzhr7Zv35HGubfVSMJrysJdr6dGE0uedND1xtb1zIxAgACBDRIoY1oZ43o923qTdTGXbPIe3rlzZ55f8+K+ffu+kd9mzM/YXwwxwP8NfAJO+7IpOj+fPn36hZmZ6e/HsYL8M5Pwpdho8nPPu7Xs5fV8ocyAAAEC1ymwUYm3XMxGzM4275GI5UNx3Pel3bt3fzX7b4Wm57KcWyIBZ2EyCb/11lujceLTwvnz5798/vz038Tp6vnQhjzmUNxxpVHonlWHN3ojbZTHGwECBLaCQHNsvpixOy4vrUxPn//ezMz55x988MGFjPGDfty3eUVtmQSchYo7Wl3KFZT3F927d++XYqV9M48bTExM5v2e88SsbM7YmOpwzEhHgACBrSBQtu6V7z0qU3G8N6a9EHcoHMvYHa2Z3zp9+n++lDE9Y3vG+B7Ne1MmO7CXIbXSKpNw1EZzRf1R3G7yP+Lsva/v2rXrU3Hxdj4XOBNx3hc6znZe31xcbpxqwq3Wju8JEBhEgbiCqKidZmwr49x6lSOml5coZeVoKWq927LlMs52PhM37fizAwcOvJjz2YrJN8u1pWrAWaDsMgmXJ2bFQfu/jhX5O9PT517OBz1HIt6W94KOwfL6tkzSxYqP99zAml/xZ/Pf5TVsxQZ4Vb/GBlSMm591BAgQ2EoCeRJWxrYy1jXiXJt4WQyaBGVIbB42P+cJVBl7MwZfzpicsTlv1BHJ9+9rteGnyuSbsXyr1XyjzEW35WrAZcHyOEHePu2dd96pxYp8O7aCL5w8efJ7sXKfj89PxoH97bHXNZzXtuWrfneVobzPaHbFZMqabPwdH3NDqr9Hz6w6FwPldzlwvBdn5MXdtHKnZsu6Zll1BAjcWAIR/6p57/zo8uZC+R5v9ZtrxHvLpsRGKI2BI2jGROKViTynNRRJtxqvnFAlztu5cO7cxz+M6X43Kk2v5GB5G8y8E9dWOuabcM3dlk4U5Z2onnnmmdFYobmn9Uqs7H86ceLEo3GS1udiu9kb28QD0e+OuBVl1ozjsEO9USC+a3Za9XPsuQ3nDcLPnj2bG9sPcoSY13BMZ2Bvk7ZqoQ1AgMCWFYjYFSGsHsOifvGDOBP5+TgTeXQtt6KM6RROWcNtVHoWokXyo9nZuXdiPifizlb/cubMmR+VjxTMJueHH344r/8d+EuN2m0g3WWZdlPq837ZjHHmzMHa4cNXEmJ+FxvEnXGHlc/G+2ficrM9sb53RWKOG4dn83x9o1mtaDF8bqiZu4fiYQwnDxzY+0qOE9/F9lM0Xa82Cf0JECDQdwLNMSzOp3k28ujeeGVgi+f2tq75Xl2QbD6s5PBzESbPRSX6TMTbD6PC834k8w+ba7jZarlnz54tXeu92uYG+yuTbr56XezccHs9D9Od2v/pAAAFuklEQVQnQIBArwU2IpZtVFzutZXpdygQG1W1XOm517VeG1lOJ49ddLgYBiNAgEDfC2RMW88YmTG3jL8Zi/sewAL2VqBMnLkxXOdLzbe3q8rUCRDYBIGMkdcZG6vrmcg3gcAsCRAgQIAAAQIECBAgQIAAAQIECBAgQIAAAQIECBAgQIAAAQIECBAgQIAAAQIECBAgQIAAAQIECBAgQIAAAQIECBAgQIAAAQIECBAgQIAAAQIECBAgQIAAAQIECBAgQIAAAQIECBAgQIAAAQIECBAgQIAAAQIECBAgQIAAAQIECBAgQIAAAQIECBAgQIAAAQIECBAgQIAAAQIECBAgQIAAAQIECBAgQIAAAQIECBAgQIAAAQIECBAgQIAAAQIECBAgQIAAAQIECBAgQIAAAQIECBAgQIAAAQIECBAgQIAAAQIECBAgQIAAAQIECBAgQIAAAQIECBAgQIAAAQIECBAgQIAAAQIECBAgQIAAAQIECBAgQIAAAQIECBAgQIAAAQIECBAgQIAAAQIECBAgQIAAAQIECBAgQIAAAQIECBAgQIAAAQIECBAgQIAAAQIECBAgQIAAAQIECBAgQIAAAQIECBAgQIAAAQIECBAgQIAAAQIECBAgQIAAAQIECBAgQIAAAQIECBAgQIAAAQIECBAgQIAAAQIECBAgQIAAAQIECBAgQIAAAQIECBAgQIAAAQIECBAgQIAAAQIECBAgQIAAAQIECBAgQIAAAQIECBAgQIAAAQIECBAgQIAAAQIECBAgQIAAAQIECBAgQIAAAQIECBAgQIAAAQIECBAgQIAAAQIECBAgQIAAAQIECBAgQIAAAQIECBAgQIAAAQIECBAgQIAAAQIECBAgQIAAAQIECBAgQIAAAQIECBAgQIAAAQIECBAgQIAAAQIECBAgQIAAAQIECBAgQIAAAQIECBAgQIAAAQIECBAgQIAAAQIECBAgQIAAAQIECBAgQIAAAQIECBAgQIAAAQIECBAgQIAAAQIECBAgQIAAAQIECBAgQIAAAQIECBAgQIAAAQIECBAgQIAAAQIECBAgQIAAAQIECBAgQIAAAQIECBAgQIAAAQIECBAgQIAAAQIECBAgQIAAAQIECBAgQIAAAQIECBAgQIAAAQIECBAgQIAAAQIECBAgQIAAAQIECBAgQIAAAQIECBAgQIAAAQIECBAgQIAAAQIECBAgQIAAAQIECBAgQIAAAQIECBAgQIAAAQIECBAgQIAAAQIECBAgQIAAAQIECBAgQIAAAQIECBAgQIAAAQIECBAgQIAAAQIECBAgQIAAAQIECBAgQIAAAQIECBAgQIAAAQIECBAgQIAAAQIECBAgQIAAAQIECBAgQIAAAQIECBAgQIAAAQIECBAgQIAAAQIECBAgQIAAAQIECBAgQIAAAQIECBAgQIAAAQIECBAgQIAAAQIECBAgQIAAAQIECBAgQIAAAQIECBAgQIAAAQIECBAgQIAAAQIECBAgQIAAAQIECBAgQIAAAQIECBAgQIAAAQIECBAgQIAAAQIECBAgQIAAAQIECBAgQIAAAQIECBAgQIAAAQIECBAgQIAAAQIECBAgQIAAAQIECBAgQIAAAQIECBAgQIAAAQIECBAgQIAAAQIECBAgQIAAAQIECBAgQIAAAQIECBAgQIAAAQIECBAgQIAAAQIECBAgQIAAAQIECBAgQIAAAQIECBAgQIAAAQIECBAgQIAAAQIECBAgQIAAAQIECBAgQIAAAQIECBAgQIAAAQIECBAgQIAAAQIECBAgQIAAAQIECBAgQIAAAQIECBAgQIAAAQIECBAgQIAAAQIECBAgQIAAAQIECBAgQIAAAQIECBAgQIAAAQIECBAgQIAAAQIECBAgQIAAAQIECBAgQIAAAQIECBAgQIAAAQIECBAgQIAAAQIECBAgQIAAAQIECBAgQIAAAQIECBAgQODGFfh/JMVbwtrThP0AAAAASUVORK5CYII=;" vertex="1" parent="1">
          <mxGeometry x="-26.25" y="393.75" width="62.5" height="62.5" as="geometry" />
        </mxCell>
        <mxCell id="ocC6ctCUgFMbPHnCsPzQ-12" value="OAuth server" style="text;html=1;align=center;verticalAlign=middle;resizable=0;points=[];autosize=1;strokeColor=none;fillColor=none;" vertex="1" parent="1">
          <mxGeometry x="-40" y="360" width="90" height="30" as="geometry" />
        </mxCell>
      </root>
    </mxGraphModel>
  </diagram>
</mxfile>
